<?xml version="1.0" encoding="utf-8"?>
<!-- Generator: Adobe Illustrator 27.5.0, SVG Export Plug-In . SVG Version: 6.00 Build 0)  -->
<svg version="1.1" id="_x30_" xmlns="http://www.w3.org/2000/svg" xmlns:xlink="http://www.w3.org/1999/xlink" x="0px" y="0px"
	 viewBox="0 0 450 450" style="enable-background:new 0 0 450 450;" xml:space="preserve">
<g id="_x31_4_1_">
	<g>
		<g>
			<g>
				<path style="fill:#B3AA9C;" d="M82.978,179.991l139.728-81.455c0.457-0.264,0.936-0.375,1.401-0.35l-1.081-0.058
					c-0.465-0.025-0.944,0.087-1.401,0.35L81.896,179.933c-1.549,0.894-2.287,3.218-1.625,5.198l41.632,124.457
					c0.467,1.396,1.5,2.234,2.612,2.293l1.082,0.058c-1.112-0.059-2.146-0.897-2.613-2.293L81.354,185.189
					C80.691,183.209,81.429,180.886,82.978,179.991z"/>
				<g>
					<path style="fill:#201323;" d="M222.706,98.537c1.549-0.894,3.351-0.037,4.014,1.943l41.632,124.457
						c0.662,1.98-0.076,4.304-1.625,5.198l-139.728,81.454c-1.549,0.894-3.351,0.037-4.013-1.943L81.354,185.189
						c-0.662-1.98,0.075-4.304,1.625-5.198L222.706,98.537z"/>
				</g>
				<g>
					<linearGradient id="SVGID_1_" gradientUnits="userSpaceOnUse" x1="225.7625" y1="330.1403" x2="230.6503" y2="330.1403">
						<stop  offset="0" style="stop-color:#B3AA9C"/>
						<stop  offset="1" style="stop-color:#E6DDCE"/>
					</linearGradient>
					<path style="fill:url(#SVGID_1_);" d="M126.993,311.033l-0.011,3.997c-0.001,0.587,0.387,1.174,1.159,1.62l97.097,56.059
						c1.531,0.884,4.018,0.892,5.552,0l138.042-80.221c0.752-0.437,1.127-1.01,1.128-1.585l0.011-3.997L126.993,311.033z"/>
					<path style="fill:#FDF6ED;" d="M368.811,285.283c1.53,0.884,1.552,2.325,0.031,3.208l-138.042,80.221
						c-1.534,0.892-4.022,0.884-5.552,0l-97.098-56.06c-1.53-0.884-1.552-2.324-0.018-3.216l138.042-80.221
						c1.521-0.884,4.008-0.876,5.539,0.008L368.811,285.283z"/>
				</g>
				<g>
					<path style="opacity:0.3;fill:#E6DDCE;" d="M317.741,311.039l-46.35,26.761c-1.042,0.602-2.731,0.602-3.773,0l-30.72-17.737
						c-1.042-0.602-1.042-1.577,0-2.178l46.35-26.76c1.042-0.602,2.731-0.602,3.773,0l30.72,17.737
						C318.783,309.463,318.783,310.438,317.741,311.039z"/>
					<path style="fill:#D5CCBC;" d="M236.899,318.442l46.35-26.76c1.042-0.601,2.731-0.601,3.773,0l30.72,17.737
						c0.398,0.23,0.641,0.513,0.735,0.81c0.153-0.481-0.091-0.996-0.735-1.368l-30.72-17.737c-1.042-0.602-2.731-0.602-3.773,0
						l-46.35,26.76c-0.645,0.372-0.888,0.887-0.735,1.368C236.258,318.956,236.501,318.672,236.899,318.442z"/>
				</g>
				<g>
					<path style="opacity:0.3;fill:#E6DDCE;" d="M270.238,236.982l-129.041,74.502c-1.042,0.602-2.731,0.602-3.773,0l-1.806-1.043
						c-1.042-0.602-1.042-1.576,0-2.178l129.041-74.502c1.042-0.602,2.731-0.602,3.772,0l1.806,1.043
						C271.279,235.405,271.279,236.38,270.238,236.982z"/>
					<path style="fill:#C1BAB9;" d="M135.618,308.82l129.041-74.502c1.042-0.601,2.731-0.601,3.772,0l1.806,1.043
						c0.397,0.23,0.641,0.513,0.735,0.81c0.153-0.481-0.091-0.996-0.735-1.368l-1.806-1.043c-1.042-0.602-2.731-0.602-3.772,0
						l-129.041,74.502c-0.644,0.372-0.888,0.887-0.735,1.368C134.977,309.334,135.22,309.05,135.618,308.82z"/>
				</g>
				<path style="fill:#D5CCBC;" d="M184.033,322.749c-0.015-0.072-0.015-0.141,0-0.214c-0.015-0.072-0.015-0.141,0-0.213
					c-0.056-0.264,0.068-0.538,0.419-0.741l6.248-3.607c0.607-0.35,1.591-0.35,2.198,0l5.254,3.034
					c0.351,0.203,0.475,0.477,0.419,0.741c0.015,0.072,0.015,0.141,0,0.213c0.015,0.072,0.015,0.141,0,0.213
					c0.055,0.265-0.068,0.538-0.419,0.741l-6.248,3.608c-0.607,0.35-1.591,0.35-2.198,0l-5.254-3.034
					C184.101,323.288,183.978,323.014,184.033,322.749z M171.806,320.101l5.254,3.034c0.607,0.35,1.591,0.35,2.198,0l6.248-3.607
					c0.352-0.203,0.475-0.477,0.419-0.741c0.015-0.072,0.015-0.141,0-0.213c0.015-0.072,0.015-0.141,0-0.213
					c0.055-0.265-0.068-0.538-0.419-0.741l-5.254-3.034c-0.607-0.35-1.591-0.35-2.198,0l-6.248,3.607
					c-0.352,0.203-0.475,0.477-0.419,0.741c-0.015,0.072-0.015,0.141,0,0.214c-0.015,0.072-0.015,0.141,0,0.213
					C171.331,319.624,171.455,319.898,171.806,320.101z M186.297,299.351c-0.352,0.203-0.475,0.477-0.419,0.741
					c-0.015,0.072-0.015,0.141,0,0.214c-0.015,0.072-0.015,0.141,0,0.213c-0.055,0.264,0.068,0.538,0.419,0.741l5.254,3.034
					c0.607,0.35,1.591,0.35,2.198,0l6.248-3.607c0.352-0.203,0.475-0.477,0.419-0.741c0.015-0.072,0.015-0.141,0-0.213
					c0.015-0.072,0.015-0.141,0-0.214c0.055-0.264-0.068-0.538-0.419-0.741C192.267,294.314,194.878,294.396,186.297,299.351z
					 M272.601,279.934l6.248-3.607c0.352-0.203,0.475-0.477,0.419-0.741c0.015-0.072,0.015-0.141,0-0.213
					c0.015-0.072,0.015-0.141,0-0.214c0.055-0.264-0.068-0.538-0.419-0.741l-5.254-3.033c-0.607-0.351-1.591-0.351-2.198,0
					l-6.248,3.607c-0.351,0.203-0.475,0.477-0.419,0.741c-0.015,0.072-0.015,0.141,0,0.214c-0.015,0.072-0.015,0.141,0,0.213
					c-0.055,0.264,0.068,0.538,0.419,0.741l5.255,3.034C271.01,280.284,271.994,280.284,272.601,279.934z M201.992,320.7
					l6.248-3.607c0.351-0.203,0.475-0.477,0.419-0.741c0.015-0.072,0.015-0.141,0-0.214c0.015-0.072,0.015-0.141,0-0.213
					c0.056-0.264-0.068-0.538-0.419-0.741l-5.254-3.034c-0.607-0.35-1.591-0.35-2.198,0l-6.248,3.608
					c-0.352,0.203-0.475,0.477-0.419,0.741c-0.015,0.072-0.015,0.141,0,0.213c-0.015,0.072-0.015,0.141,0,0.213
					c-0.055,0.264,0.068,0.538,0.419,0.741l5.254,3.034C200.401,321.051,201.385,321.051,201.992,320.7z M182.458,301.567
					l-6.248,3.608c-0.352,0.203-0.475,0.477-0.419,0.741c-0.015,0.072-0.015,0.141,0,0.213c-0.015,0.072-0.015,0.141,0,0.213
					c-0.055,0.264,0.068,0.539,0.419,0.741l5.254,3.034c0.607,0.35,1.591,0.35,2.198,0l6.248-3.607
					c0.352-0.203,0.475-0.477,0.419-0.741c0.015-0.072,0.015-0.141,0-0.214c0.015-0.072,0.015-0.141,0-0.213
					c0.055-0.264-0.068-0.538-0.419-0.741l-5.254-3.034C184.049,301.217,183.065,301.217,182.458,301.567z M252.427,291.581
					l6.248-3.607c0.352-0.203,0.475-0.477,0.419-0.741c0.015-0.072,0.015-0.141,0-0.213c0.015-0.072,0.015-0.141,0-0.213
					c0.056-0.265-0.068-0.539-0.419-0.741l-5.254-3.034c-0.607-0.35-1.591-0.35-2.198,0l-6.248,3.607
					c-0.351,0.203-0.475,0.477-0.419,0.741c-0.015,0.072-0.015,0.141,0,0.213c-0.015,0.072-0.015,0.141,0,0.214
					c-0.055,0.264,0.068,0.538,0.419,0.741l5.254,3.034C250.835,291.931,251.82,291.931,252.427,291.581z M202.632,289.92
					l-6.248,3.607c-0.351,0.203-0.475,0.477-0.419,0.741c-0.015,0.072-0.015,0.141,0,0.213c-0.015,0.072-0.015,0.141,0,0.214
					c-0.055,0.264,0.068,0.538,0.419,0.741l5.254,3.034c0.607,0.35,1.591,0.35,2.198,0l6.248-3.607
					c0.352-0.203,0.475-0.477,0.419-0.741c0.015-0.072,0.015-0.141,0-0.213c0.015-0.072,0.015-0.141,0-0.213
					c0.056-0.264-0.068-0.539-0.419-0.741l-5.254-3.034C204.223,289.569,203.239,289.569,202.632,289.92z M242.34,297.405
					l6.248-3.607c0.352-0.203,0.475-0.477,0.419-0.741c0.015-0.072,0.015-0.141,0-0.213c0.015-0.072,0.015-0.141,0-0.214
					c0.055-0.264-0.068-0.538-0.419-0.741l-5.254-3.033c-0.607-0.351-1.591-0.351-2.198,0l-6.248,3.607
					c-0.351,0.203-0.475,0.477-0.419,0.741c-0.015,0.072-0.015,0.141,0,0.214c-0.015,0.072-0.015,0.141,0,0.213
					c-0.055,0.264,0.068,0.539,0.419,0.741l5.254,3.034C240.749,297.755,241.733,297.755,242.34,297.405z M212.079,314.876
					l6.248-3.607c0.352-0.203,0.475-0.477,0.419-0.741c0.015-0.072,0.015-0.141,0-0.214c0.015-0.072,0.015-0.141,0-0.213
					c0.055-0.264-0.068-0.538-0.419-0.741l-5.254-3.034c-0.607-0.35-1.591-0.35-2.198,0l-6.248,3.607
					c-0.352,0.203-0.475,0.477-0.419,0.741c-0.015,0.072-0.015,0.141,0,0.213c-0.015,0.072-0.015,0.141,0,0.213
					c-0.055,0.265,0.068,0.539,0.419,0.741l5.254,3.034C210.488,315.227,211.472,315.227,212.079,314.876z M262.514,285.758
					l6.248-3.608c0.351-0.203,0.475-0.477,0.419-0.741c0.015-0.072,0.015-0.141,0-0.214c0.015-0.072,0.015-0.141,0-0.213
					c0.056-0.264-0.068-0.538-0.419-0.741l-5.255-3.034c-0.607-0.35-1.591-0.35-2.198,0l-6.248,3.607
					c-0.351,0.203-0.475,0.477-0.419,0.741c-0.015,0.072-0.015,0.141,0,0.214c-0.015,0.072-0.015,0.141,0,0.213
					c-0.056,0.264,0.068,0.538,0.419,0.741l5.254,3.034C260.923,286.108,261.907,286.108,262.514,285.758z M222.166,309.052
					l6.248-3.607c0.351-0.203,0.475-0.477,0.419-0.741c0.015-0.072,0.015-0.141,0-0.213c0.015-0.072,0.015-0.141,0-0.213
					c0.055-0.264-0.068-0.539-0.419-0.741l-5.255-3.034c-0.607-0.35-1.591-0.35-2.198,0l-6.248,3.607
					c-0.351,0.203-0.475,0.477-0.419,0.741c-0.015,0.072-0.015,0.141,0,0.213c-0.015,0.072-0.015,0.141,0,0.213
					c-0.055,0.265,0.068,0.539,0.419,0.741l5.254,3.034C220.575,309.403,221.559,309.403,222.166,309.052z M232.253,303.229
					l6.248-3.607c0.352-0.203,0.475-0.477,0.419-0.741c0.015-0.072,0.015-0.141,0-0.214c0.015-0.072,0.015-0.141,0-0.213
					c0.055-0.264-0.068-0.538-0.419-0.741l-5.254-3.034c-0.607-0.35-1.591-0.35-2.198,0l-6.248,3.608
					c-0.351,0.203-0.474,0.477-0.419,0.741c-0.015,0.072-0.015,0.141,0,0.214c-0.015,0.072-0.015,0.141,0,0.213
					c-0.055,0.264,0.068,0.538,0.419,0.741l5.254,3.034C230.662,303.579,231.646,303.579,232.253,303.229z M172.371,307.391
					l-6.248,3.607c-0.351,0.203-0.475,0.477-0.419,0.741c-0.015,0.072-0.015,0.141,0,0.214c-0.015,0.072-0.015,0.141,0,0.213
					c-0.055,0.265,0.068,0.539,0.419,0.741l5.254,3.034c0.607,0.35,1.591,0.35,2.198,0l6.248-3.608
					c0.351-0.203,0.475-0.477,0.419-0.741c0.015-0.072,0.015-0.141,0-0.213c0.015-0.072,0.015-0.141,0-0.213
					c0.056-0.264-0.068-0.538-0.419-0.741l-5.255-3.034C173.962,307.041,172.978,307.041,172.371,307.391z M209.519,305.663
					l6.248-3.608c0.352-0.203,0.475-0.477,0.419-0.741c0.015-0.072,0.015-0.142,0-0.214c0.015-0.072,0.015-0.141,0-0.213
					c0.055-0.265-0.068-0.538-0.419-0.741l-5.254-3.034c-0.607-0.35-1.591-0.35-2.198,0l-6.248,3.607
					c-0.351,0.203-0.475,0.477-0.419,0.741c-0.015,0.072-0.015,0.141,0,0.213c-0.015,0.072-0.015,0.141,0,0.214
					c-0.055,0.264,0.068,0.538,0.419,0.741l5.255,3.034C207.928,306.013,208.912,306.013,209.519,305.663z M239.781,288.191
					l6.248-3.607c0.351-0.203,0.475-0.477,0.419-0.741c0.015-0.072,0.015-0.141,0-0.213c0.015-0.072,0.015-0.141,0-0.214
					c0.056-0.264-0.068-0.538-0.419-0.741l-5.255-3.034c-0.607-0.35-1.591-0.35-2.198,0l-6.248,3.607
					c-0.351,0.203-0.475,0.477-0.419,0.741c-0.015,0.072-0.015,0.141,0,0.213c-0.015,0.072-0.015,0.141,0,0.213
					c-0.055,0.265,0.068,0.539,0.419,0.741l5.255,3.034C238.189,288.542,239.173,288.542,239.781,288.191z M229.693,294.015
					l6.248-3.607c0.351-0.203,0.475-0.477,0.419-0.741c0.015-0.072,0.015-0.141,0-0.213c0.015-0.072,0.015-0.141,0-0.214
					c0.055-0.264-0.068-0.538-0.419-0.741l-5.255-3.034c-0.607-0.35-1.591-0.35-2.198,0l-6.248,3.608
					c-0.351,0.203-0.475,0.477-0.419,0.741c-0.015,0.072-0.015,0.141,0,0.213c-0.015,0.072-0.015,0.141,0,0.214
					c-0.055,0.264,0.068,0.538,0.419,0.741l5.255,3.034C228.102,294.365,229.086,294.365,229.693,294.015z M219.606,299.839
					l6.248-3.607c0.351-0.203,0.475-0.477,0.419-0.741c0.015-0.072,0.015-0.141,0-0.214c0.015-0.072,0.015-0.141,0-0.213
					c0.055-0.264-0.068-0.538-0.419-0.741l-5.255-3.034c-0.607-0.35-1.591-0.35-2.198,0l-6.248,3.607
					c-0.352,0.203-0.475,0.477-0.419,0.741c-0.015,0.072-0.015,0.141,0,0.214c-0.015,0.072-0.015,0.141,0,0.213
					c-0.055,0.264,0.068,0.538,0.419,0.741l5.254,3.034C218.015,300.189,218.999,300.189,219.606,299.839z M295.066,258.303
					c-0.015,0.072-0.015,0.141,0,0.214c-0.015,0.072-0.015,0.141,0,0.213c-0.056,0.264,0.068,0.539,0.419,0.741l5.254,3.034
					c0.607,0.35,1.591,0.35,2.198,0l6.248-3.607c0.351-0.203,0.475-0.477,0.419-0.741c0.015-0.072,0.015-0.141,0-0.213
					c0.015-0.072,0.015-0.141,0-0.214c0.056-0.264-0.068-0.538-0.419-0.741l-5.254-3.034c-0.607-0.35-1.591-0.35-2.198,0
					l-6.248,3.607C295.134,257.765,295.011,258.039,295.066,258.303z M199.432,311.486l6.248-3.607
					c0.352-0.203,0.475-0.477,0.419-0.741c0.015-0.072,0.015-0.141,0-0.213c0.015-0.072,0.015-0.141,0-0.213
					c0.056-0.265-0.068-0.539-0.419-0.741l-5.254-3.034c-0.607-0.35-1.591-0.35-2.198,0l-6.248,3.607
					c-0.351,0.203-0.475,0.477-0.419,0.741c-0.015,0.072-0.015,0.141,0,0.213c-0.015,0.072-0.015,0.141,0,0.214
					c-0.056,0.264,0.068,0.538,0.419,0.741l5.254,3.034C197.842,311.837,198.826,311.837,199.432,311.486z M190.339,308.76
					c-0.607-0.351-1.591-0.351-2.198,0l-6.248,3.607c-0.351,0.203-0.475,0.477-0.419,0.741c-0.015,0.072-0.015,0.141,0,0.214
					c-0.015,0.072-0.015,0.141,0,0.213c-0.055,0.264,0.068,0.538,0.419,0.741l5.254,3.034c0.607,0.35,1.591,0.35,2.198,0
					l6.248-3.608c0.352-0.203,0.475-0.477,0.419-0.741c0.015-0.072,0.015-0.141,0-0.213c0.015-0.072,0.015-0.141,0-0.214
					c0.056-0.264-0.068-0.539-0.419-0.741L190.339,308.76z M222.806,278.272l-6.248,3.607c-0.352,0.203-0.475,0.477-0.419,0.741
					c-0.015,0.072-0.015,0.141,0,0.214c-0.015,0.072-0.015,0.141,0,0.213c-0.055,0.265,0.068,0.538,0.419,0.741l5.254,3.034
					c0.607,0.35,1.591,0.35,2.198,0l6.248-3.608c0.352-0.203,0.475-0.477,0.419-0.741c0.015-0.072,0.015-0.141,0-0.213
					c0.015-0.072,0.015-0.141,0-0.214c0.055-0.264-0.068-0.538-0.419-0.741l-5.254-3.033
					C224.396,277.922,223.413,277.922,222.806,278.272z M232.893,272.448l-6.248,3.607c-0.351,0.203-0.475,0.477-0.42,0.741
					c-0.015,0.072-0.015,0.141,0,0.213c-0.015,0.072-0.015,0.141,0,0.214c-0.055,0.264,0.068,0.538,0.42,0.741l5.254,3.033
					c0.607,0.35,1.591,0.35,2.198,0l6.248-3.607c0.352-0.203,0.475-0.477,0.419-0.741c0.015-0.072,0.015-0.141,0-0.214
					c0.015-0.072,0.015-0.141,0-0.213c0.056-0.265-0.068-0.539-0.419-0.741l-5.254-3.034
					C234.484,272.098,233.5,272.098,232.893,272.448z M249.867,282.367l6.248-3.607c0.352-0.203,0.475-0.477,0.419-0.741
					c0.015-0.072,0.015-0.141,0-0.214c0.015-0.072,0.015-0.141,0-0.213c0.055-0.264-0.068-0.538-0.419-0.741l-5.254-3.034
					c-0.607-0.35-1.591-0.35-2.198,0l-6.248,3.608c-0.352,0.203-0.475,0.477-0.419,0.741c-0.015,0.072-0.015,0.141,0,0.213
					c-0.015,0.072-0.015,0.141,0,0.214c-0.056,0.264,0.068,0.539,0.419,0.741l5.254,3.033
					C248.277,282.718,249.26,282.718,249.867,282.367z M242.98,266.624l-6.248,3.607c-0.351,0.203-0.475,0.477-0.419,0.741
					c-0.015,0.072-0.015,0.141,0,0.213c-0.015,0.072-0.015,0.141,0,0.214c-0.056,0.264,0.068,0.538,0.419,0.741l5.255,3.034
					c0.607,0.35,1.591,0.35,2.198,0l6.248-3.608c0.351-0.203,0.475-0.477,0.419-0.741c0.015-0.072,0.015-0.142,0-0.214
					c0.015-0.072,0.015-0.141,0-0.213c0.055-0.264-0.068-0.538-0.419-0.741l-5.255-3.034
					C244.571,266.274,243.587,266.274,242.98,266.624z M212.719,284.096l-6.248,3.607c-0.351,0.203-0.475,0.477-0.419,0.741
					c-0.015,0.072-0.015,0.141,0,0.214c-0.015,0.072-0.015,0.141,0,0.213c-0.056,0.264,0.068,0.539,0.419,0.741
					c5.157,2.978,6.051,3.842,7.452,3.034l6.248-3.607c0.351-0.203,0.475-0.477,0.419-0.741c0.015-0.072,0.015-0.141,0-0.214
					c0.015-0.072,0.015-0.141,0-0.213c0.055-0.265-0.068-0.538-0.419-0.741l-5.254-3.034
					C214.31,283.745,213.326,283.745,212.719,284.096z M259.954,276.544l9.5-5.485c0.352-0.203,0.475-0.477,0.419-0.741
					c0.015-0.072,0.015-0.141,0-0.213c0.015-0.072,0.015-0.141,0-0.213c0.055-0.264-0.068-0.539-0.419-0.741l-5.254-3.034
					c-0.607-0.35-1.591-0.35-2.198,0l-9.5,5.485c-0.352,0.203-0.475,0.477-0.419,0.741c-0.015,0.072-0.015,0.141,0,0.213
					c-0.015,0.072-0.015,0.141,0,0.213c-0.056,0.265,0.068,0.538,0.419,0.741l5.254,3.034
					C258.363,276.894,259.347,276.894,259.954,276.544z M260.519,263.834l-5.254-3.034c-0.607-0.351-1.591-0.351-2.198,0
					l-6.248,3.607c-0.351,0.203-0.475,0.477-0.419,0.741c-0.015,0.072-0.015,0.141,0,0.213c-0.015,0.072-0.015,0.141,0,0.213
					c-0.055,0.264,0.068,0.539,0.419,0.741l5.255,3.034c0.607,0.35,1.591,0.35,2.198,0l6.248-3.607
					c0.352-0.203,0.475-0.477,0.419-0.741c0.015-0.072,0.015-0.141,0-0.214c0.015-0.072,0.015-0.141,0-0.213
					C260.994,264.311,260.871,264.037,260.519,263.834z M224.085,268.751l5.254,3.034c0.607,0.35,1.591,0.35,2.198,0l6.248-3.607
					c0.351-0.203,0.475-0.477,0.419-0.741c0.015-0.072,0.015-0.141,0-0.214c0.015-0.072,0.015-0.141,0-0.213
					c0.056-0.264-0.068-0.538-0.419-0.741l-5.254-3.034c-0.607-0.35-1.591-0.35-2.198,0l-6.248,3.607
					c-0.352,0.203-0.475,0.477-0.419,0.741c-0.015,0.072-0.015,0.141,0,0.214c-0.015,0.072-0.015,0.141,0,0.213
					C223.611,268.274,223.734,268.548,224.085,268.751z M193.711,334.002l-5.254-3.034c-0.607-0.35-1.591-0.35-2.198,0l-6.248,3.607
					c-0.352,0.203-0.475,0.477-0.419,0.741c-0.015,0.072-0.015,0.141,0,0.214c-0.015,0.072-0.015,0.141,0,0.213
					c-0.055,0.264,0.068,0.538,0.419,0.741l5.254,3.034c0.607,0.35,1.591,0.35,2.198,0l6.248-3.608
					c0.352-0.203,0.475-0.477,0.419-0.741c0.015-0.072,0.015-0.141,0-0.214c0.015-0.072,0.015-0.141,0-0.213
					C194.186,334.479,194.063,334.205,193.711,334.002z M203.799,328.179l-5.255-3.034c-0.607-0.35-1.591-0.35-2.198,0l-6.248,3.607
					c-0.351,0.203-0.475,0.477-0.419,0.741c-0.015,0.072-0.015,0.141,0,0.213c-0.015,0.072-0.015,0.141,0,0.213
					c-0.055,0.264,0.068,0.539,0.419,0.741l5.254,3.034c0.607,0.351,1.591,0.351,2.198,0l6.248-3.607
					c0.351-0.203,0.475-0.477,0.419-0.741c0.015-0.072,0.015-0.141,0-0.213c0.015-0.072,0.015-0.141,0-0.213
					C204.273,328.655,204.15,328.382,203.799,328.179z M188.485,327.999c0.015-0.072,0.015-0.141,0-0.213
					c0.015-0.072,0.015-0.141,0-0.213c0.055-0.265-0.068-0.538-0.419-0.741l-5.255-3.034c-0.607-0.35-1.591-0.35-2.198,0l-9.5,5.485
					c-0.351,0.203-0.475,0.477-0.419,0.741c-0.015,0.072-0.015,0.141,0,0.213c-0.015,0.072-0.015,0.141,0,0.214
					c-0.055,0.264,0.068,0.538,0.419,0.741l5.255,3.033c0.607,0.351,1.591,0.351,2.198,0l9.5-5.485
					C188.417,328.538,188.541,328.264,188.485,327.999z M213.885,322.355l-5.254-3.034c-0.607-0.35-1.591-0.35-2.198,0l-6.248,3.607
					c-0.352,0.203-0.475,0.477-0.419,0.741c-0.015,0.072-0.015,0.141,0,0.214c-0.015,0.072-0.015,0.141,0,0.213
					c-0.056,0.264,0.068,0.538,0.419,0.741l5.254,3.034c0.607,0.35,1.591,0.35,2.198,0l6.248-3.607
					c0.352-0.203,0.475-0.477,0.419-0.741c0.015-0.072,0.015-0.141,0-0.213c0.015-0.072,0.015-0.141,0-0.213
					C214.36,322.832,214.237,322.558,213.885,322.355z M157.509,314.026c0.015-0.072,0.015-0.141,0-0.213
					c0.015-0.072,0.015-0.141,0-0.213c0.056-0.265-0.068-0.539-0.419-0.741l-5.254-3.034c-0.607-0.35-1.591-0.35-2.198,0
					l-6.248,3.607c-0.351,0.203-0.475,0.477-0.419,0.741c-0.015,0.072-0.015,0.141,0,0.213c-0.015,0.072-0.015,0.141,0,0.214
					c-0.056,0.264,0.068,0.538,0.419,0.741l5.254,3.034c0.607,0.35,1.591,0.35,2.198,0l6.248-3.607
					C157.441,314.565,157.564,314.291,157.509,314.026z M175.839,324.609c0.015-0.072,0.015-0.141,0-0.213
					c0.015-0.072,0.015-0.141,0-0.213c0.055-0.264-0.068-0.539-0.419-0.741l-5.254-3.034c-0.607-0.351-1.591-0.351-2.198,0
					l-6.248,3.607c-0.351,0.203-0.475,0.477-0.419,0.741c-0.015,0.072-0.015,0.141,0,0.213c-0.015,0.072-0.015,0.141,0,0.213
					c-0.055,0.265,0.068,0.539,0.419,0.741l5.254,3.034c0.607,0.35,1.591,0.35,2.198,0l6.248-3.607
					C175.771,325.148,175.894,324.874,175.839,324.609z M170.155,317.417c0.015-0.072,0.015-0.141,0-0.214
					c0.015-0.072,0.015-0.141,0-0.213c0.056-0.265-0.068-0.539-0.419-0.741l-5.254-3.034c-0.607-0.35-1.591-0.35-2.198,0l-9.5,5.485
					c-0.351,0.203-0.475,0.477-0.419,0.741c-0.015,0.072-0.015,0.141,0,0.213c-0.015,0.072-0.015,0.141,0,0.214
					c-0.056,0.264,0.068,0.539,0.419,0.741l5.254,3.033c0.607,0.351,1.591,0.351,2.198,0l9.5-5.485
					C170.088,317.955,170.211,317.681,170.155,317.417z M318.407,262.313l-5.254-3.034c-0.607-0.35-1.591-0.35-2.198,0l-6.248,3.608
					c-0.352,0.203-0.475,0.477-0.419,0.741c-0.015,0.072-0.015,0.141,0,0.213c-0.015,0.072-0.015,0.141,0,0.214
					c-0.056,0.264,0.067,0.538,0.419,0.741l5.254,3.033c0.607,0.351,1.591,0.351,2.198,0l6.248-3.607
					c0.351-0.203,0.475-0.477,0.419-0.741c0.015-0.072,0.015-0.141,0-0.214c0.015-0.072,0.015-0.141,0-0.213
					C318.882,262.789,318.759,262.516,318.407,262.313z M298.233,273.96l-5.254-3.034c-0.607-0.35-1.591-0.35-2.198,0l-6.248,3.608
					c-0.352,0.203-0.475,0.477-0.419,0.741c-0.015,0.072-0.015,0.141,0,0.213c-0.015,0.072-0.015,0.141,0,0.213
					c-0.055,0.264,0.068,0.538,0.419,0.741l5.254,3.034c0.607,0.35,1.591,0.35,2.198,0l6.248-3.607
					c0.351-0.203,0.475-0.477,0.419-0.741c0.015-0.072,0.015-0.141,0-0.214c0.015-0.072,0.015-0.141,0-0.213
					C298.708,274.437,298.584,274.163,298.233,273.96z M308.32,268.136l-5.254-3.034c-0.607-0.351-1.591-0.351-2.198,0l-6.248,3.607
					c-0.352,0.203-0.475,0.477-0.419,0.741c-0.015,0.072-0.015,0.141,0,0.213c-0.015,0.072-0.015,0.141,0,0.213
					c-0.056,0.265,0.068,0.539,0.419,0.741l5.254,3.034c0.607,0.35,1.591,0.35,2.198,0l6.248-3.607
					c0.352-0.203,0.475-0.477,0.419-0.741c0.015-0.072,0.015-0.141,0-0.213c0.015-0.072,0.015-0.141,0-0.214
					C308.795,268.613,308.672,268.339,308.32,268.136z M223.972,316.531l-5.254-3.033c-0.607-0.351-1.591-0.351-2.198,0
					l-6.248,3.607c-0.351,0.203-0.475,0.477-0.419,0.741c-0.015,0.072-0.015,0.141,0,0.214c-0.015,0.072-0.015,0.141,0,0.213
					c-0.056,0.264,0.068,0.538,0.419,0.741l5.254,3.034c0.607,0.35,1.591,0.35,2.198,0l6.248-3.608
					c0.352-0.203,0.475-0.477,0.419-0.741c0.015-0.072,0.015-0.141,0-0.213c0.015-0.072,0.015-0.141,0-0.213
					C224.447,317.008,224.324,316.734,223.972,316.531z M153.477,309.518l5.254,3.034c0.607,0.35,1.591,0.35,2.198,0l6.248-3.607
					c0.352-0.203,0.475-0.477,0.419-0.741c0.015-0.072,0.015-0.141,0-0.214c0.015-0.072,0.015-0.141,0-0.213
					c0.055-0.265-0.068-0.539-0.419-0.741l-5.254-3.034c-0.607-0.35-1.591-0.35-2.198,0l-6.248,3.607
					c-0.352,0.203-0.475,0.477-0.419,0.741c-0.015,0.072-0.015,0.141,0,0.213c-0.015,0.072-0.015,0.141,0,0.214
					C153.002,309.041,153.125,309.315,153.477,309.518z M274.573,287.421l-5.254-3.034c-0.607-0.351-1.591-0.351-2.198,0
					l-46.716,26.972c-0.352,0.203-0.475,0.477-0.419,0.741c-0.015,0.072-0.015,0.141,0,0.214c-0.015,0.072-0.015,0.141,0,0.213
					c-0.055,0.264,0.068,0.538,0.419,0.741l5.254,3.034c0.607,0.35,1.591,0.35,2.198,0l46.716-26.972
					c0.352-0.203,0.475-0.477,0.419-0.741c0.015-0.072,0.015-0.141,0-0.213c0.015-0.072,0.015-0.141,0-0.213
					C275.048,287.898,274.925,287.624,274.573,287.421z M287.686,279.746l-5.254-3.034c-0.607-0.351-1.591-0.351-2.198,0l-9.5,5.485
					c-0.352,0.203-0.475,0.477-0.419,0.741c-0.015,0.072-0.015,0.141,0,0.214c-0.015,0.072-0.015,0.141,0,0.213
					c-0.056,0.264,0.068,0.538,0.419,0.741l5.254,3.034c0.607,0.35,1.591,0.35,2.198,0l9.5-5.485
					c0.352-0.203,0.475-0.477,0.419-0.741c0.015-0.072,0.015-0.141,0-0.213c0.015-0.072,0.015-0.141,0-0.214
					C288.161,280.222,288.038,279.948,287.686,279.746z M282.764,274.153l6.248-3.607c0.352-0.203,0.475-0.477,0.419-0.741
					c0.015-0.072,0.015-0.141,0-0.213c0.015-0.072,0.015-0.141,0-0.213c0.056-0.264-0.068-0.539-0.419-0.741l-5.254-3.034
					c-0.607-0.351-1.591-0.351-2.198,0l-6.248,3.607c-0.351,0.203-0.475,0.477-0.419,0.741c-0.015,0.072-0.015,0.141,0,0.213
					c-0.015,0.072-0.015,0.142,0,0.213c-0.055,0.265,0.068,0.539,0.419,0.741l5.254,3.034
					C281.173,274.503,282.157,274.503,282.764,274.153z M267.874,243.53l5.254,3.034c0.607,0.35,1.591,0.35,2.198,0l6.248-3.607
					c0.352-0.203,0.475-0.477,0.419-0.741c0.015-0.072,0.015-0.141,0-0.213c0.015-0.072,0.015-0.141,0-0.213
					c0.055-0.264-0.068-0.538-0.419-0.741l-5.254-3.034c-0.607-0.351-1.591-0.351-2.198,0l-6.248,3.607
					c-0.352,0.203-0.474,0.477-0.419,0.741c-0.015,0.072-0.015,0.141,0,0.213c-0.015,0.072-0.015,0.141,0,0.213
					C267.4,243.053,267.523,243.327,267.874,243.53z M257.787,249.354l5.254,3.034c0.607,0.35,1.591,0.35,2.198,0l6.248-3.607
					c0.351-0.203,0.475-0.477,0.419-0.741c0.015-0.072,0.015-0.141,0-0.214c0.015-0.072,0.015-0.141,0-0.213
					c0.056-0.264-0.068-0.538-0.419-0.741l-5.254-3.034c-0.607-0.35-1.591-0.35-2.198,0l-6.248,3.607
					c-0.351,0.203-0.475,0.477-0.419,0.741c-0.015,0.072-0.015,0.141,0,0.214c-0.015,0.072-0.015,0.141,0,0.213
					C257.313,248.877,257.436,249.151,257.787,249.354z M234.172,262.927l5.254,3.034c0.607,0.35,1.591,0.35,2.198,0l9.5-5.485
					c0.352-0.203,0.475-0.477,0.419-0.741c0.015-0.072,0.015-0.141,0-0.213c0.015-0.072,0.015-0.141,0-0.213
					c0.056-0.264-0.068-0.539-0.419-0.741l-5.254-3.034c-0.607-0.35-1.591-0.35-2.198,0l-9.5,5.485
					c-0.352,0.203-0.475,0.477-0.419,0.741c-0.015,0.072-0.015,0.141,0,0.214c-0.015,0.072-0.015,0.141,0,0.213
					C233.697,262.45,233.821,262.724,234.172,262.927z M247.7,255.178l5.255,3.033c0.607,0.351,1.591,0.351,2.198,0l6.248-3.607
					c0.351-0.203,0.475-0.477,0.419-0.741c0.015-0.072,0.015-0.141,0-0.214c0.015-0.072,0.015-0.141,0-0.213
					c0.055-0.264-0.068-0.538-0.419-0.741l-5.255-3.034c-0.607-0.35-1.591-0.35-2.198,0l-6.248,3.607
					c-0.351,0.203-0.475,0.477-0.419,0.741c-0.015,0.072-0.015,0.141,0,0.213c-0.015,0.072-0.015,0.142,0,0.214
					C247.225,254.701,247.349,254.975,247.7,255.178z M276.654,247.673c-0.015,0.072-0.015,0.141,0,0.213
					c-0.015,0.072-0.015,0.141,0,0.214c-0.055,0.264,0.068,0.538,0.419,0.741l5.254,3.034c0.607,0.35,1.591,0.35,2.198,0
					l6.248-3.607c0.352-0.203,0.475-0.477,0.419-0.741c0.015-0.072,0.015-0.141,0-0.213c0.015-0.072,0.015-0.141,0-0.213
					c0.056-0.265-0.068-0.538-0.419-0.741l-5.254-3.034c-0.607-0.35-1.591-0.35-2.198,0l-6.248,3.607
					C276.722,247.135,276.598,247.408,276.654,247.673z M292.851,268.329l6.248-3.608c0.351-0.203,0.475-0.477,0.419-0.741
					c0.015-0.072,0.015-0.141,0-0.213c0.015-0.072,0.015-0.141,0-0.213c0.055-0.264-0.068-0.538-0.419-0.741l-5.255-3.034
					c-0.607-0.35-1.591-0.35-2.198,0l-6.248,3.607c-0.351,0.203-0.475,0.477-0.419,0.741c-0.015,0.072-0.015,0.141,0,0.213
					c-0.015,0.072-0.015,0.141,0,0.214c-0.056,0.264,0.068,0.538,0.419,0.741l5.255,3.034
					C291.26,268.679,292.244,268.679,292.851,268.329z M173.65,297.87l5.254,3.033c0.607,0.35,1.591,0.35,2.198,0l6.248-3.607
					c0.351-0.203,0.475-0.477,0.419-0.741c0.015-0.072,0.015-0.141,0-0.214c0.015-0.072,0.015-0.141,0-0.213
					c0.055-0.264-0.068-0.538-0.419-0.741l-5.255-3.034c-0.607-0.35-1.591-0.35-2.198,0l-6.248,3.607
					c-0.351,0.203-0.475,0.477-0.419,0.741c-0.015,0.072-0.015,0.141,0,0.213c-0.015,0.072-0.015,0.141,0,0.214
					C173.176,297.393,173.299,297.667,173.65,297.87z M183.737,292.046c7.572,4.372,4.954,4.476,13.7-0.574
					c0.352-0.203,0.475-0.477,0.419-0.741c0.015-0.072,0.015-0.141,0-0.213c0.015-0.072,0.015-0.141,0-0.214
					c0.056-0.264-0.067-0.538-0.419-0.741l-5.254-3.034c-0.607-0.35-1.591-0.35-2.198,0l-6.248,3.607
					c-0.351,0.203-0.475,0.477-0.419,0.741c-0.015,0.072-0.015,0.141,0,0.213c-0.015,0.072-0.015,0.141,0,0.214
					C183.263,291.569,183.386,291.843,183.737,292.046z M163.564,303.694l5.254,3.034c0.607,0.35,1.591,0.35,2.198,0l6.248-3.608
					c0.352-0.203,0.475-0.477,0.419-0.741c0.015-0.072,0.015-0.141,0-0.213c0.015-0.072,0.015-0.141,0-0.214
					c0.055-0.264-0.068-0.538-0.419-0.741l-5.254-3.034c-0.607-0.35-1.591-0.35-2.198,0l-6.248,3.608
					c-0.351,0.203-0.475,0.477-0.419,0.741c-0.015,0.072-0.015,0.141,0,0.214c-0.015,0.072-0.015,0.141,0,0.213
					C163.089,303.217,163.212,303.491,163.564,303.694z M193.824,286.223l5.254,3.033c0.607,0.351,1.591,0.351,2.198,0l6.248-3.607
					c0.352-0.203,0.475-0.477,0.419-0.741c0.015-0.072,0.015-0.141,0-0.214c0.015-0.072,0.015-0.141,0-0.213
					c0.055-0.264-0.068-0.538-0.419-0.741l-5.254-3.034c-0.607-0.35-1.591-0.35-2.198,0l-6.248,3.607
					c-0.352,0.203-0.475,0.477-0.419,0.741c-0.015,0.072-0.015,0.141,0,0.213c-0.015,0.072-0.015,0.141,0,0.213
					C193.35,285.746,193.473,286.02,193.824,286.223z M213.998,274.575l5.255,3.034c0.607,0.351,1.591,0.351,2.198,0l6.248-3.607
					c0.351-0.203,0.475-0.477,0.419-0.741c0.015-0.072,0.015-0.141,0-0.213c0.015-0.072,0.015-0.141,0-0.213
					c0.055-0.264-0.068-0.538-0.419-0.741l-5.254-3.034c-0.607-0.351-1.591-0.351-2.198,0l-6.248,3.607
					c-0.351,0.203-0.475,0.477-0.419,0.741c-0.015,0.072-0.015,0.141,0,0.213c-0.015,0.072-0.015,0.141,0,0.213
					C213.523,274.098,213.647,274.372,213.998,274.575z M203.911,280.399l5.254,3.034c0.607,0.35,1.591,0.35,2.198,0l6.248-3.607
					c0.351-0.203,0.475-0.477,0.419-0.741c0.015-0.072,0.015-0.141,0-0.214c0.015-0.072,0.015-0.141,0-0.213
					c0.056-0.264-0.068-0.538-0.419-0.741l-5.255-3.034c-0.607-0.35-1.591-0.35-2.198,0l-6.248,3.608
					c-0.351,0.203-0.475,0.477-0.419,0.741c-0.015,0.072-0.015,0.141,0,0.213c-0.015,0.072-0.015,0.141,0,0.213
					C203.436,279.922,203.56,280.196,203.911,280.399z M282.398,253.309l-6.917-3.993c-0.755-0.436-1.978-0.436-2.732,0
					l-15.831,9.14c-0.425,0.245-0.584,0.575-0.53,0.895c-0.012,0.072-0.012,0.141,0,0.213c-0.012,0.072-0.012,0.141,0,0.214
					c-0.054,0.32,0.105,0.65,0.53,0.896l13.798,7.966c0.754,0.436,1.978,0.436,2.733,0l26.26-15.161
					c0.425-0.245,0.584-0.575,0.53-0.896c0.012-0.072,0.012-0.141,0-0.213c0.012-0.072,0.012-0.141,0-0.214
					c0.054-0.32-0.105-0.65-0.53-0.895l-5.135-2.965c-0.501-0.289-1.313-0.291-1.817-0.004l-8.823,5.02
					C283.507,253.555,282.821,253.553,282.398,253.309z"/>
				<g>
					<path style="fill:#201521;" d="M208.103,361.973l-4.857-2.804c-0.277-0.16-0.502-0.514-0.502-0.792v-1.136
						c0-0.277,0.225-0.372,0.502-0.212l4.857,2.804c0.277,0.16,0.502,0.515,0.502,0.792v1.136
						C208.605,362.038,208.38,362.133,208.103,361.973z"/>
					<path style="fill:#201521;" d="M200.583,357.632l-4.857-2.804c-0.277-0.16-0.502-0.514-0.502-0.792v-1.136
						c0-0.277,0.225-0.372,0.502-0.212l4.857,2.804c0.278,0.16,0.502,0.515,0.502,0.792v1.136
						C201.085,357.697,200.86,357.791,200.583,357.632z"/>
				</g>
				<path style="fill:#332F28;" d="M157.09,313.85l-6.248,3.608c-0.607,0.35-1.591,0.35-2.198,0l-5.255-3.034
					c-0.607-0.351-0.607-0.919,0-1.269l6.248-3.607c0.607-0.35,1.591-0.35,2.198,0l5.254,3.034
					C157.697,312.931,157.697,313.5,157.09,313.85z M167.177,306.757l-5.254-3.034c-0.607-0.35-1.591-0.35-2.198,0l-6.248,3.607
					c-0.607,0.35-0.607,0.919,0,1.269l5.254,3.034c0.607,0.35,1.591,0.35,2.198,0l6.248-3.607
					C167.784,307.676,167.784,307.108,167.177,306.757z M177.264,300.934l-5.254-3.034c-0.607-0.35-1.591-0.35-2.198,0l-6.248,3.607
					c-0.607,0.35-0.607,0.919,0,1.269l5.254,3.034c0.607,0.35,1.591,0.35,2.198,0l6.248-3.607
					C177.871,301.852,177.871,301.284,177.264,300.934z M187.351,295.11l-5.255-3.034c-0.607-0.35-1.591-0.35-2.198,0l-6.248,3.607
					c-0.607,0.35-0.607,0.919,0,1.269l5.254,3.034c0.607,0.351,1.591,0.351,2.198,0l6.248-3.607
					C187.958,296.028,187.958,295.46,187.351,295.11z M197.438,289.286l-5.254-3.034c-0.607-0.35-1.591-0.35-2.198,0l-6.248,3.608
					c-0.607,0.35-0.607,0.919,0,1.269l5.255,3.034c0.607,0.35,1.591,0.35,2.198,0l6.248-3.607
					C198.045,290.204,198.045,289.636,197.438,289.286z M207.525,283.462l-5.254-3.034c-0.607-0.351-1.591-0.351-2.198,0
					l-6.248,3.607c-0.607,0.35-0.607,0.919,0,1.269l5.254,3.034c0.607,0.35,1.591,0.35,2.198,0l6.248-3.607
					C208.132,284.381,208.132,283.813,207.525,283.462z M217.612,277.638l-5.255-3.034c-0.607-0.35-1.591-0.35-2.198,0l-6.248,3.607
					c-0.607,0.35-0.607,0.919,0,1.269l5.254,3.034c0.607,0.351,1.591,0.351,2.198,0l6.248-3.607
					C218.219,278.557,218.219,277.989,217.612,277.638z M227.699,271.814l-5.254-3.034c-0.607-0.35-1.591-0.35-2.198,0l-6.248,3.608
					c-0.607,0.35-0.607,0.919,0,1.269l5.255,3.034c0.607,0.35,1.591,0.35,2.198,0l6.248-3.607
					C228.305,272.733,228.305,272.165,227.699,271.814z M237.786,265.991l-5.254-3.034c-0.607-0.351-1.591-0.351-2.198,0
					l-6.248,3.607c-0.607,0.35-0.607,0.919,0,1.269l5.254,3.034c0.607,0.35,1.591,0.35,2.198,0l6.248-3.607
					C238.392,266.909,238.392,266.341,237.786,265.991z M251.124,258.289l-5.254-3.034c-0.607-0.35-1.591-0.35-2.198,0l-9.5,5.485
					c-0.607,0.35-0.607,0.919,0,1.269l5.254,3.034c0.607,0.35,1.591,0.35,2.198,0l9.5-5.485
					C251.731,259.208,251.731,258.64,251.124,258.289z M289.012,268.359l-5.254-3.034c-0.607-0.35-1.591-0.35-2.198,0l-6.248,3.607
					c-0.607,0.351-0.607,0.919,0,1.269l5.254,3.034c0.607,0.35,1.591,0.35,2.198,0l6.248-3.608
					C289.619,269.277,289.619,268.709,289.012,268.359z M299.099,262.535l-5.255-3.034c-0.607-0.35-1.591-0.35-2.198,0l-6.248,3.608
					c-0.607,0.35-0.607,0.919,0,1.269l5.254,3.034c0.607,0.35,1.591,0.35,2.198,0l6.248-3.607
					C299.706,263.454,299.706,262.885,299.099,262.535z M309.186,256.711l-5.254-3.034c-0.607-0.35-1.591-0.35-2.198,0l-6.248,3.607
					c-0.607,0.35-0.607,0.919,0,1.269l5.254,3.034c0.607,0.35,1.591,0.35,2.198,0l6.248-3.607
					C309.793,257.63,309.793,257.062,309.186,256.711z M298.233,273.683l-5.254-3.034c-0.607-0.35-1.591-0.35-2.198,0l-6.248,3.607
					c-0.607,0.35-0.607,0.919,0,1.269l5.254,3.034c0.607,0.35,1.591,0.35,2.198,0l6.248-3.607
					C298.84,274.601,298.84,274.033,298.233,273.683z M308.32,267.859l-5.254-3.034c-0.607-0.35-1.591-0.35-2.198,0l-6.248,3.607
					c-0.607,0.351-0.607,0.919,0,1.269l5.254,3.034c0.607,0.35,1.591,0.35,2.198,0l6.248-3.608
					C308.927,268.777,308.927,268.209,308.32,267.859z M318.407,262.035l-5.254-3.034c-0.607-0.35-1.591-0.35-2.198,0l-6.248,3.607
					c-0.607,0.35-0.607,0.919,0,1.269l5.254,3.034c0.607,0.35,1.591,0.35,2.198,0l6.248-3.607
					C319.014,262.954,319.014,262.386,318.407,262.035z M169.736,315.971l-5.254-3.034c-0.607-0.35-1.591-0.35-2.198,0l-9.5,5.485
					c-0.607,0.35-0.607,0.919,0,1.269l5.254,3.034c0.607,0.35,1.591,0.35,2.198,0l9.5-5.485
					C170.343,316.89,170.343,316.322,169.736,315.971z M179.823,310.147l-5.255-3.034c-0.607-0.35-1.591-0.35-2.198,0l-6.248,3.608
					c-0.607,0.35-0.607,0.919,0,1.269l5.254,3.034c0.607,0.35,1.591,0.35,2.198,0l6.248-3.607
					C180.43,311.066,180.43,310.498,179.823,310.147z M189.91,304.324l-5.254-3.034c-0.607-0.351-1.591-0.351-2.198,0l-6.248,3.607
					c-0.607,0.35-0.607,0.919,0,1.269l5.255,3.034c0.607,0.35,1.591,0.35,2.198,0l6.248-3.607
					C190.517,305.242,190.517,304.674,189.91,304.324z M199.997,298.5l-5.254-3.034c-0.607-0.35-1.591-0.35-2.198,0l-6.248,3.607
					c-0.607,0.35-0.607,0.919,0,1.269l5.254,3.034c0.607,0.351,1.591,0.351,2.198,0l6.248-3.607
					C200.604,299.418,200.604,298.85,199.997,298.5z M210.084,292.676l-5.255-3.034c-0.607-0.35-1.591-0.35-2.198,0l-6.248,3.607
					c-0.607,0.351-0.607,0.919,0,1.269l5.254,3.034c0.607,0.35,1.591,0.35,2.198,0l6.248-3.608
					C210.691,293.594,210.691,293.026,210.084,292.676z M220.171,286.852l-5.254-3.034c-0.607-0.351-1.591-0.351-2.198,0
					l-6.248,3.607c-0.607,0.35-0.607,0.919,0,1.269l5.255,3.034c0.607,0.35,1.591,0.35,2.198,0l6.248-3.607
					C220.778,287.771,220.778,287.203,220.171,286.852z M230.258,281.028l-5.254-3.034c-0.607-0.35-1.591-0.35-2.198,0l-6.248,3.607
					c-0.607,0.35-0.607,0.919,0,1.269l5.254,3.034c0.607,0.35,1.591,0.35,2.198,0l6.248-3.607
					C230.865,281.947,230.865,281.379,230.258,281.028z M240.345,275.204l-5.254-3.034c-0.607-0.35-1.591-0.35-2.198,0l-6.248,3.607
					c-0.607,0.351-0.607,0.919,0,1.269l5.254,3.034c0.607,0.35,1.591,0.35,2.198,0l6.248-3.608
					C240.952,276.123,240.952,275.555,240.345,275.204z M250.432,269.38l-5.254-3.034c-0.607-0.35-1.591-0.35-2.198,0l-6.248,3.608
					c-0.607,0.35-0.607,0.919,0,1.269l5.255,3.034c0.607,0.35,1.591,0.35,2.198,0l6.248-3.607
					C251.039,270.299,251.039,269.731,250.432,269.38z M260.519,263.557l-5.254-3.034c-0.607-0.35-1.591-0.35-2.198,0l-6.248,3.607
					c-0.607,0.35-0.607,0.919,0,1.269l5.254,3.034c0.607,0.35,1.591,0.35,2.198,0l6.248-3.607
					C261.126,264.475,261.126,263.907,260.519,263.557z M175.419,323.164l-5.254-3.034c-0.607-0.35-1.591-0.35-2.198,0l-6.248,3.607
					c-0.607,0.351-0.607,0.919,0,1.269l5.255,3.034c0.607,0.35,1.591,0.35,2.198,0l6.248-3.608
					C176.026,324.082,176.026,323.514,175.419,323.164z M185.506,317.34l-5.254-3.034c-0.607-0.35-1.591-0.35-2.198,0l-6.248,3.608
					c-0.607,0.35-0.607,0.919,0,1.269l5.254,3.034c0.607,0.35,1.591,0.35,2.198,0l6.248-3.607
					C186.113,318.259,186.113,317.691,185.506,317.34z M195.593,311.516l-5.254-3.034c-0.607-0.35-1.591-0.35-2.198,0l-6.248,3.607
					c-0.607,0.35-0.607,0.919,0,1.269l5.254,3.034c0.607,0.35,1.591,0.35,2.198,0l6.248-3.607
					C196.201,312.435,196.201,311.867,195.593,311.516z M205.68,305.693l-5.255-3.034c-0.607-0.35-1.591-0.35-2.198,0l-6.248,3.607
					c-0.607,0.35-0.607,0.919,0,1.269l5.254,3.034c0.607,0.35,1.591,0.35,2.198,0l6.248-3.608
					C206.287,306.611,206.287,306.043,205.68,305.693z M193.711,333.725l-5.254-3.034c-0.607-0.35-1.591-0.35-2.198,0l-6.248,3.607
					c-0.607,0.35-0.607,0.919,0,1.269l5.254,3.034c0.607,0.35,1.591,0.35,2.198,0l6.248-3.607
					C194.319,334.644,194.319,334.076,193.711,333.725z M203.799,327.901l-5.255-3.034c-0.607-0.35-1.591-0.35-2.198,0l-6.248,3.607
					c-0.607,0.35-0.607,0.919,0,1.269l5.254,3.034c0.607,0.35,1.591,0.35,2.198,0l6.248-3.608
					C204.406,328.82,204.406,328.252,203.799,327.901z M213.885,322.077l-5.254-3.034c-0.607-0.35-1.591-0.35-2.198,0l-6.248,3.608
					c-0.607,0.35-0.607,0.919,0,1.269l5.254,3.034c0.607,0.35,1.591,0.35,2.198,0l6.248-3.607
					C214.492,322.996,214.492,322.428,213.885,322.077z M223.972,316.254l-5.254-3.034c-0.607-0.351-1.591-0.351-2.198,0
					l-6.248,3.607c-0.607,0.35-0.607,0.919,0,1.269l5.254,3.034c0.607,0.35,1.591,0.35,2.198,0l6.248-3.607
					C224.579,317.172,224.579,316.604,223.972,316.254z M287.686,279.468l-5.254-3.034c-0.607-0.35-1.591-0.35-2.198,0l-9.5,5.485
					c-0.607,0.35-0.607,0.919,0,1.269l5.254,3.034c0.607,0.35,1.591,0.35,2.198,0l9.5-5.485
					C288.293,280.387,288.293,279.818,287.686,279.468z M215.767,299.869l-5.254-3.034c-0.607-0.35-1.591-0.35-2.198,0l-6.248,3.608
					c-0.607,0.35-0.607,0.919,0,1.269l5.254,3.034c0.607,0.35,1.591,0.35,2.198,0l6.248-3.607
					C216.374,300.787,216.374,300.219,215.767,299.869z M225.854,294.045l-5.254-3.034c-0.607-0.35-1.591-0.35-2.198,0l-6.248,3.607
					c-0.607,0.35-0.607,0.919,0,1.269l5.254,3.034c0.607,0.35,1.591,0.35,2.198,0l6.248-3.607
					C226.461,294.964,226.461,294.395,225.854,294.045z M235.941,288.221l-5.255-3.034c-0.607-0.35-1.591-0.35-2.198,0l-6.248,3.607
					c-0.607,0.35-0.607,0.919,0,1.269l5.254,3.034c0.607,0.351,1.591,0.351,2.198,0l6.248-3.607
					C236.548,289.14,236.548,288.572,235.941,288.221z M246.028,282.397l-5.254-3.034c-0.607-0.35-1.591-0.35-2.198,0l-6.248,3.608
					c-0.607,0.35-0.607,0.919,0,1.269l5.255,3.034c0.607,0.35,1.591,0.35,2.198,0l6.248-3.608
					C246.635,283.316,246.635,282.748,246.028,282.397z M256.115,276.574l-5.254-3.034c-0.607-0.351-1.591-0.351-2.198,0
					l-6.248,3.607c-0.607,0.35-0.607,0.919,0,1.269l5.254,3.034c0.607,0.35,1.591,0.35,2.198,0l6.248-3.607
					C256.722,277.492,256.722,276.924,256.115,276.574z M269.454,268.872l-5.254-3.034c-0.607-0.35-1.591-0.35-2.198,0l-9.5,5.485
					c-0.607,0.35-0.607,0.919,0,1.269l5.254,3.034c0.607,0.351,1.591,0.351,2.198,0l9.5-5.485
					C270.061,269.791,270.061,269.223,269.454,268.872z M188.066,326.554l-5.254-3.034c-0.607-0.35-1.591-0.35-2.198,0l-9.5,5.485
					c-0.607,0.35-0.607,0.919,0,1.269l5.254,3.034c0.607,0.35,1.591,0.35,2.198,0l9.5-5.485
					C188.673,327.473,188.673,326.904,188.066,326.554z M198.153,320.73l-5.254-3.034c-0.607-0.35-1.591-0.35-2.198,0l-6.248,3.607
					c-0.607,0.35-0.607,0.919,0,1.269l5.254,3.034c0.607,0.35,1.591,0.35,2.198,0l6.248-3.607
					C198.76,321.649,198.76,321.08,198.153,320.73z M208.24,314.906l-5.254-3.034c-0.607-0.351-1.591-0.351-2.198,0l-6.248,3.607
					c-0.607,0.35-0.607,0.919,0,1.269l5.254,3.034c0.607,0.35,1.591,0.35,2.198,0l6.248-3.607
					C208.847,315.825,208.847,315.257,208.24,314.906z M218.327,309.082l-5.254-3.034c-0.607-0.35-1.591-0.35-2.198,0l-6.248,3.607
					c-0.607,0.35-0.607,0.919,0,1.269l5.254,3.034c0.607,0.351,1.591,0.351,2.198,0l6.248-3.607
					C218.934,310.001,218.934,309.433,218.327,309.082z M228.414,303.259l-5.255-3.034c-0.607-0.35-1.591-0.35-2.198,0l-6.248,3.607
					c-0.607,0.35-0.607,0.919,0,1.269l5.254,3.034c0.607,0.35,1.591,0.35,2.198,0l6.248-3.608
					C229.021,304.177,229.021,303.609,228.414,303.259z M274.573,287.143l-5.254-3.034c-0.607-0.35-1.591-0.35-2.198,0
					l-46.716,26.972c-0.607,0.35-0.607,0.919,0,1.269l5.254,3.034c0.607,0.35,1.591,0.35,2.198,0l46.716-26.972
					C275.18,288.062,275.18,287.494,274.573,287.143z M238.501,297.435l-5.254-3.034c-0.607-0.351-1.591-0.351-2.198,0l-6.248,3.607
					c-0.607,0.35-0.607,0.919,0,1.269l5.255,3.034c0.607,0.35,1.591,0.35,2.198,0l6.248-3.607
					C239.108,298.354,239.108,297.785,238.501,297.435z M248.588,291.611l-5.254-3.034c-0.607-0.35-1.591-0.35-2.198,0l-6.248,3.607
					c-0.607,0.35-0.607,0.919,0,1.269l5.254,3.034c0.607,0.351,1.591,0.351,2.198,0l6.248-3.607
					C249.195,292.53,249.195,291.961,248.588,291.611z M258.675,285.787l-5.255-3.034c-0.607-0.35-1.591-0.35-2.198,0l-6.248,3.607
					c-0.607,0.351-0.607,0.919,0,1.269l5.254,3.034c0.607,0.35,1.591,0.35,2.198,0l6.248-3.607
					C259.282,286.706,259.282,286.138,258.675,285.787z M268.762,279.963l-5.254-3.033c-0.607-0.351-1.591-0.351-2.198,0
					l-6.248,3.607c-0.607,0.35-0.607,0.919,0,1.269l5.255,3.034c0.607,0.35,1.591,0.35,2.198,0l6.248-3.607
					C269.369,280.882,269.369,280.314,268.762,279.963z M278.849,274.14l-5.254-3.034c-0.607-0.35-1.591-0.35-2.198,0l-6.248,3.607
					c-0.607,0.35-0.607,0.919,0,1.269l5.254,3.034c0.607,0.35,1.591,0.35,2.198,0l6.248-3.607
					C279.456,275.058,279.456,274.49,278.849,274.14z M261.401,252.417l-5.254-3.034c-0.607-0.351-1.591-0.351-2.198,0l-6.248,3.607
					c-0.607,0.35-0.607,0.919,0,1.269l5.255,3.034c0.607,0.35,1.591,0.35,2.198,0l6.248-3.607
					C262.008,253.336,262.008,252.768,261.401,252.417z M271.487,246.593l-5.254-3.034c-0.607-0.35-1.591-0.35-2.198,0l-6.248,3.607
					c-0.607,0.35-0.607,0.919,0,1.269l5.254,3.034c0.607,0.35,1.591,0.35,2.198,0l6.248-3.607
					C272.094,247.512,272.094,246.944,271.487,246.593z M281.574,240.77l-5.254-3.034c-0.607-0.35-1.591-0.35-2.198,0l-6.248,3.607
					c-0.607,0.351-0.607,0.919,0,1.269l5.254,3.034c0.607,0.35,1.591,0.35,2.198,0l6.248-3.607
					C282.182,241.688,282.182,241.12,281.574,240.77z M290.773,246.08l-5.254-3.034c-0.607-0.35-1.591-0.35-2.198,0l-6.248,3.607
					c-0.607,0.35-0.607,0.919,0,1.269l5.254,3.034c0.607,0.35,1.591,0.35,2.198,0l6.248-3.607
					C291.38,246.999,291.38,246.431,290.773,246.08z M299.708,250.983l-5.135-2.965c-0.501-0.289-1.313-0.291-1.817-0.004
					l-8.823,5.02c-0.426,0.243-1.112,0.241-1.535-0.003l-6.917-3.993c-0.755-0.436-1.978-0.436-2.732,0l-15.831,9.14
					c-0.755,0.436-0.755,1.142,0,1.578l13.798,7.966c0.754,0.436,1.978,0.436,2.733,0l26.26-15.161
					C300.463,252.125,300.463,251.419,299.708,250.983z"/>
			</g>
		</g>
	</g>
	<g>
		<g>
			<g>
				<polygon style="opacity:0.5;fill:#A1B7E2;" points="292.181,205.521 135.315,296.088 135.315,182.501 292.181,91.934 				"/>
				<polygon style="opacity:0.8;fill:#201323;" points="286.334,208.898 141.341,292.609 141.341,179.022 286.334,95.31 				"/>
				<polygon style="fill:#E54141;" points="297.13,96.062 140.264,186.629 140.264,167.192 297.13,76.625 				"/>
			</g>
			<g>
				<g>
					<path style="fill:#8FAACC;" d="M234.434,162.436c0,9.959-8.073,22.692-18.031,28.442c-9.958,5.749-18.031,2.337-18.031-7.621
						c0-9.958,8.073-22.692,18.031-28.441C226.361,149.066,234.434,152.478,234.434,162.436z"/>
					<path style="fill:#6480B4;" d="M231.117,174.749v-0.38l-5.489,1.677c-5.845,1.786-12.083,5.896-17.659,10.418l-6.152,5.374
						c3.277,2.621,8.581,2.506,14.585-0.961C222.484,187.367,227.851,181.248,231.117,174.749z"/>
					<g>
						<path style="fill:#FFC7AE;" d="M209.807,186.857c0,2.064,2.951,2.034,6.591-0.068c3.64-2.102,6.591-5.479,6.591-7.543
							c0-0.888-0.032-1.587-0.08-2.202c-4.366,1.804-8.853,4.691-13.049,7.929C209.829,185.538,209.807,186.149,209.807,186.857z"/>
						<path style="fill:#F2A883;" d="M211.398,180.325c0.004,1.395,0.007,3.097,0.007,4.623c0,3.238,10.002-2.372,10.002-5.658
							c0-1.414-0.004-3.174-0.009-4.738L211.398,180.325z"/>
						<g>
							<path style="fill:#FFC7AE;" d="M224.44,166.654c-0.042-0.447-0.303-0.567-0.609-0.475c0.002-0.079,0.011-0.167,0.011-0.244
								c0-4.61-3.335-6.423-7.448-4.048c-4.113,2.375-7.448,8.038-7.448,12.648c0,0.072,0.008,0.145,0.01,0.217
								c-0.368,0.238-0.715,0.705-0.765,1.284c-0.203,2.366,1.397,3.247,2.111,3.438c1.348,2.179,3.572,3.157,6.093,1.702
								c2.591-1.496,4.87-5.209,6.205-9.046C223.379,170.91,224.619,168.545,224.44,166.654z"/>
							<path style="fill:#2B2119;" d="M222.594,166.76c0.595-0.539,1.239-0.576,1.239-0.576c0.04-0.524,0.075-0.919,0.106-1.382
								c0.48-7.086-0.896-9.704-7.84-5.695c-8.988,5.189-8.179,9.486-7.927,13.852c0.046,0.805,0.163,1.499,0.317,2.26
								c0.246-0.271,1.039-0.819,1.168-0.892c-0.056-1.055-0.053-2.134,0.074-3.099c0.281-2.129,3.385-2.533,6.458-4.402
								c3.187-1.939,5.851-4.992,6.17-3.327C222.563,164.556,222.609,165.613,222.594,166.76z"/>
						</g>
					</g>
				</g>
				<g>
					<path style="fill:#BAB3AE;" d="M242.807,206.246l-52.809,30.489c-2.003,1.157-3.627,0.47-3.627-1.533
						c0-2.003,1.624-4.564,3.627-5.721l52.809-30.489c2.003-1.156,3.627-0.47,3.627,1.533S244.81,205.09,242.807,206.246z"/>
					<g>
						<path style="fill:#4F374D;" d="M191.4,232.299c0,0.484-0.392,1.103-0.876,1.382c-0.484,0.28-0.877,0.114-0.877-0.37
							c0-0.484,0.392-1.103,0.877-1.382C191.007,231.649,191.4,231.815,191.4,232.299z"/>
						<path style="fill:#4F374D;" d="M195.894,229.704c0,0.484-0.392,1.103-0.876,1.382c-0.484,0.28-0.877,0.114-0.877-0.37
							c0-0.484,0.392-1.103,0.877-1.382C195.502,229.054,195.894,229.22,195.894,229.704z"/>
						<path style="fill:#4F374D;" d="M200.389,227.109c0,0.484-0.393,1.103-0.877,1.382c-0.484,0.28-0.877,0.114-0.877-0.37
							c0-0.484,0.392-1.103,0.877-1.382C199.996,226.459,200.389,226.625,200.389,227.109z"/>
						<path style="fill:#4F374D;" d="M204.884,224.514c0,0.484-0.392,1.103-0.877,1.382c-0.484,0.28-0.877,0.114-0.877-0.37
							c0-0.484,0.392-1.103,0.877-1.382C204.491,223.864,204.884,224.03,204.884,224.514z"/>
						<path style="fill:#4F374D;" d="M209.378,221.919c0,0.484-0.392,1.103-0.877,1.382c-0.484,0.28-0.876,0.114-0.876-0.37
							c0-0.484,0.392-1.103,0.876-1.382C208.986,221.269,209.378,221.435,209.378,221.919z"/>
						<path style="fill:#4F374D;" d="M213.873,219.324c0,0.484-0.392,1.103-0.877,1.382c-0.484,0.28-0.876,0.114-0.876-0.37
							c0-0.484,0.392-1.103,0.876-1.383C213.48,218.674,213.873,218.84,213.873,219.324z"/>
						<path style="fill:#4F374D;" d="M218.367,216.729c0,0.484-0.392,1.103-0.876,1.382c-0.484,0.28-0.877,0.114-0.877-0.37
							c0-0.484,0.392-1.103,0.877-1.383C217.975,216.079,218.367,216.245,218.367,216.729z"/>
					</g>
				</g>
				<g>
					<path style="fill:#BAB3AE;" d="M242.807,194.885l-52.809,30.489c-2.003,1.156-3.627,0.47-3.627-1.533s1.624-4.565,3.627-5.721
						l52.809-30.489c2.003-1.157,3.627-0.47,3.627,1.533C246.434,191.167,244.81,193.729,242.807,194.885z"/>
					<g>
						<path style="fill:#4F374D;" d="M190.862,222.613l-0.316,0.182c-0.256,0.148-0.456,0.19-0.598,0.125
							c-0.143-0.064-0.215-0.228-0.215-0.491v-1.964c0-0.052,0.027-0.094,0.079-0.124l0.254-0.147
							c0.079,0.033,0.079,1.981,0.079,1.981c0,0.327,0.156,0.401,0.468,0.22l0.322-0.186c0.169-0.098,0.299-0.218,0.389-0.36
							c0.09-0.143,0.135-0.296,0.135-0.462v-1.919c0-0.052,0.026-0.094,0.079-0.124l0.254-0.147
							c0.079,0.033,0.079,2.754,0.079,2.754c0,0.052-0.026,0.094-0.079,0.124l-0.254,0.147c-0.079-0.033-0.079-0.253-0.079-0.253
							C191.344,222.236,191.152,222.446,190.862,222.613z"/>
						<path style="fill:#4F374D;" d="M193.627,221.017l-1.005,0.58c-0.079-0.033-0.079-0.231-0.079-0.231
							c0-0.049,0.027-0.089,0.079-0.119l0.948-0.548c0.293-0.169,0.44-0.363,0.44-0.581c0-0.306-0.096-0.389-0.288-0.353
							l-0.666,0.102c-0.192,0.032-0.329,0.018-0.412-0.041c-0.083-0.06-0.124-0.178-0.124-0.355c0-0.462,0.254-0.84,0.762-1.133
							l0.926-0.535c0.078,0.033,0.078,0.231,0.078,0.231c0,0.049-0.026,0.089-0.078,0.119l-0.852,0.492
							c-0.136,0.078-0.238,0.166-0.307,0.262c-0.07,0.097-0.105,0.183-0.105,0.258c0,0.254,0.107,0.313,0.322,0.272l0.666-0.086
							c0.195-0.038,0.329-0.015,0.398,0.069c0.07,0.084,0.104,0.235,0.104,0.454C194.434,220.325,194.165,220.706,193.627,221.017z"
							/>
						<path style="fill:#4F374D;" d="M197.069,219.03l-1.196,0.691c-0.26,0.15-0.464,0.194-0.612,0.133
							c-0.148-0.061-0.223-0.224-0.223-0.487v-1.207c0-0.263,0.074-0.512,0.223-0.743c0.149-0.233,0.352-0.424,0.612-0.574
							l0.474-0.274c0.26-0.15,0.462-0.194,0.609-0.132c0.147,0.062,0.22,0.225,0.22,0.488v0.716c0,0.057-0.026,0.1-0.079,0.13
							l-1.597,0.922c-0.056,0.083-0.056,0.427-0.056,0.427c0,0.327,0.158,0.399,0.474,0.217l1.151-0.665
							c0.079,0.033,0.079,0.237,0.079,0.237C197.148,218.96,197.122,218.999,197.069,219.03z M195.5,218.395l1.219-0.704
							c0.056-0.088,0.056-0.523,0.056-0.523c0-0.323-0.158-0.394-0.474-0.212l-0.384,0.222c-0.316,0.182-0.474,0.435-0.474,0.759
							v0.435C195.444,218.409,195.462,218.417,195.5,218.395z"/>
						<path style="fill:#4F374D;" d="M198.203,218.375l-0.254,0.147c-0.079-0.033-0.079-2.753-0.079-2.753
							c0-0.052,0.026-0.094,0.079-0.124l0.254-0.147c0.079,0.033,0.079,0.259,0.079,0.259c0.06-0.117,0.132-0.229,0.237-0.35
							c0.106-0.121,0.229-0.223,0.373-0.306l0.22-0.127c0.073,0.036,0.073,0.245,0.073,0.245c-0.073,0.115-0.378,0.291-0.378,0.291
							c-0.169,0.098-0.299,0.224-0.389,0.377c-0.09,0.154-0.135,0.319-0.135,0.496v1.868
							C198.282,218.303,198.256,218.344,198.203,218.375z"/>
						<path style="fill:#4F374D;" d="M200.025,217.323l-0.254,0.147c-0.079-0.033-0.079-2.753-0.079-2.753
							c0-0.052,0.026-0.094,0.079-0.124l0.254-0.147c0.079,0.033,0.079,0.253,0.079,0.253c0.117-0.266,0.309-0.477,0.598-0.644
							l0.316-0.182c0.256-0.148,0.455-0.19,0.598-0.125c0.143,0.064,0.215,0.228,0.215,0.491v1.964c0,0.052-0.026,0.094-0.079,0.124
							l-0.254,0.147c-0.079-0.033-0.079-1.98-0.079-1.98c0-0.327-0.158-0.4-0.474-0.217l-0.316,0.182
							c-0.169,0.098-0.299,0.218-0.389,0.36c-0.09,0.143-0.135,0.296-0.135,0.462v1.919
							C200.104,217.251,200.078,217.292,200.025,217.323z"/>
						<path style="fill:#4F374D;" d="M203.653,215.228l-0.293,0.169c-0.26,0.15-0.464,0.194-0.612,0.133
							c-0.148-0.061-0.223-0.224-0.223-0.487v-1.207c0-0.263,0.074-0.512,0.223-0.743c0.149-0.233,0.352-0.424,0.612-0.574
							l1.224-0.707c0.079,0.033,0.079,2.753,0.079,2.753c0,0.052-0.026,0.094-0.079,0.124l-0.254,0.147
							c-0.079-0.033-0.079-0.253-0.079-0.253C204.135,214.85,203.943,215.061,203.653,215.228z M204.252,214.003v-1.586
							c-0.056-0.019-0.846,0.437-0.846,0.437c-0.312,0.18-0.468,0.434-0.468,0.761v1.174c0,0.327,0.156,0.4,0.468,0.22l0.322-0.186
							c0.169-0.098,0.299-0.218,0.389-0.36C204.207,214.322,204.252,214.168,204.252,214.003z"/>
						<path style="fill:#4F374D;" d="M205.776,214.003l-0.254,0.147c-0.079-0.033-0.079-2.753-0.079-2.753
							c0-0.052,0.027-0.094,0.079-0.124l0.254-0.147c0.079,0.033,0.079,0.253,0.079,0.253c0.127-0.273,0.327-0.488,0.62-0.657
							l0.209-0.121c0.331-0.191,0.56-0.196,0.688-0.014c0.06-0.159,0.155-0.309,0.285-0.449c0.13-0.141,0.266-0.253,0.409-0.335
							l0.197-0.114c0.256-0.148,0.455-0.19,0.598-0.125c0.143,0.064,0.214,0.228,0.214,0.491v1.964c0,0.052-0.026,0.094-0.079,0.124
							l-0.254,0.147c-0.079-0.033-0.079-1.981-0.079-1.981c0-0.327-0.158-0.4-0.474-0.217l-0.186,0.107
							c-0.17,0.098-0.3,0.222-0.392,0.371c-0.092,0.149-0.138,0.306-0.138,0.472v1.902c0,0.052-0.026,0.094-0.079,0.124
							l-0.254,0.147c-0.079-0.033-0.079-1.98-0.079-1.98c0-0.327-0.158-0.4-0.474-0.217l-0.209,0.121
							c-0.169,0.098-0.299,0.218-0.389,0.36c-0.091,0.143-0.135,0.296-0.135,0.462v1.919
							C205.855,213.931,205.828,213.973,205.776,214.003z"/>
						<path style="fill:#4F374D;" d="M211.801,210.524l-1.196,0.691c-0.26,0.15-0.464,0.194-0.612,0.133
							c-0.148-0.061-0.223-0.223-0.223-0.487v-1.207c0-0.263,0.074-0.512,0.223-0.743c0.149-0.233,0.353-0.424,0.612-0.574
							l0.474-0.274c0.259-0.15,0.462-0.194,0.609-0.131c0.147,0.061,0.22,0.225,0.22,0.488v0.716c0,0.057-0.027,0.1-0.079,0.13
							l-1.597,0.922c-0.056,0.082-0.056,0.427-0.056,0.427c0,0.327,0.158,0.399,0.474,0.217l1.151-0.665
							c0.079,0.033,0.079,0.237,0.079,0.237C211.881,210.454,211.855,210.493,211.801,210.524z M210.233,209.889l1.219-0.704
							c0.056-0.088,0.056-0.523,0.056-0.523c0-0.323-0.158-0.394-0.474-0.212l-0.384,0.221c-0.316,0.182-0.474,0.435-0.474,0.759
							v0.435C210.177,209.903,210.195,209.911,210.233,209.889z"/>
					</g>
				</g>
				<g>
					<path style="fill:#2983FF;" d="M223.566,231.536l-14.328,8.273c-2.35,1.357-4.255,0.551-4.255-1.799
						c0-2.35,1.905-5.355,4.255-6.712l14.328-8.272c2.35-1.357,4.255-0.551,4.255,1.798
						C227.822,227.174,225.917,230.179,223.566,231.536z"/>
					<g>
						<path style="fill:#FFF9F3;" d="M214.874,234.209l-0.697,0.402c-0.328,0.19-0.581,0.249-0.759,0.178
							c-0.178-0.072-0.268-0.271-0.268-0.599v-1.972c0-0.328,0.089-0.631,0.268-0.908c0.178-0.277,0.431-0.51,0.759-0.699
							l0.697-0.402c0.328-0.189,0.581-0.248,0.759-0.177c0.178,0.071,0.268,0.271,0.268,0.599v1.972c0,0.328-0.09,0.63-0.268,0.908
							C215.455,233.786,215.202,234.02,214.874,234.209z M214.302,233.855l0.442-0.255c0.133-0.077,0.227-0.16,0.283-0.247
							c0.056-0.089,0.084-0.199,0.084-0.332v-1.898c0-0.133-0.028-0.21-0.084-0.234c-0.056-0.024-0.15,0.003-0.283,0.079
							l-0.442,0.255c-0.133,0.077-0.226,0.158-0.28,0.246c-0.054,0.087-0.081,0.197-0.081,0.329v1.898
							c0,0.133,0.027,0.212,0.081,0.237C214.076,233.957,214.169,233.932,214.302,233.855z"/>
						<path style="fill:#FFF9F3;" d="M217.307,232.804l-0.529,0.305c-0.088,0.05-0.131,0.032-0.131-0.055v-3.74
							c0-0.087,0.043-0.155,0.131-0.206l0.529-0.305c0.087-0.05,0.131-0.032,0.131,0.055v1.774c0.046-0.126,0.11-0.292,0.205-0.504
							l0.946-1.934c0.053-0.118,0.134-0.208,0.242-0.27l0.61-0.352c0.049,0.115-1.133,2.433-1.133,2.433l1.32,1.304
							c-0.003,0.143-0.042,0.179-0.1,0.213l-0.454,0.262c-0.145,0.084-0.243,0.097-0.292,0.039l-0.952-0.975l-0.392,0.686v1.065
							C217.438,232.685,217.395,232.754,217.307,232.804z"/>
					</g>
				</g>
			</g>
			<g style="opacity:0.5;">
				<path style="fill:#201323;" d="M201.817,191.839c0.401,0.321,0.833,0.598,1.293,0.835c1.453,0.736,3.099,1.064,4.94,0.966
					c0.057-0.003,0.117-0.013,0.175-0.016c0.517-0.035,1.048-0.102,1.592-0.202c0.168-0.031,0.34-0.07,0.511-0.108
					c0.45-0.099,0.906-0.219,1.372-0.362c0.209-0.064,0.417-0.128,0.628-0.201c0.464-0.16,0.936-0.349,1.413-0.554
					c0.202-0.086,0.4-0.162,0.604-0.256c0.676-0.314,1.361-0.66,2.058-1.062c0.703-0.406,1.394-0.855,2.076-1.327
					c0.206-0.143,0.406-0.297,0.609-0.445c0.481-0.349,0.955-0.709,1.423-1.088c0.216-0.175,0.428-0.354,0.641-0.535
					c0.468-0.398,0.927-0.809,1.379-1.234c0.174-0.164,0.35-0.324,0.521-0.492c0.578-0.563,1.141-1.144,1.688-1.745
					c1.318-1.456,2.454-2.905,3.492-4.409c0.055-0.079,0.107-0.16,0.161-0.24c0.462-0.68,0.901-1.368,1.318-2.067
					c0.049-0.082,0.098-0.163,0.146-0.245c2.837-4.824,4.575-10.013,4.575-14.615c0-9.958-8.073-13.37-18.031-7.621
					c-9.958,5.749-18.031,18.483-18.031,28.441C198.371,187.211,199.659,190.113,201.817,191.839z"/>
				<path style="fill:#201323;" d="M242.807,198.992l-52.809,30.489c-2.003,1.157-3.627,3.718-3.627,5.721
					c0,2.003,1.624,2.69,3.627,1.533l52.809-30.489c2.003-1.156,3.627-3.718,3.627-5.721S244.81,197.835,242.807,198.992z"/>
				<path style="fill:#201323;" d="M189.998,225.374l52.809-30.489c2.003-1.156,3.627-3.718,3.627-5.721
					c0-2.003-1.624-2.689-3.627-1.533l-52.809,30.489c-2.003,1.156-3.627,3.718-3.627,5.721S187.995,226.531,189.998,225.374z"/>
				<path style="fill:#201323;" d="M223.566,223.025l-14.328,8.272c-2.35,1.357-4.255,4.362-4.255,6.712
					c0,2.35,1.905,3.155,4.255,1.798l14.328-8.272c2.35-1.357,4.255-4.362,4.255-6.712
					C227.822,222.474,225.917,221.669,223.566,223.025z"/>
			</g>
			<path style="fill:#F0F6FD;" d="M294.253,87.806c0,0.895-0.726,2.04-1.621,2.557s-1.621,0.21-1.621-0.685
				c0-0.895,0.726-2.04,1.621-2.556C293.527,86.604,294.253,86.911,294.253,87.806z M286.397,90.721
				c-0.895,0.517-1.621,1.661-1.621,2.557c0,0.895,0.726,1.202,1.621,0.685s1.621-1.661,1.621-2.557
				C288.017,90.511,287.292,90.204,286.397,90.721z M280.161,94.321c-0.895,0.517-1.621,1.661-1.621,2.557s0.726,1.202,1.621,0.685
				c0.895-0.517,1.621-1.661,1.621-2.557C281.782,94.111,281.056,93.804,280.161,94.321z"/>
		</g>
		<g>
			<polygon style="opacity:0.4;fill:#201323;" points="286.334,152.155 141.341,235.867 141.341,213.65 286.334,129.938 			"/>
			<polygon style="opacity:0.4;fill:#201323;" points="290.995,154.846 146.002,238.558 146.002,216.341 290.995,132.629 			"/>
			<polygon style="opacity:0.8;fill:#201323;" points="296.317,157.919 151.324,241.631 151.324,219.414 296.317,135.702 			"/>
			<g>
				<path style="fill:#E54141;" d="M162.866,216.765l-2.433,1.405c-0.28,0.161-0.463,0.427-0.55,0.796l-2.89,15.363
					c-0.073,0.361,0,0.479,0.219,0.352l1.757-1.015c0.122-0.07,0.21-0.155,0.265-0.256c0.055-0.099,0.095-0.248,0.119-0.444
					l0.512-2.802l3.568-2.06l0.512,2.21c0.025,0.168,0.061,0.273,0.11,0.312c0.049,0.04,0.14,0.022,0.274-0.055l1.757-1.015
					c0.221-0.127,0.293-0.329,0.221-0.606l-2.892-12.025C163.355,216.643,163.172,216.589,162.866,216.765z M160.305,227.586
					l1.318-7.347c0.073-0.042,1.391,5.783,1.391,5.783L160.305,227.586z"/>
				<path style="fill:#E54141;" d="M172.766,211.05l-1.995,1.152c-0.964,0.556-1.708,1.305-2.232,2.245
					c-0.524,0.94-0.786,2.011-0.786,3.212v7.223c0,1.201,0.262,1.968,0.786,2.304c0.524,0.335,1.269,0.224,2.232-0.332l1.995-1.152
					c0.951-0.549,1.691-1.299,2.223-2.251c0.53-0.952,0.795-2.021,0.795-3.206v-1.071c0-0.334-0.134-0.424-0.402-0.269l-1.537,0.887
					c-0.256,0.148-0.384,0.39-0.384,0.723v0.935c0,0.486-0.083,0.88-0.247,1.179c-0.165,0.3-0.442,0.563-0.833,0.788l-1.245,0.719
					c-0.378,0.218-0.65,0.272-0.814,0.162c-0.164-0.11-0.247-0.408-0.247-0.894v-6.95c0-0.486,0.083-0.88,0.247-1.179
					c0.165-0.3,0.436-0.56,0.814-0.778l1.245-0.719c0.39-0.225,0.667-0.282,0.833-0.173c0.164,0.11,0.247,0.408,0.247,0.894v0.935
					c0,0.334,0.128,0.427,0.384,0.279l1.537-0.887c0.268-0.155,0.402-0.399,0.402-0.733v-1.071c0-1.185-0.265-1.947-0.795-2.287
					C174.457,210.396,173.717,210.5,172.766,211.05z"/>
				<path style="fill:#E54141;" d="M182.61,205.366l-1.996,1.152c-0.963,0.556-1.708,1.305-2.232,2.245
					c-0.524,0.94-0.786,2.011-0.786,3.212v7.223c0,1.201,0.262,1.968,0.786,2.304c0.524,0.335,1.269,0.224,2.232-0.332l1.996-1.152
					c0.951-0.55,1.691-1.299,2.223-2.252c0.53-0.952,0.795-2.02,0.795-3.205v-1.071c0-0.334-0.134-0.424-0.402-0.269l-1.537,0.887
					c-0.256,0.148-0.384,0.39-0.384,0.723v0.935c0,0.486-0.083,0.88-0.247,1.179c-0.165,0.3-0.443,0.563-0.833,0.788l-1.245,0.719
					c-0.378,0.218-0.649,0.272-0.814,0.162c-0.164-0.11-0.247-0.408-0.247-0.894v-6.95c0-0.486,0.083-0.88,0.247-1.179
					c0.165-0.301,0.436-0.56,0.814-0.778l1.245-0.719c0.39-0.225,0.667-0.282,0.833-0.173c0.164,0.11,0.247,0.408,0.247,0.894v0.935
					c0,0.334,0.128,0.427,0.384,0.279l1.537-0.887c0.268-0.155,0.402-0.399,0.402-0.733v-1.071c0-1.185-0.265-1.947-0.795-2.287
					C184.301,204.712,183.561,204.817,182.61,205.366z"/>
				<path style="fill:#E54141;" d="M193.991,198.795l-5.983,3.454c-0.256,0.148-0.384,0.381-0.384,0.7v13.695
					c0,0.319,0.128,0.404,0.384,0.257l5.983-3.454c0.244-0.141,0.366-0.371,0.366-0.69v-1.549c0-0.319-0.122-0.408-0.366-0.267
					l-3.824,2.208c-0.147,0.085-0.22,0.044-0.22-0.124v-3.167c0-0.167,0.073-0.292,0.22-0.378l3.129-1.806
					c0.256-0.148,0.384-0.381,0.384-0.7v-1.549c0-0.319-0.128-0.404-0.384-0.257l-3.129,1.806c-0.147,0.085-0.22,0.044-0.22-0.124
					v-2.962c0-0.167,0.073-0.292,0.22-0.377l3.824-2.208c0.244-0.141,0.366-0.371,0.366-0.69v-1.549
					C194.357,198.743,194.235,198.654,193.991,198.795z"/>
				<path style="fill:#E54141;" d="M202.664,200.464c-0.806,0.055-1.727,0.329-2.764,0.821c-1.001,0.471-1.501,0.35-1.501-0.364
					v-0.433c0-0.684,0.089-1.195,0.266-1.532c0.176-0.337,0.515-0.651,1.016-0.94l0.713-0.412c0.487-0.281,0.824-0.369,1.007-0.262
					c0.183,0.107,0.274,0.458,0.274,1.05c0,0.455,0.128,0.541,0.384,0.393l1.555-0.898c0.258-0.149,0.386-0.382,0.386-0.701v-0.433
					c0-1.185-0.27-1.948-0.806-2.293c-0.538-0.342-1.288-0.236-2.251,0.321l-1.829,1.056c-0.951,0.549-1.696,1.305-2.233,2.269
					c-0.536,0.963-0.804,2.037-0.804,3.222v0.797c0,0.942,0.143,1.631,0.43,2.065c0.286,0.435,0.643,0.631,1.069,0.59
					c0.427-0.042,0.887-0.139,1.382-0.296s0.955-0.335,1.382-0.535c0.427-0.201,0.783-0.267,1.071-0.197
					c0.286,0.07,0.43,0.326,0.43,0.766v0.274c0,0.623-0.095,1.103-0.284,1.44c-0.189,0.337-0.521,0.643-0.997,0.918l-0.859,0.496
					c-0.488,0.282-0.824,0.369-1.007,0.262c-0.183-0.107-0.274-0.45-0.274-1.027v-0.182c0-0.319-0.128-0.405-0.384-0.257
					l-1.556,0.898c-0.256,0.148-0.384,0.381-0.384,0.7v0.456c0,1.184,0.268,1.949,0.805,2.292c0.536,0.344,1.281,0.241,2.232-0.309
					l1.994-1.151c0.952-0.549,1.696-1.306,2.232-2.269c0.538-0.963,0.806-2.038,0.806-3.222v-0.775c0-0.912-0.143-1.577-0.43-1.997
					C203.448,200.646,203.09,200.446,202.664,200.464z"/>
				<path style="fill:#E54141;" d="M212.526,194.77c-0.806,0.055-1.727,0.33-2.764,0.821c-1.001,0.471-1.501,0.35-1.501-0.364
					v-0.433c0-0.684,0.089-1.195,0.267-1.533c0.176-0.337,0.515-0.651,1.016-0.94l0.713-0.412c0.487-0.281,0.824-0.369,1.007-0.262
					c0.183,0.107,0.274,0.458,0.274,1.05c0,0.455,0.128,0.541,0.384,0.393l1.554-0.898c0.258-0.149,0.386-0.382,0.386-0.701v-0.433
					c0-1.185-0.269-1.948-0.805-2.292c-0.538-0.343-1.288-0.236-2.251,0.321l-1.829,1.056c-0.952,0.549-1.696,1.306-2.234,2.269
					c-0.536,0.963-0.804,2.037-0.804,3.222v0.797c0,0.942,0.143,1.631,0.43,2.065c0.286,0.435,0.643,0.631,1.069,0.59
					c0.428-0.042,0.888-0.14,1.382-0.296c0.494-0.157,0.955-0.335,1.382-0.536c0.427-0.201,0.783-0.267,1.07-0.197
					c0.286,0.07,0.43,0.326,0.43,0.766v0.273c0,0.623-0.095,1.103-0.284,1.44c-0.189,0.337-0.521,0.643-0.998,0.918l-0.859,0.496
					c-0.488,0.282-0.824,0.369-1.007,0.262c-0.183-0.108-0.274-0.45-0.274-1.027v-0.183c0-0.319-0.128-0.404-0.384-0.257
					l-1.556,0.898c-0.256,0.148-0.384,0.381-0.384,0.7v0.456c0,1.184,0.268,1.949,0.805,2.291c0.536,0.344,1.281,0.241,2.232-0.309
					l1.994-1.151c0.952-0.549,1.696-1.306,2.232-2.269c0.538-0.963,0.805-2.038,0.805-3.222v-0.775c0-0.911-0.143-1.577-0.43-1.996
					C213.31,194.953,212.952,194.752,212.526,194.77z"/>
				<path style="fill:#E54141;" d="M226.486,187.166c0.963-0.935,1.444-2.05,1.444-3.34v-0.934c0-1.185-0.262-1.945-0.786-2.281
					c-0.524-0.335-1.269-0.224-2.232,0.332l-4.391,2.535c-0.256,0.148-0.384,0.381-0.384,0.7v13.695
					c0,0.319,0.128,0.404,0.384,0.257l4.574-2.641c0.952-0.55,1.688-1.294,2.214-2.235c0.524-0.941,0.786-2.003,0.786-3.188v-1.367
					c0-0.744-0.146-1.233-0.439-1.466C227.363,186.998,226.973,186.976,226.486,187.166z M222.46,185.024
					c0-0.167,0.067-0.289,0.201-0.366l1.885-1.088c0.39-0.225,0.675-0.288,0.852-0.185c0.176,0.104,0.265,0.39,0.265,0.861v0.889
					c0,0.471-0.092,0.862-0.275,1.173c-0.183,0.311-0.469,0.578-0.859,0.804l-1.867,1.078c-0.134,0.077-0.201,0.033-0.201-0.134
					V185.024z M225.846,191.319c0,0.471-0.089,0.86-0.266,1.167c-0.176,0.306-0.466,0.577-0.868,0.809l-2.05,1.184
					c-0.134,0.077-0.201,0.033-0.201-0.134v-3.441c0-0.167,0.067-0.29,0.201-0.367l2.013-1.162c0.415-0.24,0.713-0.313,0.896-0.221
					c0.183,0.092,0.275,0.372,0.275,0.843V191.319z"/>
				<path style="fill:#E54141;" d="M236.697,186.261l-3.861,2.229c-0.147,0.085-0.22,0.044-0.22-0.123v-11.393
					c0-0.319-0.128-0.404-0.384-0.257l-1.555,0.897c-0.256,0.148-0.384,0.381-0.384,0.7v13.695c0,0.319,0.128,0.404,0.384,0.257
					l6.02-3.476c0.243-0.14,0.365-0.37,0.365-0.689v-1.549C237.062,186.218,236.939,186.121,236.697,186.261z"/>
				<path style="fill:#E54141;" d="M243.393,170.273l-2.05,1.184c-0.964,0.556-1.708,1.305-2.232,2.246
					c-0.524,0.941-0.786,2.011-0.786,3.211v7.223c0,1.201,0.262,1.968,0.786,2.303c0.524,0.335,1.268,0.224,2.232-0.332l2.05-1.184
					c0.963-0.556,1.706-1.304,2.232-2.245c0.524-0.941,0.786-2.011,0.786-3.212v-7.223c0-1.201-0.262-1.968-0.786-2.304
					C245.1,169.607,244.356,169.717,243.393,170.273z M244.089,180.672c0,0.486-0.083,0.88-0.247,1.179
					c-0.165,0.3-0.442,0.563-0.832,0.788l-1.3,0.751c-0.39,0.225-0.664,0.281-0.823,0.168c-0.158-0.114-0.238-0.413-0.238-0.899
					v-6.95c0-0.486,0.08-0.878,0.238-1.174c0.159-0.297,0.433-0.558,0.823-0.783l1.3-0.75c0.39-0.225,0.667-0.282,0.832-0.173
					c0.164,0.11,0.247,0.408,0.247,0.894V180.672z"/>
				<path style="fill:#E54141;" d="M253.438,164.473l-1.995,1.152c-0.963,0.556-1.708,1.305-2.232,2.246
					c-0.524,0.94-0.786,2.011-0.786,3.211v7.223c0,1.201,0.262,1.968,0.786,2.303c0.524,0.335,1.269,0.224,2.232-0.332l1.995-1.152
					c0.951-0.549,1.692-1.299,2.223-2.251c0.53-0.952,0.795-2.02,0.795-3.206v-1.071c0-0.334-0.134-0.424-0.402-0.269l-1.536,0.887
					c-0.256,0.148-0.384,0.39-0.384,0.724v0.934c0,0.486-0.083,0.88-0.247,1.179c-0.165,0.3-0.443,0.563-0.833,0.788l-1.245,0.719
					c-0.378,0.218-0.649,0.272-0.814,0.163c-0.164-0.11-0.247-0.408-0.247-0.894v-6.95c0-0.486,0.083-0.88,0.247-1.179
					c0.165-0.3,0.436-0.56,0.814-0.778l1.245-0.719c0.39-0.225,0.667-0.282,0.833-0.173c0.164,0.11,0.247,0.408,0.247,0.894v0.934
					c0,0.334,0.128,0.427,0.384,0.279l1.536-0.887c0.268-0.155,0.402-0.399,0.402-0.733v-1.071c0-1.185-0.265-1.947-0.795-2.287
					C255.13,163.819,254.39,163.924,253.438,164.473z"/>
				<path style="fill:#E54141;" d="M263.337,165.274l3.475-7.999c0.098-0.209,0.131-0.353,0.101-0.435
					c-0.031-0.08-0.113-0.082-0.247-0.005l-1.793,1.035c-0.317,0.183-0.555,0.48-0.713,0.89l-2.782,6.687
					c-0.281,0.74-0.47,1.32-0.567,1.741c-0.037,0.022-0.037-6.473-0.037-6.473c0-0.319-0.128-0.404-0.384-0.257l-1.555,0.898
					c-0.256,0.148-0.384,0.381-0.384,0.7v13.695c0,0.319,0.128,0.404,0.384,0.257l1.555-0.898c0.256-0.148,0.384-0.381,0.384-0.7
					v-3.897l1.153-2.351l2.801,3.966c0.146,0.235,0.432,0.229,0.859-0.018l1.336-0.771c0.171-0.099,0.284-0.213,0.338-0.343
					c0.055-0.13,0.04-0.262-0.045-0.395L263.337,165.274z"/>
				<path style="fill:#E54141;" d="M275.028,152.008l-5.983,3.454c-0.256,0.148-0.384,0.381-0.384,0.7v13.695
					c0,0.319,0.128,0.405,0.384,0.257l5.983-3.454c0.244-0.141,0.366-0.371,0.366-0.69v-1.549c0-0.319-0.122-0.408-0.366-0.267
					l-3.824,2.208c-0.147,0.085-0.22,0.044-0.22-0.124v-3.167c0-0.167,0.073-0.292,0.22-0.377l3.129-1.806
					c0.256-0.148,0.384-0.381,0.384-0.7v-1.549c0-0.319-0.128-0.404-0.384-0.257l-3.129,1.806c-0.147,0.085-0.22,0.044-0.22-0.124
					V157.1c0-0.167,0.073-0.292,0.22-0.377l3.824-2.208c0.244-0.141,0.366-0.371,0.366-0.69v-1.549
					C275.394,151.956,275.272,151.867,275.028,152.008z"/>
				<path style="fill:#E54141;" d="M282.329,147.793l-4.519,2.609c-0.256,0.148-0.384,0.381-0.384,0.7v13.695
					c0,0.319,0.128,0.404,0.384,0.257l4.519-2.609c0.952-0.549,1.693-1.3,2.223-2.251c0.53-0.952,0.795-2.021,0.795-3.206v-7.223
					c0-1.185-0.265-1.947-0.795-2.288C284.022,147.138,283.28,147.244,282.329,147.793z M283.024,158.193
					c0,0.486-0.082,0.879-0.247,1.179c-0.165,0.3-0.442,0.563-0.832,0.788l-1.995,1.152c-0.134,0.077-0.201,0.033-0.201-0.135
					v-9.138c0-0.167,0.067-0.289,0.201-0.366l1.995-1.152c0.39-0.225,0.667-0.282,0.832-0.173s0.247,0.408,0.247,0.894V158.193z"/>
				<path style="fill:#E54141;" d="M289.393,143.715l-1.739,1.004c-0.256,0.148-0.384,0.381-0.384,0.701v3.532
					c0,0.44,0.037,1.263,0.11,2.466c0.024,0.412,0.052,0.791,0.082,1.138c0.031,0.346,0.058,0.628,0.083,0.84
					c0.024,0.214,0.036,0.329,0.036,0.345c0.049,0.29,0.189,0.369,0.421,0.235l1.042-0.602c0.232-0.134,0.372-0.374,0.422-0.722
					c0-0.016,0.012-0.144,0.037-0.387c0.024-0.241,0.048-0.551,0.073-0.93c0.024-0.378,0.064-0.959,0.119-1.743
					c0.054-0.783,0.082-1.48,0.082-2.087v-3.532C289.777,143.653,289.649,143.567,289.393,143.715z"/>
				<path style="fill:#E54141;" d="M289.356,154.674l-1.61,0.929c-0.244,0.141-0.366,0.364-0.366,0.668v2.756
					c0,0.335,0.122,0.431,0.366,0.29l1.61-0.929c0.244-0.141,0.366-0.371,0.366-0.69v-2.803
					C289.722,154.607,289.6,154.533,289.356,154.674z"/>
			</g>
		</g>
	</g>
	<g>
		<g>
			<path style="fill:#E54141;" d="M280.562,223.589c-1.236,0.714-2.344,0.714-2.962,0c-0.618-0.715-0.618-1.994,0-3.421
				l16.567-38.262c0.618-1.428,1.726-2.708,2.962-3.421c1.238-0.715,2.346-0.715,2.964,0l16.567,19.131
				c0.618,0.714,0.618,1.993,0,3.422c-0.618,1.427-1.726,2.707-2.962,3.42L280.562,223.589z"/>
			<path style="fill:#201323;" d="M296.436,181.604l-16.568,38.261c-0.541,1.25,0.135,2.031,1.218,1.406l33.135-19.131
				c1.082-0.625,1.759-2.187,1.217-2.812l-16.568-19.131C298.33,179.573,296.977,180.354,296.436,181.604z"/>
		</g>
		<path style="fill:#E54141;" d="M299.892,187.058v4.905c0,0.843-0.039,1.811-0.114,2.899c-0.077,1.088-0.132,1.896-0.165,2.421
			c-0.035,0.527-0.068,0.958-0.101,1.292c-0.035,0.337-0.052,0.515-0.052,0.537c-0.068,0.482-0.263,0.816-0.585,1.002l-1.448,0.836
			c-0.323,0.186-0.517,0.077-0.585-0.326c0-0.022-0.017-0.181-0.05-0.479c-0.035-0.295-0.072-0.686-0.116-1.167
			c-0.041-0.482-0.081-1.008-0.114-1.58c-0.101-1.671-0.153-2.813-0.153-3.424v-4.905c0-0.443,0.178-0.767,0.534-0.972l2.415-1.395
			C299.714,186.497,299.892,186.615,299.892,187.058z M299.306,201.921l-2.236,1.291c-0.339,0.196-0.509,0.505-0.509,0.927v3.828
			c0,0.465,0.169,0.599,0.509,0.403l2.236-1.291c0.339-0.196,0.509-0.515,0.509-0.958v-3.893
			C299.815,201.829,299.645,201.726,299.306,201.921z"/>
	</g>
	<g>
		<g>
			<path style="fill:#E54141;" d="M110.425,230.404c-1.236,0.713-2.344,0.714-2.962,0c-0.618-0.715-0.618-1.994,0-3.421
				l16.567-38.261c0.618-1.429,1.726-2.708,2.962-3.422c1.238-0.715,2.346-0.715,2.964,0l16.567,19.131
				c0.618,0.714,0.618,1.993,0,3.422c-0.618,1.427-1.726,2.707-2.962,3.421L110.425,230.404z"/>
			<path style="fill:#201323;" d="M126.299,188.418l-16.568,38.261c-0.541,1.25,0.135,2.031,1.217,1.406l33.135-19.131
				c1.082-0.625,1.759-2.187,1.218-2.812l-16.568-19.131C128.193,186.387,126.84,187.169,126.299,188.418z"/>
		</g>
		<path style="fill:#E54141;" d="M129.754,193.873v4.905c0,0.844-0.039,1.811-0.114,2.899c-0.077,1.089-0.132,1.896-0.166,2.421
			c-0.035,0.526-0.068,0.957-0.101,1.292c-0.035,0.337-0.052,0.515-0.052,0.537c-0.068,0.482-0.262,0.816-0.585,1.003l-1.448,0.836
			c-0.323,0.186-0.517,0.077-0.585-0.327c0-0.022-0.017-0.181-0.049-0.479c-0.035-0.295-0.073-0.686-0.116-1.167
			c-0.041-0.482-0.081-1.008-0.114-1.58c-0.101-1.671-0.153-2.813-0.153-3.425v-4.905c0-0.443,0.178-0.767,0.534-0.973l2.415-1.395
			C129.577,193.311,129.754,193.43,129.754,193.873z M129.169,208.736l-2.236,1.291c-0.339,0.196-0.508,0.505-0.508,0.927v3.828
			c0,0.465,0.169,0.599,0.508,0.403l2.236-1.291c0.339-0.196,0.509-0.515,0.509-0.958v-3.893
			C129.678,208.643,129.508,208.54,129.169,208.736z"/>
	</g>
</g>
</svg>
