<?xml version="1.0" encoding="utf-8"?>
<!-- Generator: Adobe Illustrator 27.5.0, SVG Export Plug-In . SVG Version: 6.00 Build 0)  -->
<svg version="1.1" xmlns="http://www.w3.org/2000/svg" xmlns:xlink="http://www.w3.org/1999/xlink" x="0px" y="0px"
	 viewBox="0 0 500 500" style="enable-background:new 0 0 500 500;" xml:space="preserve">
<g id="BACKGROUND">
	<path style="fill:transparent;" d="M248.125,451.135H47.481c0,0-64.929-320.923,101.195-387.664
		c131.926-53.002,102.475,70.554,243.357,113.601c171.953,52.541,45.174,272.643,45.174,272.643L248.125,451.135z"/>
</g>
<g id="OBJECTS">
	<g>
		<path style="fill:none;stroke:#FC6A5A;stroke-width:1.8857;stroke-miterlimit:10;" d="M339.976,72.897
			c14.653,7.37,45.636,27.969,39.61,44.699c-5.387,16.63-33.824-2.434-44.005-10.505c-7.848-6.181-25.628-29.492-4.58-25.057
			c10.844,2.168,29.913,22.377,32,32.36c8.35,39.931-57.014-3.312-49.111-10.671c11.109-10.761,56.421,44.643,19.851,37.163
			c-9.356-1.756-30.345-20.699-12.066-15.507c15.089,4.724,14.59,22.844,1.39,24.59"/>
		<g>
			<g>
				<g>
					<g>
						<g>
							<path style="fill:#965450;" d="M245.012,158.969c0,0-2.779,33.908,13.897,38.911c16.676,5.003,75.432,59.586,90.051,46.137
								c27.793-25.57,29.461-28.349,17.788-40.022c-8.98-8.98-99.5-36.132-99.5-36.132s-8.338-21.123-21.123-21.123
								C233.339,146.74,245.012,158.969,245.012,158.969z"/>
							<path style="fill:#76413B;" d="M260.667,156.177c-3.63-4.88-8.606-9.437-14.544-9.437c-12.785,0-1.112,12.229-1.112,12.229
								s-2.484,30.433,11.446,37.88C257.983,183.304,259.431,169.751,260.667,156.177z"/>
						</g>
						<g>
							<path style="fill:#965450;" d="M216.663,264.029c0,0,112.286-67.26,124.515-63.369c21.274,6.769,25.57,26.682,25.57,26.682
								s-30.017,38.911-86.715,68.928C223.333,326.286,216.663,264.029,216.663,264.029z"/>
							<path style="fill:#76413B;" d="M274.743,230.66c-29.75,16.399-58.08,33.369-58.08,33.369s6.671,62.257,63.369,32.24
								c10.593-5.608,20.252-11.526,28.961-17.443C298.527,262.15,286.499,246.356,274.743,230.66z"/>
						</g>
					</g>
					<g>
						<path style="fill:#6F96BD;" d="M221.11,247.908c0,0,38.911-17.788,48.916-20.567c0,0,22.235,51.696,25.014,73.931
							c0,0-33.908,23.902-60.034,35.02S221.11,247.908,221.11,247.908z"/>
						<path style="fill:#4F7DA3;" d="M219.392,266.06c-2.106,28.144-3.34,78.297,15.614,70.232
							c11.863-5.048,25.323-12.73,36.492-19.615c-11.685-17.856-23.976-35.296-38.391-50.992
							C228.506,265.355,223.939,265.568,219.392,266.06z"/>
					</g>
				</g>
				<g>
					<g>
						<path style="fill:#965450;" d="M161.632,210.109c0,0,3.335,30.573-12.785,40.023c-16.12,9.45-48.361-7.782-56.699,36.131
							c-8.338,43.914,135.076-24.458,135.076-24.458l-17.232-53.919L161.632,210.109z"/>
						<path style="fill:#76413B;" d="M167.746,210.129c-0.071,9.077-1.404,18.505,0.12,27.518
							c1.401,8.289,5.266,15.192,10.202,21.885c4.619,6.264,9.929,12.097,15.984,16.859c19.085-7.87,33.173-14.585,33.173-14.585
							l-17.232-53.919l-42.304,1.945C167.713,209.926,167.747,210.016,167.746,210.129z"/>
					</g>
					<g>
						<path style="fill:#6F96BD;" d="M143.288,250.688c0,0,35.02,32.24,72.819,16.954l29.461-23.068
							c0,0,6.311,82.148,20.011,170.096c11.209,71.954-138.411,3.891-138.411,3.891s-49.472-116.732-35.02-145.082
							S143.288,250.688,143.288,250.688z"/>
						<path style="fill:#4F7DA3;" d="M264.158,405.871c-3.04-0.112-6.078-0.301-9.113-0.609
							c-25.571-2.594-49.74-13.736-70.361-28.824c-20.945-15.326-37.802-35.298-52.829-56.317
							c-12.658-17.706-23.911-36.423-32.885-56.238c-2.573,2.665-4.899,5.822-6.823,9.596
							c-14.453,28.349,35.02,145.082,35.02,145.082s146.891,58.509,138.411-3.891C265.178,411.716,264.622,408.796,264.158,405.871z
							"/>
					</g>
				</g>
				<g>
					<g>
						<path style="fill:#965450;" d="M137.729,333.512c0,0,3.335,48.916,1.112,63.925c0,0,101.81,17,122.933,23.67
							c21.123,6.671,27.298,25.934,27.298,25.934s-159.126,6.539-189.698-1.243c-30.573-7.782-23.346-121.179-23.346-121.179
							L137.729,333.512z"/>
						<path style="fill:#76413B;" d="M139.249,363.35c-0.544-15.52-1.52-29.838-1.52-29.838l-61.701-8.894
							c0,0-0.865,13.583-0.729,31.666C95.021,364.056,117.592,365.457,139.249,363.35z"/>
					</g>
					<path style="fill:#6F96BD;" d="M113.271,255.135c0,0-48.916,7.782-44.469,90.607c0,0,44.469,15.564,80.601,4.447
						C149.403,350.188,152.182,254.023,113.271,255.135z"/>
				</g>
			</g>
			<g>
				<g>
					<g>
						<path style="fill:#965450;" d="M217.219,130.62c0,0,47.249-0.556,38.911,40.023c-8.338,40.578-6.114,72.819-16.12,81.713
							c-10.006,8.894-68.372,12.229-70.039-43.914S178.308,128.952,217.219,130.62z"/>
						<path style="fill:#965450;" d="M170.526,192.877c0,0,3.335-18.9-12.229-18.344c-15.564,0.556-3.335,44.469,8.894,38.355
							C179.42,206.774,170.526,192.877,170.526,192.877z"/>
					</g>
					<g>
						<path style="fill:#352C38;" d="M150.792,186.763c0,0,0-8.338,6.67-11.117c4.354-1.814,10.451,2.084,11.673,8.06
							c2.501,12.229-15.564,60.59,17.232,77.822l-0.278-2.501c0,0,9.728,9.172,30.017,8.616l0.556-3.613l1.112,4.169
							c0,0,25.292-0.556,28.071-16.954l-1.39,6.392c0,0,5.837-1.946,6.948-14.453c1.112-12.507-1.668-25.014-1.668-25.014
							s-5.281,26.404-9.172,25.57c-3.891-0.834,3.057-27.238-3.613-28.627c-6.67-1.39-44.469-9.172-44.469,4.725
							c0,0,6.948,22.235-1.946,20.845c-8.894-1.39-13.619-5.003-12.507-28.905c1.112-23.902,5.281-48.083,5.281-48.083
							s13.341,2.223,14.73-17.788c0,0,18.9,24.18,47.805,21.401c0,0-19.455-2.779-28.349-11.673c0,0,35.854,20.845,65.315-2.223
							l-9.728,0.556c0,0,13.341-5.281,11.117-24.736c0,0-4.169,9.728-10.284,11.673c0,0,8.894-6.115,6.67-17.232
							c0,0-8.06,11.117-16.12,13.063c0,0,14.453-1.39,11.951-21.679l-10.006,5.837c0,0,6.67-3.613,6.67-10.562
							c0,0-18.066,9.45-32.796,4.725c-14.731-4.725-51.696-20.845-61.979,11.395c0,0-13.341-8.338-26.682,5.281
							C138.285,145.35,150.792,186.763,150.792,186.763z"/>
						<g>
							<path style="fill:#352C38;" d="M145.79,132.566c2.194-2.238,4.716-4.158,7.423-5.778c0.679-0.403,1.371-0.784,2.074-1.149
								c0.708-0.353,1.423-0.696,2.156-1.003c0.733-0.304,1.473-0.601,2.235-0.84c0.754-0.261,1.532-0.452,2.31-0.639l1.179-0.241
								l1.194-0.171c0.799-0.082,1.605-0.17,2.414-0.158c0.809-0.03,1.618,0.044,2.428,0.099c0.803,0.118,1.612,0.218,2.4,0.426
								c0.801,0.156,1.565,0.444,2.343,0.686c0.748,0.317,1.523,0.587,2.235,0.982c0.738,0.348,1.432,0.771,2.12,1.204
								c0.698,0.419,1.326,0.934,1.989,1.403l-1.455,1.107c-0.799-2.022-1.064-4.012-1.07-6.078c-0.018-2.055,0.431-4.1,1.151-6.017
								l0.591-1.423c0.235-0.454,0.508-0.888,0.762-1.332c0.474-0.916,1.14-1.689,1.761-2.496c1.294-1.562,2.78-2.953,4.392-4.138
								c0.402-0.297,0.778-0.64,1.203-0.899l1.271-0.785c0.855-0.508,1.675-1.093,2.587-1.48l2.677-1.285l0.335-0.16
								c0.195-0.087,0.249-0.098,0.38-0.151l0.678-0.257c0.462-0.164,0.88-0.358,1.379-0.498c1.977-0.627,3.935-1.012,5.94-1.211
								c1.999-0.154,4.011-0.157,5.988,0.074c1.974,0.225,3.932,0.56,5.837,1.054c1.91,0.475,3.79,1.039,5.628,1.691
								c3.688,1.277,7.265,2.757,10.865,4.104c1.8,0.675,3.611,1.306,5.451,1.81c1.837,0.507,3.699,0.938,5.593,1.1
								c1.89,0.156,3.808,0.055,5.652-0.424c1.84-0.481,3.603-1.302,5.187-2.419c-1.488,1.231-3.189,2.252-5.063,2.846
								c-1.866,0.611-3.852,0.84-5.82,0.797c-3.949-0.122-7.774-1.188-11.46-2.386c-3.705-1.184-7.306-2.591-10.969-3.713
								c-1.828-0.573-3.663-1.091-5.513-1.514c-1.847-0.442-3.716-0.722-5.583-0.899c-1.87-0.183-3.739-0.131-5.59,0.011
								c-1.842,0.192-3.687,0.579-5.395,1.126c-0.433,0.119-0.896,0.333-1.343,0.495l-0.676,0.261
								c-0.093,0.038-0.271,0.1-0.293,0.118l-0.318,0.155l-2.542,1.241c-0.87,0.378-1.633,0.923-2.443,1.394l-1.201,0.729
								c-0.403,0.24-0.745,0.556-1.121,0.829c-1.508,1.091-2.871,2.357-4.048,3.758c-0.56,0.722-1.173,1.412-1.59,2.222
								c-0.227,0.393-0.476,0.776-0.688,1.176l-0.54,1.246c-0.665,1.676-1.102,3.464-1.118,5.283
								c-0.046,1.788,0.208,3.701,0.802,5.292l1.119,2.994l-2.574-1.886c-0.606-0.444-1.171-0.951-1.805-1.355
								c-0.623-0.42-1.252-0.833-1.921-1.173c-0.646-0.388-1.348-0.653-2.028-0.971c-0.708-0.242-1.403-0.534-2.136-0.699
								c-0.72-0.218-1.464-0.327-2.203-0.467c-0.747-0.082-1.495-0.186-2.252-0.191c-0.755-0.046-1.513,0.005-2.27,0.048
								l-1.135,0.111l-1.129,0.18c-0.749,0.143-1.499,0.299-2.237,0.508c-0.745,0.184-1.475,0.427-2.203,0.678
								c-0.728,0.253-1.443,0.544-2.155,0.846c-0.707,0.314-1.407,0.645-2.097,1c-1.377,0.713-2.717,1.509-4.006,2.383
								C148.237,130.619,146.967,131.534,145.79,132.566z"/>
						</g>
						<g>
							<path style="fill:#352C38;" d="M143.01,113.944c1.876-0.197,3.766-0.242,5.654-0.22c1.888,0.027,3.78,0.113,5.661,0.331
								c0.94,0.107,1.88,0.226,2.815,0.381c0.937,0.141,1.868,0.323,2.796,0.52c0.93,0.193,1.85,0.43,2.769,0.672
								c0.912,0.268,1.828,0.53,2.719,0.869c0.901,0.308,1.779,0.688,2.653,1.069l1.298,0.608l1.265,0.677
								c0.428,0.214,0.822,0.49,1.235,0.732c0.414,0.242,0.815,0.505,1.202,0.789c0.801,0.531,1.538,1.148,2.285,1.755
								c0.703,0.657,1.425,1.296,2.054,2.03c0.676,0.689,1.223,1.492,1.798,2.264c0.519,0.813,1.05,1.62,1.465,2.492
								c0.479,0.84,0.788,1.757,1.17,2.639l-0.919,0.453c-1.301-2.175-2.407-4.416-3.384-6.733c-0.956-2.32-1.735-4.722-2.228-7.192
								c-0.128-0.616-0.226-1.239-0.308-1.864c-0.085-0.625-0.134-1.254-0.168-1.884c-0.014-0.631-0.038-1.263,0.017-1.894
								c0.029-0.631,0.128-1.259,0.241-1.88c0.071-0.309,0.131-0.619,0.212-0.924l0.287-0.904c0.233-0.587,0.477-1.17,0.805-1.709
								c0.141-0.282,0.33-0.535,0.514-0.79c0.177-0.26,0.365-0.511,0.587-0.733c0.403-0.482,0.889-0.878,1.36-1.283
								c-0.442,0.44-0.894,0.864-1.257,1.368c-0.203,0.234-0.369,0.494-0.53,0.757c-0.167,0.259-0.337,0.515-0.46,0.798
								c-0.292,0.542-0.498,1.121-0.693,1.701l-0.231,0.889c-0.062,0.299-0.104,0.604-0.157,0.904
								c-0.077,0.606-0.141,1.216-0.135,1.828c-0.024,0.611,0.013,1.224,0.049,1.834c0.053,0.611,0.121,1.22,0.223,1.825
								c0.099,0.605,0.214,1.209,0.359,1.806c0.55,2.397,1.42,4.713,2.389,6.976c0.978,2.256,2.106,4.475,3.381,6.555l-0.919,0.453
								c-0.377-0.839-0.679-1.714-1.146-2.509c-0.404-0.828-0.919-1.59-1.42-2.359c-0.555-0.73-1.089-1.48-1.721-2.149
								c-0.59-0.706-1.276-1.323-1.941-1.96c-0.71-0.588-1.41-1.189-2.176-1.708c-0.369-0.278-0.753-0.535-1.15-0.773
								c-0.396-0.238-0.773-0.509-1.186-0.721l-1.219-0.669l-1.254-0.604c-0.847-0.38-1.696-0.76-2.574-1.07
								c-0.869-0.333-1.755-0.62-2.64-0.913c-0.894-0.266-1.79-0.529-2.698-0.748c-0.907-0.224-1.819-0.433-2.74-0.602
								c-0.918-0.183-1.843-0.33-2.77-0.466c-1.856-0.258-3.722-0.474-5.597-0.592C146.776,113.952,144.894,113.893,143.01,113.944z
								"/>
						</g>
					</g>
				</g>
				<g>
					<path style="fill:#FFFFFF;" d="M197.485,222.616c0,0,5.837-18.344,35.02,6.393L197.485,222.616z"/>
					<g>
						<path style="fill:#59221E;" d="M232.505,178.981c0.251,2.958,0.334,5.915,0.376,8.87l-0.008,4.431l-0.121,4.428
							c-0.129,2.95-0.285,5.901-0.553,8.848c-0.125,1.475-0.273,2.947-0.446,4.418c-0.191,1.475-0.405,2.946-0.64,4.412
							l-0.184,1.149l-0.99-0.494c-0.913-0.455-1.828-0.904-2.732-1.38l-2.717-1.415c-1.802-0.964-3.601-1.934-5.366-2.978
							c1.954,0.625,3.874,1.324,5.792,2.029l2.863,1.089c0.956,0.359,1.9,0.745,2.847,1.124l-1.174,0.655
							c0.084-1.465,0.188-2.924,0.316-4.38c0.081-1.466,0.159-2.934,0.276-4.396c0.125-1.462,0.157-2.936,0.285-4.4l0.312-4.402
							c0.235-2.934,0.473-5.871,0.773-8.806c0.161-1.467,0.299-2.936,0.49-4.402C232.069,181.914,232.279,180.448,232.505,178.981z"
							/>
					</g>
					<g>
						<path style="fill:#59221E;" d="M162.744,206.774c-0.594-0.764-1.108-1.601-1.476-2.512c-0.08-0.232-0.189-0.455-0.246-0.696
							c-0.055-0.241-0.145-0.476-0.171-0.726c-0.02-0.25-0.083-0.498-0.066-0.753c0.028-0.253,0-0.517,0.08-0.766
							c0.089-0.243,0.114-0.519,0.263-0.739c0.149-0.215,0.254-0.477,0.45-0.651c0.195-0.175,0.389-0.357,0.592-0.524l0.683-0.366
							c0.224-0.142,0.472-0.19,0.713-0.269l0.729-0.218l1.482-0.218l-0.349,0.313c0.25-1.751,0.372-3.54,0.458-5.312
							c0.076-1.775,0.049-3.553-0.109-5.307c-0.164-1.746-0.472-3.498-1.145-5.061c-0.332-0.779-0.756-1.511-1.314-2.103
							c-0.561-0.585-1.261-1.004-2.037-1.203c-0.782-0.19-1.599-0.242-2.465-0.09c-0.831,0.13-1.612,0.375-2.309,0.82
							c-0.686,0.44-1.257,1.052-1.659,1.787c-0.406,0.732-0.659,1.563-0.807,2.416c-0.298,1.717-0.169,3.508,0.043,5.27
							c0.236,1.766,0.641,3.516,1.157,5.236c-0.702-1.656-1.214-3.392-1.589-5.163c-0.37-1.77-0.552-3.605-0.328-5.449
							c0.118-0.919,0.348-1.843,0.776-2.703c0.424-0.856,1.063-1.646,1.882-2.188c0.804-0.548,1.765-0.868,2.699-1.031
							c0.899-0.176,1.92-0.174,2.873,0.062c0.963,0.238,1.863,0.771,2.549,1.48c0.683,0.714,1.173,1.557,1.55,2.422
							c0.743,1.744,1.033,3.587,1.195,5.404c0.161,1.823,0.118,3.645,0.008,5.453c-0.11,1.812-0.352,3.6-0.677,5.392l-0.051,0.283
							l-0.298,0.03l-1.397,0.142l-0.669,0.17c-0.221,0.062-0.457,0.095-0.65,0.211l-0.611,0.29l-0.512,0.416
							c-0.173,0.139-0.262,0.343-0.405,0.511c-0.143,0.171-0.17,0.403-0.266,0.603c-0.087,0.206-0.074,0.443-0.118,0.665
							c-0.034,0.226,0.01,0.46,0.01,0.692c0.006,0.233,0.076,0.462,0.111,0.695c0.037,0.234,0.127,0.456,0.188,0.686
							C161.809,205.079,162.227,205.956,162.744,206.774z"/>
					</g>
					<g>
						<path style="fill:#1A141C;" d="M234.451,171.198c0,0,0.23,0.337,0.633,0.927c0.199,0.284,0.449,0.619,0.726,0.99
							c0.279,0.372,0.586,0.779,0.939,1.201c0.32,0.436,0.741,0.858,1.116,1.32c0.432,0.43,0.819,0.911,1.299,1.339
							c0.24,0.213,0.443,0.46,0.69,0.672c0.253,0.207,0.502,0.419,0.741,0.644c0.48,0.446,1.048,0.814,1.551,1.248
							c0.555,0.381,1.111,0.762,1.657,1.138c0.591,0.317,1.13,0.714,1.7,1.036c0.583,0.298,1.142,0.619,1.677,0.941
							c0.553,0.28,1.092,0.537,1.587,0.81c0.493,0.283,0.957,0.538,1.385,0.728c0.424,0.205,0.795,0.418,1.105,0.587
							c0.62,0.344,0.982,0.594,0.982,0.594s-0.396,0.137-1.102,0.282c-0.353,0.07-0.787,0.162-1.286,0.229
							c-0.25,0.036-0.517,0.071-0.798,0.091c-0.28-0.001-0.575-0.003-0.882-0.004c-0.616-0.02-1.292-0.041-2.002-0.125
							c-0.699-0.136-1.441-0.299-2.204-0.502c-0.754-0.227-1.51-0.567-2.276-0.908c-0.755-0.368-1.466-0.865-2.19-1.326
							c-0.649-0.573-1.357-1.079-1.91-1.734c-0.579-0.628-1.108-1.277-1.521-1.977c-0.462-0.661-0.762-1.394-1.067-2.054
							c-0.244-0.697-0.482-1.34-0.589-1.972c-0.135-0.619-0.198-1.198-0.221-1.71c-0.03-0.51,0.01-0.964,0.039-1.327
							C234.301,171.602,234.451,171.198,234.451,171.198z"/>
					</g>
					<g>
						<path style="fill:#1A141C;" d="M225.557,170.365c0,0-0.16,0.517-0.643,1.329c-0.256,0.385-0.546,0.9-0.976,1.392
							c-0.407,0.524-0.925,1.055-1.524,1.613c-0.61,0.536-1.305,1.102-2.101,1.603c-0.397,0.252-0.82,0.489-1.249,0.744
							c-0.436,0.239-0.907,0.421-1.378,0.637c-0.47,0.221-0.959,0.417-1.472,0.555c-0.507,0.158-1.024,0.314-1.55,0.454
							c-1.057,0.219-2.151,0.403-3.242,0.494l-1.639,0.038c-0.545,0.026-1.087,0.006-1.616-0.066
							c-0.532-0.051-1.058-0.113-1.575-0.186c-0.519-0.063-1.028-0.127-1.512-0.277c-0.977-0.248-1.913-0.505-2.782-0.785
							c-0.849-0.349-1.638-0.699-2.355-1.035c-0.355-0.174-0.695-0.34-1.018-0.498c-0.306-0.195-0.597-0.379-0.87-0.552
							c-0.542-0.35-0.998-0.685-1.373-0.952c-0.747-0.541-1.143-0.895-1.143-0.895s0.551-0.003,1.46,0.069
							c0.454,0.039,1.004,0.076,1.615,0.153c0.304,0.04,0.627,0.083,0.967,0.128c0.342,0.023,0.703,0.047,1.078,0.072
							c0.745,0.059,1.538,0.138,2.364,0.242c0.835,0.04,1.707,0.07,2.594,0.146c0.888,0.099,1.802-0.001,2.72,0.059
							c0.461,0.035,0.921-0.007,1.38-0.032l1.383-0.063c0.466,0.013,0.913-0.096,1.369-0.135c0.451-0.068,0.914-0.072,1.358-0.15
							c0.874-0.2,1.779-0.265,2.606-0.512c0.423-0.101,0.84-0.2,1.247-0.298c0.4-0.122,0.789-0.253,1.181-0.359
							c0.4-0.093,0.754-0.255,1.12-0.378c0.359-0.133,0.728-0.235,1.052-0.385c0.668-0.271,1.295-0.523,1.837-0.786
							c0.56-0.24,1.027-0.493,1.433-0.69c0.381-0.222,0.718-0.372,0.92-0.503C225.441,170.432,225.557,170.365,225.557,170.365z"/>
					</g>
					<path style="fill:#1A141C;" d="M211.072,188.005c-0.546,3.488-2.157,6.133-3.597,5.907c-1.441-0.225-2.166-3.236-1.62-6.724
						c0.546-3.488,2.157-6.133,3.597-5.907C210.893,181.507,211.618,184.517,211.072,188.005z"/>
					<path style="fill:#1A141C;" d="M242.757,193.564c-0.546,3.488-2.157,6.133-3.597,5.907c-1.441-0.225-2.166-3.236-1.62-6.724
						c0.546-3.488,2.157-6.133,3.597-5.907C242.578,187.065,243.303,190.076,242.757,193.564z"/>
					<g>
						<path style="fill:#59221E;" d="M203.322,190.932c0,0,0.039,0.308,0.108,0.847c0.061,0.537,0.191,1.299,0.369,2.194
							c0.094,0.447,0.213,0.924,0.346,1.421c0.145,0.493,0.326,1,0.548,1.491c0.231,0.483,0.519,0.955,0.884,1.304
							c0.37,0.322,0.798,0.597,1.284,0.578c0.389,0.023,0.898-0.209,1.308-0.536c0.417-0.339,0.813-0.743,1.154-1.178
							c0.689-0.868,1.241-1.783,1.704-2.573c0.453-0.797,0.834-1.471,1.074-1.956c0.25-0.483,0.393-0.759,0.393-0.759
							s-0.215,1.233-0.891,2.991c-0.346,0.874-0.806,1.882-1.493,2.88c-0.35,0.492-0.743,1.002-1.269,1.431
							c-0.529,0.416-1.178,0.822-2.042,0.808c-0.771-0.005-1.474-0.444-1.977-0.926c-0.511-0.506-0.788-1.116-1.027-1.684
							c-0.229-0.576-0.356-1.149-0.456-1.689c-0.094-0.54-0.142-1.053-0.17-1.525C203.086,192.163,203.322,190.932,203.322,190.932z
							"/>
					</g>
					<g>
						<path style="fill:#59221E;" d="M235.84,196.768c0,0,0.038,0.272,0.103,0.748c0.053,0.474,0.177,1.148,0.32,1.941
							c0.155,0.79,0.348,1.712,0.685,2.613c0.155,0.456,0.392,0.881,0.652,1.248c0.284,0.328,0.59,0.637,0.976,0.649l0.068,0.021
							l0.017,0.006l0.008,0.003c0.019,0.001-0.147-0.003-0.074-0.001l0.006,0l0.051-0.002l0.204-0.008
							c0.123-0.012,0.308,0.007,0.353-0.044c0.074-0.035,0.147-0.061,0.228-0.08l0.271-0.167c0.189-0.097,0.342-0.293,0.522-0.427
							c0.15-0.185,0.32-0.344,0.454-0.544c0.564-0.769,0.983-1.61,1.328-2.336c0.333-0.733,0.615-1.357,0.778-1.805
							c0.176-0.447,0.277-0.702,0.277-0.702s-0.006,0.277-0.067,0.756c-0.072,0.476-0.161,1.166-0.388,1.969
							c-0.222,0.804-0.542,1.739-1.12,2.67c-0.296,0.457-0.646,0.939-1.175,1.302c-0.136,0.088-0.265,0.179-0.413,0.26
							c-0.175,0.069-0.358,0.131-0.54,0.185c-0.205,0.072-0.302,0.045-0.449,0.064l-0.204,0.013l-0.051,0.003l-0.093-0.001
							l-0.016-0.003l-0.033-0.007l-0.131-0.029c-0.741-0.086-1.279-0.631-1.651-1.109c-0.358-0.511-0.567-1.057-0.715-1.576
							c-0.162-0.519-0.239-1.029-0.299-1.508c-0.064-0.479-0.087-0.932-0.092-1.349c-0.021-0.833,0.055-1.523,0.097-2.003
							C235.782,197.039,235.84,196.768,235.84,196.768z"/>
					</g>
				</g>
			</g>
		</g>
	</g>
	<g>
		<polygon style="fill:#352C38;" points="403.701,449.198 268.97,449.198 319.949,337.847 454.68,337.847 		"/>
		<rect x="193.867" y="437.19" style="fill:#352C38;" width="93.765" height="12.009"/>
		<polygon style="fill:#765E69;" points="412.804,449.198 278.074,449.198 329.053,337.847 463.783,337.847 		"/>
	</g>
</g>
</svg>
