<?xml version="1.0" encoding="utf-8"?>
<!-- Generator: Adobe Illustrator 27.5.0, SVG Export Plug-In . SVG Version: 6.00 Build 0)  -->
<svg version="1.1" xmlns="http://www.w3.org/2000/svg" xmlns:xlink="http://www.w3.org/1999/xlink" x="0px" y="0px"
	 viewBox="0 0 500 500" style="enable-background:new 0 0 500 500;" xml:space="preserve">
<g id="BACKGROUND">
	<g>
		<path style="fill:#744CCD;" d="M253.632,61.896c-33.674-3.518-71.95,2.548-101.634,17.301
			c-21.528,10.699-46.857,30.911-60.224,51.269c-14.316,21.804-24.736,64.982-25.044,91.102
			c-1.02,86.477,35.285,158.75,140.026,174.854c57.79,8.886,139.537-6.762,176.991-53.997
			c36.923-46.565,43.028-128.906,17.203-183.536C374.277,102.468,316.373,68.45,253.632,61.896z"/>
		<g>
			<g>
				<g>
					<path style="fill:#744CCD;" d="M442.243,195.431c-0.593-0.046-0.503-4.488-1.268-12.337c-0.446-3.919-1.125-8.686-2.393-14.11
						c-1.262-5.422-3.109-11.495-5.735-17.977c-5.294-12.933-13.872-27.46-26.157-41.341
						c-12.231-13.895-28.051-27.145-46.543-37.947c-18.465-10.819-37.759-18.079-55.826-22.262
						c-18.081-4.252-34.922-5.368-48.991-5.009c-14.097,0.377-25.445,2.198-33.257,3.606c-3.916,0.739-6.958,1.313-9.021,1.702
						c-2.08,0.362-3.217,0.433-3.297,0.181c-0.08-0.252,0.902-0.814,2.858-1.659c1.947-0.871,4.9-1.916,8.757-3.118
						c7.721-2.327,19.196-5.024,33.686-6.116c14.456-1.074,31.949-0.497,50.792,3.528c18.826,3.953,38.973,11.295,58.161,22.54
						c19.219,11.225,35.563,25.197,48.018,39.946c12.512,14.73,21.009,30.251,25.877,44.027c2.417,6.903,3.972,13.355,4.877,19.081
						c0.912,5.729,1.173,10.723,1.168,14.785C443.808,191.098,442.699,195.479,442.243,195.431z"/>
				</g>
			</g>
		</g>
		<g>
			<g>
				<g>
					<path style="fill:#744CCD;" d="M412.244,322.925c-0.198-0.175-0.034-0.796,0.436-1.79c0.224-0.507,0.574-1.065,0.905-1.784
						c0.329-0.722,0.723-1.538,1.178-2.438c1.713-3.682,3.893-9.13,5.841-16.156c1.94-7.025,3.735-15.561,5.143-25.152
						c1.36-9.601,2.425-20.238,2.864-31.445c0.497-11.192,0.323-21.874-0.233-31.55c-0.581-9.676-1.673-18.332-2.982-25.514
						c-1.299-7.189-2.893-12.872-4.126-16.776c-0.318-0.971-0.554-1.865-0.806-2.616c-0.262-0.745-0.467-1.391-0.61-1.927
						c-0.289-1.073-0.336-1.711-0.108-1.844c0.228-0.133,0.722,0.246,1.464,1.109c0.371,0.432,0.804,0.984,1.295,1.655
						c0.482,0.674,0.942,1.498,1.49,2.42c2.146,3.702,4.631,9.42,6.672,16.75c2.054,7.324,3.749,16.227,4.74,26.175
						c0.968,9.948,1.361,20.939,0.852,32.438c-0.452,11.514-1.762,22.44-3.554,32.279c-1.84,9.834-4.26,18.573-6.963,25.7
						c-2.707,7.129-5.809,12.594-8.439,16.013c-0.687,0.842-1.307,1.573-1.855,2.191c-0.553,0.617-1.127,1.064-1.559,1.434
						C412.994,322.819,412.442,323.1,412.244,322.925z"/>
				</g>
			</g>
		</g>
		<g>
			<g>
				<g>
					<path style="fill:#744CCD;" d="M62.762,301.926c-0.226,0.138-0.688-0.152-1.37-0.844c-0.672-0.695-1.619-1.766-2.604-3.282
						c-2.066-2.982-4.602-7.613-6.945-13.647c-2.348-6.03-4.5-13.446-6.117-21.821c-1.574-8.378-2.645-17.711-2.862-27.535
						c-0.482-19.63,2.347-37.45,6.582-49.711c2.067-6.144,4.431-10.888,6.407-13.945c0.503-0.762,0.941-1.437,1.372-1.994
						c0.444-0.551,0.836-1.003,1.175-1.354c0.677-0.702,1.136-0.996,1.363-0.86c0.227,0.136,0.209,0.695-0.021,1.619
						c-0.115,0.462-0.284,1.015-0.502,1.652c-0.203,0.644-0.437,1.386-0.7,2.222c-1.081,3.309-2.564,8.083-3.883,14.118
						c-2.728,12.031-4.603,29.159-4.141,48.067c0.208,9.462,1.03,18.451,2.166,26.558c1.179,8.101,2.701,15.315,4.301,21.29
						C60.154,294.426,63.764,301.305,62.762,301.926z"/>
				</g>
			</g>
		</g>
		<g>
			<g>
				<g>
					<path style="fill:#744CCD;" d="M167.757,405.421c-0.017,0.264-0.705,0.458-2.013,0.585c-0.654,0.063-1.462,0.11-2.418,0.141
						c-0.955,0.02-2.064,0.078-3.297-0.022c-4.952-0.199-12.136-1.081-20.742-3.463c-1.074-0.306-2.173-0.618-3.297-0.938
						c-1.111-0.358-2.234-0.761-3.388-1.155c-1.146-0.413-2.341-0.778-3.512-1.26c-1.173-0.479-2.369-0.968-3.585-1.465
						c-0.607-0.252-1.22-0.506-1.837-0.763c-0.604-0.284-1.214-0.57-1.828-0.858c-1.229-0.581-2.477-1.172-3.743-1.771
						c-1.236-0.658-2.489-1.326-3.761-2.004c-0.635-0.341-1.274-0.685-1.917-1.03c-0.627-0.373-1.257-0.749-1.892-1.127
						c-10.198-5.984-20.583-13.989-30.092-23.75c-4.782-4.845-9.085-9.923-12.949-15.037c-1.976-2.525-3.729-5.145-5.496-7.67
						c-1.659-2.6-3.335-5.108-4.786-7.673c-6.015-10.131-10.136-19.974-12.866-28.432c-2.732-8.472-3.962-15.604-4.394-20.545
						c-0.27-2.464-0.243-4.404-0.178-5.718c0.072-1.314,0.236-2.011,0.499-2.04c0.263-0.029,0.61,0.61,1.03,1.841
						c0.426,1.23,0.87,3.059,1.578,5.376c1.308,4.647,3.284,11.324,6.551,19.239c3.266,7.904,7.712,17.097,13.799,26.605
						c1.468,2.408,3.148,4.764,4.793,7.212c1.753,2.374,3.478,4.845,5.408,7.228c3.773,4.83,7.921,9.645,12.483,14.265
						c9.073,9.312,18.801,17.072,28.296,23.082c0.591,0.381,1.178,0.76,1.761,1.136c0.598,0.351,1.193,0.698,1.784,1.044
						c1.181,0.693,2.347,1.377,3.496,2.051c1.176,0.623,2.336,1.237,3.477,1.842c0.57,0.304,1.137,0.605,1.698,0.905
						c0.574,0.273,1.143,0.545,1.706,0.814c1.129,0.538,2.24,1.066,3.33,1.586c1.088,0.526,2.198,0.94,3.264,1.404
						c1.072,0.451,2.123,0.893,3.151,1.325c1.046,0.385,2.07,0.761,3.07,1.129C157.012,403.33,167.87,404.153,167.757,405.421z"/>
				</g>
			</g>
		</g>
		<g>
			<g>
				<g>
					<path style="fill:#744CCD;" d="M412.996,155.004c-1.037,0.31-2.911-2.854-5.5-7.951c-1.28-2.529-2.805-5.54-4.498-8.884
						c-1.729-3.296-3.654-6.879-5.811-10.544c-2.169-3.653-4.398-7.009-6.499-10.025c-1.078-1.484-2.079-2.922-3.094-4.208
						c-0.966-1.332-1.939-2.509-2.802-3.622c-3.493-4.398-5.802-7.216-5.13-8.1c0.596-0.801,4.16,0.544,8.934,4.251
						c1.177,0.937,2.461,1.984,3.719,3.229c1.309,1.202,2.584,2.596,3.911,4.084c2.596,3.017,5.207,6.549,7.542,10.484
						c2.324,3.946,4.187,7.884,5.652,11.538c1.422,3.672,2.492,7.046,3.158,9.937C413.939,150.973,413.982,154.712,412.996,155.004z
						"/>
				</g>
			</g>
		</g>
		<g>
			<g>
				<g>
					<path style="fill:#744CCD;" d="M101.662,355.671c-0.678,0.796-3.178-0.043-6.579-2.261c-3.397-2.212-7.681-5.829-11.698-10.6
						c-1.986-2.4-3.723-4.845-5.082-7.239c-1.346-2.405-2.367-4.704-2.936-6.772c-1.203-4.139-0.697-6.959,0.294-7.128
						c1.083-0.208,2.405,1.843,4.595,4.809c2.146,3.005,5.308,7.005,8.997,11.417c3.708,4.406,7.165,8.424,9.519,11.556
						C101.122,352.584,102.354,354.859,101.662,355.671z"/>
				</g>
			</g>
		</g>
	</g>
</g>
<g id="OBJECTS">
	<g>
		<g>
			<path style="fill:#387996;" d="M243.128,354.902c-9.747,11.861-52.594,24.002-58.27,19.848
				c-2.304-1.68-6.196-10.941-7.293-13.586c-5.414-12.982-10.535-27.65-14.884-40.273c1.509-0.314,3.541-0.775,5.961-1.357
				c7.432-1.07,16.624-3.75,23.456-6.188c1.501-0.535,2.946-1.064,4.315-1.58c0.377-0.119,0.766-0.244,1.141-0.365
				c8.448-2.691,19.677-7.734,25.981-12.553c5.106,12.002,11.258,26.932,14.153,34.932
				C238.892,337.105,245.503,351.998,243.128,354.902z"/>
			<path style="opacity:0.3;fill:#387996;" d="M226.996,365.422c0.077,0.14,3.76-1.802,6.233-3.154
				c-0.023-0.054,0.706-0.376,0.684-0.43c-2.871-6.865-17.031-44.552-21.455-56.451c-3.03,1.475-3.575,1.608-6.628,2.784
				C206.566,309.956,223.54,359.127,226.996,365.422z"/>
			<path style="fill:#E0B070;" d="M186.968,350.064c-0.494-1.555-0.858-3.387,0.83-4.141c1.881-0.838,6.548-2.559,8.581-2.885
				c1.71-0.273,2.605,1.355,3.098,2.705c1.293,3.541,2.974,7.041,3.95,10.682c0.25,0.932,1.119,2.504-0.71,3.398
				c-1.849,0.906-7.056,2.672-9.102,2.896c-0.907,0.104-1.917,0.014-2.588-1.869C189.89,357.668,188.357,354.432,186.968,350.064z"
				/>
			<g>
				<g>
					<g>
						<path style="fill:#CE9C63;" d="M196.969,343.061c0.029-0.016,0.162,0.135,0.332,0.459c0.157,0.309,0.389,0.887,0.114,1.572
							c-0.28,0.678-0.992,1.158-1.748,1.531c-0.77,0.381-1.646,0.689-2.564,0.994c-0.916,0.299-1.796,0.58-2.637,0.752
							c-0.815,0.168-1.712,0.23-2.316-0.217c-0.587-0.428-0.743-0.984-0.863-1.311c-0.101-0.348-0.124-0.547-0.089-0.557
							c0.039-0.014,0.133,0.162,0.291,0.473c0.168,0.291,0.395,0.779,0.876,1.063c0.468,0.303,1.209,0.234,1.992,0.045
							c0.791-0.189,1.658-0.48,2.571-0.781c0.912-0.301,1.777-0.59,2.517-0.928c0.737-0.328,1.363-0.73,1.61-1.229
							c0.256-0.494,0.139-1.01,0.043-1.33C196.998,343.27,196.93,343.082,196.969,343.061z"/>
					</g>
				</g>
			</g>
			<g>
				<g>
					<g>
						<path style="fill:#CE9C63;" d="M202.934,359.541c-0.046,0.012-0.107-0.178-0.266-0.477c-0.151-0.297-0.442-0.701-0.966-0.936
							c-1.074-0.477-2.827-0.08-4.567,0.59c-0.894,0.344-1.754,0.648-2.502,0.967c-0.741,0.314-1.405,0.664-1.615,1.16
							c-0.226,0.494-0.076,1.023-0.025,1.35c0.074,0.338,0.112,0.531,0.074,0.547c-0.034,0.012-0.141-0.154-0.283-0.484
							c-0.108-0.324-0.369-0.852-0.135-1.559c0.26-0.719,1.03-1.133,1.771-1.484c0.767-0.357,1.621-0.676,2.513-1.02
							c1.783-0.678,3.675-1.086,4.943-0.42c0.613,0.336,0.894,0.861,0.991,1.205C202.977,359.332,202.963,359.535,202.934,359.541z"
							/>
					</g>
				</g>
			</g>
			<g>
				<g>
					<g>
						<path style="fill:#CE9C63;" d="M192.921,347.387c0.145-0.051,1.225,2.438,2.412,5.563c1.186,3.121,2.029,5.697,1.884,5.748
							c-0.145,0.053-1.226-2.439-2.411-5.561C193.619,350.012,192.775,347.439,192.921,347.387z"/>
					</g>
				</g>
			</g>
			<g>
				<g>
					<g>
						<path style="fill:#CE9C63;" d="M190.581,359.93c-0.011-0.037,0.182-0.127,0.532-0.266c0.337-0.143,0.896-0.301,1.326-0.713
							c0.216-0.207,0.301-0.508,0.316-0.838c-0.054-0.357-0.148-0.758-0.263-1.188c-0.236-0.848-0.52-1.781-0.869-2.74
							c-0.332-0.965-0.714-1.855-1.097-2.641c-0.196-0.373-0.421-0.756-0.617-1.023c-0.202-0.24-0.537-0.311-0.841-0.326
							c-0.628-0.012-1.163,0.148-1.529,0.219c-0.368,0.084-0.585,0.103-0.593,0.066c-0.008-0.037,0.178-0.125,0.529-0.273
							c0.354-0.135,0.865-0.363,1.593-0.408c0.351-0.008,0.825,0.041,1.174,0.398c0.293,0.35,0.507,0.703,0.74,1.105
							c0.425,0.805,0.831,1.715,1.169,2.695c0.355,0.977,0.628,1.926,0.842,2.803c0.102,0.438,0.188,0.867,0.227,1.299
							c-0.027,0.459-0.204,0.891-0.509,1.139c-0.597,0.479-1.173,0.545-1.536,0.635C190.802,359.949,190.591,359.967,190.581,359.93
							z"/>
					</g>
				</g>
			</g>
			<g>
				<g>
					<g>
						<path style="fill:#CE9C63;" d="M203.114,355.635c0.015,0.035-0.161,0.154-0.499,0.334c-0.341,0.16-0.831,0.479-1.603,0.477
							c-0.396,0.004-0.808-0.234-1.112-0.574c-0.245-0.354-0.457-0.736-0.668-1.135c-0.414-0.807-0.837-1.707-1.213-2.684
							c-0.393-0.967-0.685-1.926-0.886-2.82c-0.091-0.457-0.145-0.879-0.151-1.33c0.035-0.502,0.373-0.848,0.649-1.065
							c0.593-0.434,1.138-0.58,1.499-0.701c0.367-0.109,0.568-0.16,0.585-0.125c0.018,0.035-0.164,0.156-0.504,0.326
							c-0.33,0.178-0.849,0.395-1.328,0.805c-0.226,0.207-0.441,0.477-0.439,0.791c0.028,0.34,0.091,0.773,0.191,1.188
							c0.219,0.848,0.517,1.777,0.903,2.729c0.369,0.957,0.773,1.852,1.152,2.654c0.196,0.4,0.386,0.771,0.577,1.086
							c0.221,0.252,0.475,0.441,0.775,0.461c0.596,0.055,1.133-0.182,1.486-0.283C202.892,355.652,203.099,355.598,203.114,355.635z
							"/>
					</g>
				</g>
			</g>
			<g>
				<g>
					<g>
						<path style="fill:#34587C;" d="M224.063,299.498c0.049-0.023,0.354,0.537,0.891,1.627c0.537,1.088,1.306,2.705,2.281,4.797
							c1.891,4.209,4.46,10.369,7.433,18.057c0.727,1.928,1.49,3.945,2.285,6.049c0.797,2.121,1.582,4.285,2.517,6.52
							c0.91,2.246,1.837,4.582,2.694,7.035c0.837,2.461,1.688,5,2.092,7.811c0.084,0.707,0.145,1.434,0.066,2.217
							c-0.032,0.387-0.124,0.803-0.31,1.227c-0.086,0.197-0.262,0.459-0.378,0.594l-0.364,0.406
							c-0.951,1.113-2.073,2.033-3.205,2.955c-2.312,1.773-4.846,3.289-7.485,4.691c-5.29,2.787-11.016,5.115-16.989,7.143
							c-5.979,2.012-11.929,3.65-17.799,4.742c-2.938,0.531-5.851,0.959-8.793,0.953c-0.365,0.012-0.737-0.018-1.108-0.041
							c-0.368-0.016-0.74-0.049-1.117-0.121l-0.562-0.088l-0.573-0.166c-0.376-0.08-0.772-0.311-1.151-0.525
							c-0.701-0.531-1.13-1.135-1.552-1.721c-0.41-0.594-0.772-1.195-1.119-1.797c-2.667-4.846-4.58-9.666-6.34-14.178
							c-1.757-4.518-3.487-8.688-4.801-12.596c-0.685-1.943-1.338-3.795-1.956-5.545c-0.605-1.754-1.13-3.422-1.642-4.977
							c-1.01-3.109-1.88-5.787-2.591-7.976c-0.707-2.19-1.245-3.895-1.593-5.057c-0.348-1.162-0.506-1.781-0.456-1.799
							c0.051-0.02,0.308,0.564,0.752,1.693c0.444,1.129,1.074,2.803,1.871,4.965c0.802,2.16,1.753,4.811,2.841,7.893
							c0.547,1.539,1.133,3.186,1.754,4.932c0.648,1.732,1.334,3.566,2.054,5.49c1.375,3.873,3.16,8.008,4.963,12.49
							c1.804,4.475,3.77,9.275,6.388,13.949c0.335,0.574,0.685,1.143,1.062,1.68c0.375,0.527,0.791,1.051,1.206,1.355
							c0.88,0.525,2.341,0.642,3.68,0.652c2.759-0.008,5.626-0.434,8.505-0.965c5.767-1.096,11.662-2.727,17.577-4.719
							c5.91-2.006,11.58-4.301,16.777-7.016c2.591-1.365,5.07-2.838,7.289-4.523c1.079-0.867,2.152-1.738,3.018-2.746l0.336-0.367
							c0.104-0.129,0.122-0.164,0.182-0.277c0.089-0.211,0.167-0.473,0.189-0.773c0.065-0.588,0.024-1.236-0.049-1.877
							c-0.35-2.59-1.162-5.123-1.964-7.543c-0.821-2.424-1.717-4.752-2.598-7.002c-0.438-1.127-0.887-2.23-1.284-3.352
							c-0.395-1.098-0.782-2.176-1.162-3.232c-0.76-2.113-1.491-4.141-2.188-6.076c-2.836-7.725-5.244-13.934-6.959-18.205
							c-0.888-2.121-1.565-3.775-2.01-4.904C224.224,300.125,224.014,299.521,224.063,299.498z"/>
					</g>
				</g>
			</g>
		</g>
		<path id="SVGID_x5F_1_x5F_" style="fill:none;" d="M176.162,317.936l9.433,25.153"/>
		<text style="opacity:0.5;">		<textPath  xlink:href="#SVGID_x5F_1_x5F_" startOffset="17.188%">
<tspan  style="fill:#2A6687; font-family:'Vanilla'; font-size:4.1923px;">ter Jack</tspan>		</textPath>
</text>
		<path id="SVGID_x5F_00000085933166735746329940000009934752944912868784_x5F_" style="fill:none;" d="M184.19,315.832
			l7.723,22.977"/>
		<text style="opacity:0.5;">		<textPath  xlink:href="#SVGID_x5F_00000085933166735746329940000009934752944912868784_x5F_" startOffset="24.219%">
<tspan  style="fill:#2A6687; font-family:'Vanilla'; font-size:4.2386px;">02 / 18</tspan>		</textPath>
</text>
		<path id="SVGID_x5F_00000072974108402510273010000007570225482902806187_x5F_" style="fill:none;" d="M195.74,312.831
			l16.485,44.825"/>
		<text style="opacity:0.5;">		<textPath  xlink:href="#SVGID_x5F_00000072974108402510273010000007570225482902806187_x5F_" startOffset="9.473%">
<tspan  style="fill:#2A6687; font-family:'Vanilla'; font-size:6.4664px;">2820  4300</tspan>		</textPath>
</text>
		<path style="fill:#50608E;" d="M214.37,229.221c5.438,21.122,15.785,57.969,13.835,64.258c-0.211,0.66-0.604,1.361-1.172,2.08
			c-0.836,1.068-2.037,2.168-3.496,3.289c-6.304,4.818-17.534,9.861-25.981,12.553c-0.376,0.121-0.765,0.246-1.141,0.365
			c-10.596,3.33-20.811,6.082-27.771,7.768c-2.289,0.328-4.413,0.527-6.259,0.484c-2.315-0.025-4.171-0.369-5.356-1.152
			c-0.057-0.033-0.112-0.07-0.166-0.105c-5.637-4.123-22.034-36.215-31.112-55.828c-11.057-23.901-31.272-71.989-40.571-98.054
			c-1.566-4.39-1.67-7.737-0.428-10.527c0.7-1.564,1.825-2.957,3.337-4.279c0.14-0.121,0.28-0.24,0.418-0.36
			c0.021-0.02,0.046-0.029,0.078-0.055c2.051-1.499,4.761-3.11,7.822-4.719c0.07-0.04,0.131-0.062,0.19-0.095
			c0.284-0.145,0.563-0.3,0.848-0.443c11.153-5.726,26.268-11.438,31.277-13.227c5.136-1.511,19.905-7.015,31.333-10.128
			c2.637-0.718,4.916-1.069,6.919-1.1c0.309,0.003,0.612-0.008,0.911,0.01c1.68,0.044,3.14,0.334,4.441,0.848
			c1.095,0.406,2.069,0.981,2.95,1.688c1.508,1.21,2.74,2.783,3.807,4.639c0.453,0.916,0.904,1.942,1.36,3.066
			C190.529,154.555,207.802,203.72,214.37,229.221z"/>
		<path style="fill:#434D70;" d="M206.449,175.672c13.175,39.557,20.903,70.347,27.982,103.24
			c2.855,13.297-0.407,24.721-7.397,16.647c0.568-0.719,0.961-1.42,1.172-2.08c1.95-6.289-8.397-43.136-13.835-64.258
			c-6.568-25.501-23.841-74.666-33.929-99.025c-0.456-1.124-0.907-2.15-1.36-3.066c-1.066-1.855-2.299-3.429-3.807-4.639
			c3.033-3.332,8.809-5.561,10.879-1.085C192.11,134.183,202.113,162.653,206.449,175.672z"/>
		<path style="opacity:0.9;fill:#97B1D1;" d="M172.325,120.803c-1.302-0.514-2.762-0.803-4.441-0.848
			c-0.146-0.018-0.299-0.018-0.448-0.006c-0.153-0.001-0.309-0.003-0.462-0.004c-2.003,0.03-4.282,0.381-6.919,1.1
			c-11.428,3.112-26.197,8.617-31.333,10.128c-1.314,0.469-3.327,1.215-5.789,2.15c-0.466,0.18-0.946,0.366-1.438,0.554
			c-6.841,2.652-16.382,6.586-24.05,10.523c-0.285,0.144-0.564,0.298-0.848,0.443c-0.059,0.033-0.12,0.056-0.19,0.095
			c-3.061,1.609-5.771,3.22-7.822,4.719c-0.032,0.026-0.057,0.035-0.078,0.055c-0.138,0.12-0.278,0.239-0.418,0.36
			c-3.649-7.254-8.105-17.392-8.119-22.014c0.002-1.72,0.4-3.191,1.095-4.459c1.276-2.342,3.514-4.021,5.909-5.378
			c2.25-1.293,4.641-2.313,6.464-3.354c13.165-7.493,38.229-16.895,52.879-20.262c1.964-0.449,8.109-1.916,12.955-0.987
			c2.592,0.488,4.821,1.677,5.841,4.066C170.24,109.749,171.985,116.718,172.325,120.803z"/>
		<path style="fill:#83A5C6;" d="M155.011,212.22c0,0,2.128,5.966,3.506,8.796c0.827,1.696,3.07,2.923,6.529,1.515
			c0,0,4.902-1.486,3.629-5.313c-0.601-1.802-2.323-6.51-3.233-8.807c-1.427-3.595-2.514-6.267-7.985-4.053
			C157.415,204.374,152.469,205.613,155.011,212.22z"/>
		<path style="opacity:0.3;fill:#97B1D1;" d="M202.288,209.07c-4.032,6.331-9.834,7.701-19.532,11.86
			c-5.152,2.21-12.785,5.392-18.07,7.146c-6.715,2.229-20.456,7.047-27.413,8.38c-6.367,1.22-9.011,2.417-15.389,0.947
			c-3.664-0.845-8.301-6.158-11.312-8.197c5.309,12.452,11.27,25.283,15.177,33.726c9.079,19.613,25.475,51.705,31.112,55.828
			c0.054,0.035,0.109,0.072,0.166,0.105c1.185,0.783,3.042,1.127,5.356,1.152c1.846,0.043,3.97-0.156,6.259-0.484
			c6.96-1.686,17.176-4.438,27.771-7.768c0.377-0.119,0.766-0.244,1.141-0.365c8.448-2.691,19.677-7.734,25.981-12.553
			c1.459-1.121,2.66-2.221,3.496-3.289c0.568-0.719,0.961-1.42,1.172-2.08c1.95-6.289-8.397-43.136-13.835-64.258
			c-1.932-7.497-6.957-23.364-10.283-33.723C206.034,198.996,203.161,207.699,202.288,209.07z"/>
		<path style="fill:#C2E0A0;" d="M168.89,130.385c2.446,1.52,3.449,5.257,3.449,5.257l15.409,40.355c0,0,1.236,3.366,0.482,5.419
			c-0.887,2.413-3.101,3.952-4.604,4.73c-15.347,7.92-45.638,17.712-59.202,21.642c-1.981,0.575-5.624,1.979-8.176,1.16
			c-3.354-1.075-4.43-4.942-4.43-4.942l-16.107-40.324c0,0-1.714-3.067-0.688-5.986c0.982-2.796,2.825-4.027,4.153-4.685
			c15.988-7.917,45.838-19.264,63.524-23.242C164.306,129.407,166.418,128.85,168.89,130.385z"/>
		<path style="fill:#9EBA7F;" d="M186.762,173.773c-2.024,2.482-4.236,3.908-7.328,4.805c-9.257,2.692-19.168,2.629-28.303,5.754
			c-13.678,4.673-25.505,18.623-40.545,16.586l1.232,3.087c0,0,1.076,3.867,4.43,4.942c2.552,0.819,6.195-0.585,8.176-1.16
			c13.564-3.93,43.855-13.722,59.202-21.642c1.503-0.777,3.717-2.317,4.604-4.73c0.754-2.053-0.482-5.419-0.482-5.419l-0.893-2.341
			C186.822,173.692,186.792,173.737,186.762,173.773z"/>
		<path style="fill:#9EBA7F;" d="M96.282,165.111c2.314,1.621,13.529-2.206,22.841-7.45c8.057-4.537,19.011-9.404,31.245-11.845
			c9.835-1.962,22.808-4.641,22.757-8.118c-0.008-0.551-0.786-2.057-0.786-2.057s-1.003-3.737-3.449-5.257
			c-2.472-1.535-4.583-0.978-6.189-0.616c-17.686,3.978-47.536,15.326-63.524,23.242c-1.328,0.658-3.171,1.889-4.153,4.685
			c-1.026,2.919,0.688,5.986,0.688,5.986S95.967,164.89,96.282,165.111z"/>
		<path style="fill:#97B1D1;" d="M154.391,211.215c0,0,2.13,5.969,3.49,8.803c0.816,1.701,2.977,2.958,6.254,1.615
			c0,0,4.656-1.399,3.378-5.225c-0.603-1.802-2.323-6.51-3.23-8.808c-1.42-3.598-2.499-6.273-7.687-4.16
			C156.557,203.456,151.859,204.606,154.391,211.215z"/>
		<path style="fill:#434D70;" d="M156.862,318.76c-0.507,11.355-7.242,3.994-14.302-8.709
			c-15.579-27.992-27.657-51.404-44.146-89.787c-5.412-12.599-19.083-49.573-19.345-58.798c-0.157-5.481,1.688-7.061,5.682-7.116
			c-1.242,2.79-1.138,6.137,0.428,10.527c9.298,26.065,29.514,74.153,40.571,98.054C134.828,282.545,151.225,314.637,156.862,318.76
			z"/>
		<path style="fill:#F8F8F8;" d="M167.883,119.956c-0.157-0.013-0.299-0.018-0.448-0.006c-0.153-0.001-0.309-0.003-0.462-0.004
			c-2.003,0.03-4.282,0.381-6.919,1.1c-11.428,3.112-26.197,8.617-31.333,10.128c-1.314,0.469-3.327,1.215-5.789,2.15
			c-0.466,0.18-0.946,0.366-1.438,0.554c-6.841,2.652-16.382,6.586-24.05,10.523c-2.972-7.857-6.585-16.536-10.471-26.178
			c-2.551-6.289-5.22-12.984-7.904-20.12c-4.043-10.705-16.204-39.193-20.565-43.924c-1.31-1.419,1.148-2.59,5.019-5.299
			c11.213-7.83,39.094-19.291,48.582-22.321c7.997-2.544,15.577-5.293,19.002-2.007c7.083,6.793,16.924,37.736,21.592,50.077
			c2.728,7.217,4.588,13.464,6.573,18.991C162.714,103.152,165.298,110.981,167.883,119.956z"/>
		<path style="fill:#D7D9DB;" d="M86.972,118.221c-2.395,1.357-4.633,3.037-5.909,5.378c-6.589-16.549-20.015-46.818-22.856-60.467
			c-0.703-3.343-0.863-7.958-0.282-8.706c2.107-2.718,17.334,33.585,21.144,43.675C81.752,105.236,84.421,111.931,86.972,118.221z"
			/>
		<path style="fill:#434D70;" d="M156.457,207.945c0.021,0.774,2.533,2.055,3.237,1.729c0.787-0.365,1.89-2.899,1.281-3.514
			C160.231,205.411,156.427,206.892,156.457,207.945z"/>
		<path style="fill:#434D70;" d="M160.194,218.422c-0.473-0.614,0.662-3.195,1.412-3.387c0.841-0.215,3.299,1.048,3.216,1.911
			C164.721,217.996,160.837,219.257,160.194,218.422z"/>
		<g>
			<path style="fill:#50608E;" d="M136.765,247.122c-2.778,0.926-9.264,3.42-6.497,9.54c0.905,2,4.249,4.074,11.093,1.051
				c2.197-0.969,6.112-3.111,4.49-7.657C145.039,247.782,141.762,245.457,136.765,247.122z"/>
			<path style="fill:#434D70;" d="M136.012,245.992c-2.778,0.928-9.263,3.42-6.498,9.543c0.904,1.998,4.251,4.072,11.092,1.049
				c2.199-0.971,6.113-3.11,4.491-7.657C144.285,246.652,141.01,244.326,136.012,245.992z"/>
			<path id="SVGID_x5F_00000127027661754693462210000017885297164565373065_x5F_" style="fill:none;" d="M135.139,254.314
				l6.044-2.158"/>
			<text style="fill:#97B1D1; font-family:'Vanilla'; font-size:5.9237px;">			<textPath  xlink:href="#SVGID_x5F_00000127027661754693462210000017885297164565373065_x5F_" startOffset="0%">
1			</textPath>
</text>
		</g>
		<g>
			<path style="fill:#50608E;" d="M157.855,239.598c-2.778,0.928-9.263,3.422-6.497,9.54c0.905,2.003,4.25,4.076,11.092,1.053
				c2.198-0.97,6.113-3.111,4.49-7.657C166.129,240.258,162.854,237.932,157.855,239.598z"/>
			<path style="fill:#434D70;" d="M157.105,238.469c-2.78,0.927-9.264,3.421-6.499,9.538c0.904,2.004,4.25,4.077,11.093,1.054
				c2.198-0.971,6.112-3.11,4.49-7.657C165.378,239.129,162.102,236.802,157.105,238.469z"/>
			<path id="SVGID_x5F_00000170997528818203784270000004453532331096955267_x5F_" style="fill:none;" d="M156.227,246.789
				l6.047-2.156"/>
			<text style="fill:#97B1D1; font-family:'Vanilla'; font-size:5.9237px;">			<textPath  xlink:href="#SVGID_x5F_00000170997528818203784270000004453532331096955267_x5F_" startOffset="0%">
2			</textPath>
</text>
		</g>
		<g>
			<path style="fill:#50608E;" d="M178.948,232.075c-2.779,0.926-9.264,3.421-6.497,9.54c0.905,2.003,4.25,4.074,11.093,1.052
				c2.197-0.97,6.112-3.111,4.489-7.659C187.221,232.733,183.945,230.408,178.948,232.075z"/>
			<path style="fill:#434D70;" d="M178.195,230.943c-2.779,0.929-9.264,3.423-6.498,9.543c0.905,2.001,4.249,4.076,11.092,1.052
				c2.198-0.971,6.113-3.111,4.489-7.659C186.468,231.604,183.192,229.278,178.195,230.943z"/>
			<path id="SVGID_x5F_00000122711145059887871470000003551795559354805673_x5F_" style="fill:none;" d="M177.32,239.265
				l6.044-2.156"/>
			<text style="fill:#97B1D1; font-family:'Vanilla'; font-size:5.9237px;">			<textPath  xlink:href="#SVGID_x5F_00000122711145059887871470000003551795559354805673_x5F_" startOffset="0%">
3			</textPath>
</text>
		</g>
		<g>
			<path style="fill:#50608E;" d="M198.434,225.072c-2.674,0.889-8.911,3.288-6.249,9.176c0.869,1.922,4.087,3.921,10.668,1.009
				c2.113-0.933,5.878-2.993,4.318-7.365C206.391,225.704,203.239,223.466,198.434,225.072z"/>
			<path style="fill:#434D70;" d="M197.709,223.983c-2.672,0.894-8.909,3.292-6.249,9.178c0.87,1.924,4.087,3.92,10.668,1.01
				c2.115-0.933,5.879-2.992,4.319-7.366C205.667,224.617,202.517,222.383,197.709,223.983z"/>
		</g>
		<g>
			<path style="fill:#50608E;" d="M143.761,262.813c-2.779,0.928-9.263,3.42-6.497,9.541c0.903,2.002,4.25,4.074,11.092,1.051
				c2.198-0.969,6.112-3.109,4.489-7.658C152.035,263.473,148.76,261.146,143.761,262.813z"/>
			<path style="fill:#434D70;" d="M143.009,261.682c-2.779,0.93-9.264,3.424-6.497,9.543c0.904,2,4.248,4.074,11.092,1.051
				c2.197-0.971,6.111-3.113,4.489-7.658C151.283,262.342,148.005,260.016,143.009,261.682z"/>
			<path id="SVGID_x5F_00000106854267396284385190000013741209731066929282_x5F_" style="fill:none;" d="M138.311,271.203
				l12.709-4.531"/>
			<text style="fill:#97B1D1; font-family:'Vanilla'; font-size:5.9237px;">			<textPath  xlink:href="#SVGID_x5F_00000106854267396284385190000013741209731066929282_x5F_" startOffset="0%">
4			</textPath>
</text>
		</g>
		<g>
			<path style="fill:#50608E;" d="M163.613,255.732c-2.779,0.928-9.263,3.42-6.498,9.539c0.905,2.002,4.249,4.074,11.091,1.053
				c2.2-0.971,6.113-3.113,4.491-7.66C171.885,256.391,168.61,254.064,163.613,255.732z"/>
			<path style="fill:#434D70;" d="M162.86,254.604c-2.779,0.926-9.265,3.418-6.498,9.539c0.904,2,4.251,4.074,11.092,1.051
				c2.198-0.973,6.112-3.111,4.49-7.658C171.133,255.262,167.856,252.936,162.86,254.604z"/>
			<path id="SVGID_x5F_00000023969143511406821660000002850983486116281736_x5F_" style="fill:none;" d="M161.985,262.922
				l6.043-2.156"/>
			<text style="fill:#97B1D1; font-family:'Vanilla'; font-size:5.9237px;">			<textPath  xlink:href="#SVGID_x5F_00000023969143511406821660000002850983486116281736_x5F_" startOffset="0%">
5			</textPath>
</text>
		</g>
		<g>
			<path style="fill:#50608E;" d="M183.462,248.651c-2.778,0.929-9.264,3.422-6.497,9.538c0.905,2.002,4.249,4.076,11.092,1.051
				c2.197-0.969,6.112-3.111,4.49-7.654C191.736,249.313,188.46,246.988,183.462,248.651z"/>
			<path style="fill:#434D70;" d="M182.711,247.526c-2.779,0.925-9.264,3.418-6.498,9.536c0.903,1.998,4.249,4.074,11.091,1.051
				c2.198-0.971,6.113-3.111,4.491-7.656C190.984,248.183,187.708,245.857,182.711,247.526z"/>
			<path id="SVGID_x5F_00000031186427074845283550000014717458207764652942_x5F_" style="fill:none;" d="M181.834,255.84
				l6.047-2.154"/>
			<text style="fill:#97B1D1; font-family:'Vanilla'; font-size:5.9237px;">			<textPath  xlink:href="#SVGID_x5F_00000031186427074845283550000014717458207764652942_x5F_" startOffset="0%">
6			</textPath>
</text>
		</g>
		<g>
			<path style="fill:#ED3547;" d="M203.946,241.257c-2.602,0.869-8.674,3.204-6.084,8.93c0.846,1.874,3.978,3.814,10.385,0.986
				c2.059-0.911,5.725-2.913,4.205-7.169C211.693,241.874,208.624,239.698,203.946,241.257z"/>
			<path style="fill:#F9555E;" d="M203.242,240.201c-2.602,0.869-8.673,3.203-6.085,8.931c0.848,1.873,3.978,3.814,10.384,0.983
				c2.059-0.906,5.724-2.911,4.206-7.167C210.987,240.817,207.92,238.641,203.242,240.201z"/>
		</g>
		<g>
			<path style="fill:#50608E;" d="M152.442,279.305c-2.779,0.928-9.264,3.422-6.498,9.541c0.905,2.002,4.25,4.076,11.092,1.051
				c2.199-0.971,6.113-3.109,4.49-7.658C160.715,279.967,157.439,277.637,152.442,279.305z"/>
			<path style="fill:#434D70;" d="M151.69,278.176c-2.778,0.928-9.264,3.422-6.498,9.541c0.905,2,4.251,4.076,11.092,1.053
				c2.197-0.973,6.111-3.111,4.49-7.66C159.962,278.834,156.686,276.508,151.69,278.176z"/>
			<path id="SVGID_x5F_00000023263082672509058740000013028599507226046091_x5F_" style="fill:none;" d="M150.814,286.498
				l6.044-2.158"/>
			<text style="fill:#97B1D1; font-family:'Vanilla'; font-size:5.9237px;">			<textPath  xlink:href="#SVGID_x5F_00000023263082672509058740000013028599507226046091_x5F_" startOffset="0%">
7			</textPath>
</text>
		</g>
		<g>
			<path style="fill:#50608E;" d="M171.052,272.666c-2.779,0.926-9.264,3.422-6.498,9.541c0.905,2.002,4.251,4.078,11.093,1.053
				c2.198-0.971,6.112-3.113,4.491-7.658C179.325,273.326,176.048,271,171.052,272.666z"/>
			<path style="fill:#434D70;" d="M170.3,271.537c-2.777,0.928-9.264,3.422-6.498,9.541c0.905,2.002,4.249,4.074,11.091,1.051
				c2.198-0.973,6.113-3.111,4.491-7.658C178.573,272.197,175.296,269.871,170.3,271.537z"/>
			<path id="SVGID_x5F_00000168830367828674883050000014916999202786561463_x5F_" style="fill:none;" d="M169.427,279.857
				l6.041-2.156"/>
			<text style="fill:#97B1D1; font-family:'Vanilla'; font-size:5.9237px;">			<textPath  xlink:href="#SVGID_x5F_00000168830367828674883050000014916999202786561463_x5F_" startOffset="0%">
8			</textPath>
</text>
		</g>
		<g>
			<path style="fill:#50608E;" d="M189.662,266.027c-2.779,0.926-9.265,3.422-6.498,9.539c0.905,2.002,4.249,4.076,11.093,1.053
				c2.198-0.971,6.112-3.109,4.49-7.656C197.935,266.686,194.659,264.361,189.662,266.027z"/>
			<path style="fill:#434D70;" d="M188.91,264.896c-2.778,0.93-9.264,3.42-6.498,9.543c0.904,2.002,4.25,4.076,11.091,1.053
				c2.198-0.973,6.113-3.113,4.491-7.658C197.182,265.559,193.907,263.232,188.91,264.896z"/>
			<path id="SVGID_x5F_00000160884873353112329580000013465052245563892380_x5F_" style="fill:none;" d="M188.035,273.221
				l6.045-2.156"/>
			<text style="fill:#97B1D1; font-family:'Vanilla'; font-size:5.9237px;">			<textPath  xlink:href="#SVGID_x5F_00000160884873353112329580000013465052245563892380_x5F_" startOffset="0%">
9			</textPath>
</text>
		</g>
		<g>
			<path style="fill:#EDD777;" d="M209.377,258.602c-2.462,0.818-8.205,3.029-5.755,8.447c0.801,1.773,3.765,3.609,9.823,0.934
				c1.947-0.861,5.413-2.756,3.976-6.783C216.703,259.186,213.801,257.123,209.377,258.602z"/>
			<path style="fill:#FFEB8B;" d="M208.71,257.6c-2.461,0.822-8.204,3.029-5.753,8.449c0.8,1.771,3.763,3.609,9.823,0.932
				c1.946-0.859,5.413-2.754,3.976-6.781C216.038,258.186,213.136,256.125,208.71,257.6z"/>
		</g>
		<g>
			<path style="fill:#50608E;" d="M159.881,296.24c-2.779,0.928-9.264,3.42-6.496,9.541c0.902,2,4.249,4.076,11.09,1.051
				c2.198-0.971,6.112-3.111,4.49-7.658C168.155,296.9,164.879,294.574,159.881,296.24z"/>
			<path style="fill:#434D70;" d="M159.129,295.109c-2.779,0.93-9.263,3.42-6.498,9.543c0.905,2,4.25,4.076,11.092,1.051
				c2.198-0.973,6.113-3.113,4.49-7.66C167.403,295.771,164.126,293.445,159.129,295.109z"/>
			<path id="SVGID_x5F_00000027604324373434889140000001719873673508466596_x5F_" style="fill:none;" d="M158.257,303.434
				l6.042-2.156"/>
			<text style="fill:#97B1D1; font-family:'Vanilla'; font-size:5.9237px;">			<textPath  xlink:href="#SVGID_x5F_00000027604324373434889140000001719873673508466596_x5F_" startOffset="0%">
*			</textPath>
</text>
		</g>
		<g>
			<path style="fill:#50608E;" d="M178.492,289.602c-2.779,0.926-9.263,3.42-6.498,9.541c0.904,2,4.25,4.076,11.092,1.051
				c2.198-0.973,6.113-3.111,4.491-7.66C186.765,290.262,183.489,287.934,178.492,289.602z"/>
			<path style="fill:#434D70;" d="M177.739,288.473c-2.779,0.928-9.263,3.42-6.497,9.541c0.904,2,4.249,4.074,11.091,1.051
				c2.199-0.971,6.114-3.111,4.491-7.658C186.012,289.133,182.736,286.807,177.739,288.473z"/>
			<path id="SVGID_x5F_00000037678576023610830160000008321433405821261462_x5F_" style="fill:none;" d="M176.863,296.795
				l6.046-2.158"/>
			<text style="fill:#97B1D1; font-family:'Vanilla'; font-size:5.9237px;">			<textPath  xlink:href="#SVGID_x5F_00000037678576023610830160000008321433405821261462_x5F_" startOffset="0%">
0			</textPath>
</text>
		</g>
		<g>
			<path style="fill:#50608E;" d="M197.102,282.963c-2.78,0.928-9.264,3.42-6.497,9.541c0.903,2,4.249,4.076,11.09,1.053
				c2.199-0.973,6.112-3.113,4.49-7.66C205.374,283.623,202.099,281.295,197.102,282.963z"/>
			<path style="fill:#434D70;" d="M196.35,281.834c-2.779,0.926-9.264,3.42-6.498,9.539c0.904,2.002,4.25,4.078,11.093,1.051
				c2.197-0.969,6.112-3.109,4.489-7.656C204.624,282.492,201.346,280.166,196.35,281.834z"/>
			<path id="SVGID_x5F_00000116217973703353046390000010175674913999445910_x5F_" style="fill:none;" d="M192.345,288.482
				l10.773-3.842"/>
			<text>			<textPath  xlink:href="#SVGID_x5F_00000116217973703353046390000010175674913999445910_x5F_" startOffset="0%">
<tspan  style="fill:#97B1D1; font-family:'Vanilla'; font-size:9.3855px;">._,</tspan>			</textPath>
</text>
		</g>
		<g>
			<path style="fill:#76D376;" d="M215.661,275.768c-2.567,0.855-8.558,3.158-6.002,8.813c0.835,1.85,3.925,3.766,10.247,0.973
				c2.029-0.898,5.645-2.875,4.147-7.074C223.302,276.379,220.276,274.228,215.661,275.768z"/>
			<path style="fill:#85EF89;" d="M214.966,274.725c-2.568,0.855-8.557,3.162-6.002,8.813c0.836,1.85,3.926,3.768,10.246,0.971
				c2.031-0.896,5.646-2.871,4.147-7.072C222.607,275.336,219.582,273.186,214.966,274.725z"/>
		</g>
		<path id="SVGID_x5F_00000021834112371446999660000010252089408904619137_x5F_" style="fill:none;" d="M194.817,232.703
			l8.525-3.042"/>
		<text style="fill:#97B1D1; font-family:'Vanilla'; font-size:5.9237px;">		<textPath  xlink:href="#SVGID_x5F_00000021834112371446999660000010252089408904619137_x5F_" startOffset="0.781%">
f		</textPath>
</text>
		<g>
			<path style="fill:#83A5C6;" d="M138.372,212.767c-1.901,0.486-6.819,2.434-6.186,6.168c0.474,2.79,3.85,2.636,7.114,1.656
				c2.873-0.863,7.081-2.426,6.201-5.475C144.537,211.768,140.951,212.11,138.372,212.767z"/>
			<path style="fill:#97B1D1;" d="M137.929,211.526c-1.9,0.485-6.818,2.433-6.185,6.168c0.472,2.789,3.85,2.635,7.113,1.655
				c2.873-0.862,7.081-2.424,6.201-5.475C144.094,210.526,140.508,210.869,137.929,211.526z"/>
			<path id="SVGID_x5F_00000059308684192249814880000010759314097966973090_x5F_" style="fill:none;" d="M134.459,218.121
				l6.924-2.467"/>
			<text>			<textPath  xlink:href="#SVGID_x5F_00000059308684192249814880000010759314097966973090_x5F_" startOffset="0.781%">
<tspan  style="fill:#434D70; font-family:'Vanilla'; font-size:3.9498px;">f1</tspan>			</textPath>
</text>
		</g>
		<g>
			<path style="fill:#83A5C6;" d="M141.915,222.698c-1.901,0.484-6.819,2.432-6.185,6.167c0.473,2.791,3.849,2.636,7.112,1.656
				c2.873-0.862,7.081-2.425,6.202-5.474C148.08,221.697,144.494,222.04,141.915,222.698z"/>
			<path style="fill:#97B1D1;" d="M141.472,221.457c-1.901,0.484-6.819,2.433-6.187,6.167c0.473,2.791,3.85,2.637,7.114,1.657
				c2.873-0.863,7.081-2.424,6.202-5.475C147.637,220.456,144.05,220.799,141.472,221.457z"/>
			<path id="SVGID_x5F_00000152238543897150386880000015869207914870046129_x5F_" style="fill:none;" d="M138,228.053l6.925-2.47"/>
			<text>			<textPath  xlink:href="#SVGID_x5F_00000152238543897150386880000015869207914870046129_x5F_" startOffset="0.781%">
<tspan  style="fill:#434D70; font-family:'Vanilla'; font-size:3.9498px;">f2</tspan>			</textPath>
</text>
		</g>
		<g>
			<path style="fill:#83A5C6;" d="M178.073,198.604c-1.9,0.486-6.818,2.434-6.186,6.168c0.473,2.79,3.85,2.636,7.113,1.656
				c2.873-0.862,7.08-2.424,6.203-5.475C184.239,197.606,180.652,197.947,178.073,198.604z"/>
			<path style="fill:#97B1D1;" d="M177.631,197.364c-1.9,0.486-6.819,2.433-6.186,6.167c0.473,2.79,3.85,2.636,7.113,1.656
				c2.873-0.862,7.08-2.425,6.202-5.475C183.796,196.365,180.208,196.706,177.631,197.364z"/>
			<path id="SVGID_x5F_00000026137512056830592680000006442441142102472103_x5F_" style="fill:none;" d="M174.159,203.961
				l6.923-2.47"/>
			<text>			<textPath  xlink:href="#SVGID_x5F_00000026137512056830592680000006442441142102472103_x5F_" startOffset="0.781%">
<tspan  style="fill:#434D70; font-family:'Vanilla'; font-size:3.9498px;">f3</tspan>			</textPath>
</text>
		</g>
		<g>
			<path style="fill:#83A5C6;" d="M181.617,208.536c-1.902,0.485-6.819,2.433-6.188,6.167c0.473,2.789,3.851,2.636,7.115,1.656
				c2.873-0.863,7.079-2.425,6.201-5.475C187.781,207.536,184.194,207.878,181.617,208.536z"/>
			<path style="fill:#97B1D1;" d="M181.173,207.293c-1.901,0.485-6.82,2.434-6.186,6.168c0.473,2.79,3.851,2.636,7.115,1.656
				c2.872-0.862,7.079-2.424,6.2-5.475C187.337,206.294,183.751,206.637,181.173,207.293z"/>
			<path id="SVGID_x5F_00000134961862509260304800000009950084586082900156_x5F_" style="fill:none;" d="M177.703,213.89
				l6.921-2.469"/>
			<text>			<textPath  xlink:href="#SVGID_x5F_00000134961862509260304800000009950084586082900156_x5F_" startOffset="0.781%">
<tspan  style="fill:#434D70; font-family:'Vanilla'; font-size:3.9498px;">f4</tspan>			</textPath>
</text>
		</g>
		<path style="fill:#C3C3C3;" d="M72.466,54.788c0,0,26.374-13.252,43.682-18.611l1.271,2.575c0,0-23.982,8.207-43.648,18.716
			L72.466,54.788z"/>
		<path style="fill:#C3C3C3;" d="M119.365,34.87c0,0,5.657-2.558,12.705-4.025l1.062,2.649c0,0-4.517,1.38-12.783,4.189
			L119.365,34.87z"/>
		<path style="fill:#C3C3C3;" d="M84.858,89.527c0,0,30.884-14.649,48.193-20.007l1.27,2.575c0,0-28.493,9.6-48.158,20.11
			L84.858,89.527z"/>
		<path style="fill:#C3C3C3;" d="M137.998,67.872c0,0,2.507-1.301,6.464-2.286l1.061,2.649c0,0-2.938,1.112-6.562,2.226
			L137.998,67.872z"/>
		<path style="fill:#C3C3C3;" d="M89.285,101.933c0,0,30.884-14.648,48.193-20.006l1.27,2.575c0,0-28.493,9.602-48.158,20.111
			L89.285,101.933z"/>
		<path style="fill:#C3C3C3;" d="M142.425,80.278c0,0,2.505-1.301,6.463-2.287l1.062,2.649c0,0-2.938,1.111-6.562,2.226
			L142.425,80.278z"/>
		<path style="fill:#C3C3C3;" d="M93.268,113.1c0,0,30.883-14.648,48.193-20.007l1.269,2.575c0,0-28.492,9.602-48.158,20.111
			L93.268,113.1z"/>
		<path style="fill:#C3C3C3;" d="M146.408,91.444c0,0,2.506-1.302,6.464-2.287l1.061,2.65c0,0-2.939,1.111-6.563,2.226
			L146.408,91.444z"/>
		<path style="fill:#C3C3C3;" d="M97.693,125.506c0,0,30.885-14.647,48.193-20.006l1.27,2.574c0,0-28.493,9.602-48.158,20.111
			L97.693,125.506z"/>
		<path style="fill:#C3C3C3;" d="M150.833,103.851c0,0,2.506-1.302,6.465-2.288l1.062,2.65c0,0-2.939,1.111-6.564,2.226
			L150.833,103.851z"/>
		<path style="fill:#C3C3C3;" d="M79.609,72.859c0,0,39.206-18.763,58.959-23.828l0.884,2.48c0,0-38.872,13.516-58.536,24.026
			L79.609,72.859z"/>
		<g>
			<g>
				<g>
					<g>
						<path style="fill:#3D4F77;" d="M157.994,122.128c-0.023-0.096,0.885-0.414,2.628-0.953c0.87-0.274,1.952-0.6,3.24-0.97
							c1.296-0.345,2.785-0.786,4.563-1.011c1.738-0.227,3.939-0.233,5.98,0.932c1.995,1.197,3.471,3.203,4.717,5.385
							c1.243,2.208,2.235,4.687,3.308,7.257c1.064,2.585,2.217,5.309,3.368,8.191c4.595,11.532,9.749,25.382,15.156,40.877
							c5.356,15.501,11.123,32.641,15.81,51.037c2.391,9.138,4.762,18.064,6.913,26.729c2.127,8.676,4.149,17.049,5.433,25.244
							c0.298,2.061,0.567,4.094,0.594,6.217c-0.005,0.537-0.011,1.072-0.083,1.648c-0.057,0.567-0.226,1.233-0.473,1.785
							c-0.507,1.107-1.207,1.953-1.922,2.723c-1.454,1.51-3.041,2.699-4.637,3.789c-1.599,1.086-3.225,2.043-4.843,2.938
							c-6.495,3.529-12.852,6.098-18.803,8.045c-11.893,3.678-21.636,6.105-28.417,7.633c-1.693,0.383-3.204,0.703-4.52,0.951
							c-1.31,0.266-2.427,0.463-3.337,0.592c-0.901,0.147-1.603,0.227-2.085,0.23c-0.475,0.018-0.714,0.002-0.715-0.045
							c-0.001-0.049,0.235-0.129,0.687-0.24c0.451-0.096,1.118-0.262,2.002-0.5c0.884-0.217,1.974-0.498,3.262-0.848
							c1.29-0.334,2.774-0.734,4.443-1.199c6.668-1.844,16.335-4.563,28.055-8.453c5.785-2.021,12.028-4.67,18.294-8.191
							c1.558-0.889,3.118-1.836,4.621-2.885c1.499-1.049,2.97-2.193,4.195-3.498c0.599-0.65,1.139-1.357,1.44-2.051
							c0.142-0.352,0.221-0.652,0.261-1.072c0.05-0.41,0.052-0.867,0.051-1.33c-0.04-1.871-0.313-3.857-0.62-5.846
							c-1.321-7.99-3.389-16.344-5.544-24.971c-2.18-8.629-4.566-17.538-6.961-26.688c-4.66-18.291-10.327-35.383-15.542-50.909
							c-5.262-15.508-10.214-29.403-14.561-40.997c-1.112-2.888-2.172-5.638-3.174-8.239c-1.012-2.607-1.918-5.053-3.031-7.176
							c-1.115-2.107-2.413-3.938-4.033-4.991c-1.639-1.019-3.517-1.124-5.178-0.99c-1.674,0.127-3.176,0.478-4.475,0.735
							c-1.304,0.28-2.407,0.517-3.299,0.708C158.97,122.084,158.016,122.22,157.994,122.128z"/>
					</g>
				</g>
			</g>
			<g>
				<g>
					<g>
						<path style="fill:#3D4F77;" d="M97.452,144.424c0.045,0.092-0.783,0.584-2.359,1.494c-0.788,0.456-1.754,1.029-2.87,1.74
							c-0.557,0.355-1.133,0.769-1.759,1.194c-0.586,0.473-1.256,0.926-1.862,1.51c-1.249,1.116-2.518,2.523-3.255,4.351
							c-0.753,1.816-0.885,4.018-0.418,6.328c0.143,0.574,0.289,1.158,0.436,1.753c0.196,0.585,0.395,1.181,0.597,1.786
							c0.481,1.222,0.978,2.482,1.489,3.78c1.018,2.596,2.094,5.34,3.225,8.222c1.124,2.883,2.302,5.904,3.529,9.051
							c1.214,3.152,2.624,6.378,3.999,9.749c2.806,6.722,5.713,13.94,8.913,21.48c3.226,7.528,6.613,15.43,10.124,23.623
							c1.82,4.065,3.672,8.203,5.552,12.401c1.901,4.188,3.729,8.49,5.762,12.746c4.021,8.527,8.116,16.783,12.217,24.672
							c4.127,7.863,8.192,15.453,12.624,22.211c1.118,1.656,2.276,3.32,3.528,4.613c0.634,0.662,1.147,0.965,1.98,1.223
							c0.797,0.242,1.696,0.361,2.6,0.42c3.663,0.184,7.39-0.406,10.909-1.063c7.067-1.389,13.565-3.318,19.386-5.307
							c11.656-4.082,20.844-8.07,26.767-11.565c3-1.689,5.08-3.359,6.474-4.51c1.309-1.236,2.095-1.871,2.145-1.787
							c0.05,0.086-0.535,0.791-1.752,2.191c-1.293,1.307-3.328,3.166-6.288,5.029c-5.855,3.846-15.03,8.156-26.681,12.506
							c-5.862,2.135-12.38,4.195-19.597,5.719c-3.619,0.717-7.395,1.394-11.503,1.242c-1.03-0.059-2.086-0.174-3.178-0.49
							c-0.544-0.158-1.101-0.369-1.648-0.699c-0.543-0.324-1.006-0.738-1.391-1.119c-1.54-1.566-2.7-3.244-3.891-4.963
							c-4.615-6.91-8.726-14.484-12.914-22.381c-4.155-7.91-8.281-16.184-12.321-24.752c-2.045-4.281-3.869-8.588-5.769-12.793
							c-1.872-4.217-3.716-8.371-5.528-12.453c-3.464-8.227-6.806-16.162-9.989-23.721c-3.138-7.578-5.97-14.841-8.687-21.609
							c-1.331-3.396-2.69-6.643-3.855-9.826c-1.172-3.179-2.297-6.23-3.371-9.142c-1.067-2.913-2.084-5.688-3.046-8.312
							c-0.479-1.313-0.943-2.588-1.394-3.825c-0.196-0.648-0.39-1.286-0.58-1.914c-0.141-0.646-0.279-1.281-0.415-1.906
							c-0.438-2.525-0.218-5.082,0.732-7.136c0.932-2.068,2.402-3.538,3.773-4.651c0.674-0.588,1.389-1.02,2.025-1.476
							c0.667-0.402,1.285-0.79,1.875-1.114c1.182-0.649,2.202-1.147,3.037-1.526C96.504,144.664,97.413,144.343,97.452,144.424z"/>
					</g>
				</g>
			</g>
			<g>
				<g>
					<g>
						<path style="fill:#3D4F77;" d="M181.747,132.876c-0.203,0.086-0.953-1.559-2.52-4.332c-0.814-1.356-1.849-3.014-3.421-4.505
							c-0.766-0.768-1.728-1.393-2.781-1.953c-0.278-0.111-0.56-0.225-0.846-0.339l-0.429-0.174l-0.459-0.116
							c-0.307-0.079-0.617-0.159-0.932-0.24c-0.323-0.053-0.655-0.083-0.988-0.128c-2.674-0.317-5.73,0.132-8.899,1.048
							c-3.219,1.016-6.677,2.045-10.289,3.236c-7.212,2.466-15.143,5.177-23.467,8.023c-8.199,3.055-15.965,6.219-22.881,9.329
							c-1.714,0.807-3.386,1.593-5.01,2.357c-1.601,0.801-3.12,1.632-4.612,2.403c-0.76,0.37-1.449,0.803-2.121,1.233
							c-0.679,0.424-1.345,0.839-1.999,1.247c-1.367,0.774-2.415,1.689-3.319,2.668c-1.786,1.962-2.465,4.355-2.377,6.521
							c0.034,2.168,0.538,4.063,0.978,5.581c0.94,3.041,1.665,4.696,1.46,4.792c-0.143,0.071-1.195-1.403-2.487-4.428
							c-0.613-1.521-1.313-3.45-1.514-5.876c-0.274-2.385,0.394-5.457,2.436-7.876c0.991-1.188,2.232-2.32,3.583-3.149
							c0.669-0.451,1.351-0.91,2.046-1.379c0.693-0.475,1.404-0.952,2.162-1.349c1.5-0.833,3.04-1.729,4.654-2.584
							c1.632-0.811,3.311-1.645,5.033-2.5c6.951-3.282,14.709-6.528,23.015-9.622c2.113-0.806,4.175-1.466,6.208-2.121
							c2.036-0.647,4.039-1.348,6.009-2.004c3.93-1.342,7.772-2.55,11.415-3.722c3.662-1.133,7.187-2.091,10.474-3.021
							c3.37-0.863,6.718-1.261,9.777-0.767c0.38,0.068,0.757,0.123,1.126,0.202c0.363,0.111,0.722,0.221,1.076,0.329l0.526,0.164
							l0.497,0.228c0.327,0.153,0.65,0.304,0.968,0.453c1.208,0.717,2.271,1.519,3.074,2.432c1.652,1.79,2.584,3.627,3.28,5.109
							C181.507,131.058,181.9,132.813,181.747,132.876z"/>
					</g>
				</g>
			</g>
		</g>
		<g>
			<g>
				<g>
					<path style="fill:#C3C2C2;" d="M58.576,54.383c-0.056-0.003-0.116-0.319,0.087-0.831c0.191-0.513,0.626-1.198,1.31-1.936
						c1.365-1.488,3.674-3.218,6.669-5.054c5.999-3.675,14.747-7.819,24.618-11.829c9.866-4,18.987-7.135,25.695-9.093
						c3.354-0.978,6.108-1.657,8.051-1.99c1.932-0.361,3.101-0.248,3.079-0.062c-0.019,0.127-1.027,0.298-2.874,0.909
						c-1.842,0.584-4.5,1.486-7.769,2.649c-6.538,2.328-15.529,5.685-25.339,9.661c-9.815,3.987-18.588,7.87-24.672,11.127
						c-3.04,1.627-5.401,3.107-6.856,4.311c-0.73,0.599-1.222,1.129-1.514,1.518C58.759,54.151,58.673,54.403,58.576,54.383z"/>
				</g>
			</g>
		</g>
		<g>
			<g>
				<g>
					<path style="fill:#C3C2C2;" d="M129.545,23.767c0.03-0.135,1.564,0.379,3.329,2.426c1.777,2.001,3.817,5.276,5.873,9.506
						c4.215,8.444,8.188,20.785,13.287,34.048c2.461,6.678,4.806,13.041,6.94,18.83c1.081,2.888,1.988,5.695,2.884,8.295
						c0.432,1.307,0.886,2.555,1.25,3.782c0.357,1.229,0.699,2.408,1.026,3.533c1.349,4.492,2.171,8.183,2.766,10.732
						c0.576,2.552,0.823,3.982,0.674,4.023c-0.149,0.041-0.681-1.311-1.514-3.788c-0.851-2.469-1.908-6.103-3.438-10.494
						c-0.368-1.103-0.753-2.258-1.155-3.462c-0.404-1.202-0.898-2.432-1.365-3.717c-0.968-2.563-1.929-5.315-3.064-8.187
						c-2.221-5.753-4.635-12.086-7.108-18.777c-5.124-13.339-8.839-25.688-12.621-34.155c-1.842-4.251-3.621-7.55-5.116-9.626
						C130.72,24.628,129.463,23.925,129.545,23.767z"/>
				</g>
			</g>
		</g>
		<g>
			<g>
				<g>
					<path style="fill:#C3C2C2;" d="M57.956,54.606c-0.019-0.013,0.041-0.143,0.253-0.157c0.208-0.02,0.49,0.089,0.773,0.29
						c0.574,0.402,1.219,1.15,1.953,2.16c1.458,2.029,3.237,5.141,5.243,9.068c3.991,7.872,8.981,18.954,13.848,31.511
						c2.443,6.232,4.666,12.204,6.802,17.599c2.125,5.404,4.039,10.272,5.646,14.361c1.62,4.085,2.756,7.475,3.508,9.822
						c0.754,2.347,1.101,3.667,0.955,3.719c-0.146,0.052-0.77-1.168-1.771-3.412c-1-2.245-2.351-5.521-4.158-9.528
						c-1.771-4.015-3.833-8.828-6.093-14.186c-2.246-5.362-4.537-11.337-6.983-17.58c-4.829-12.459-9.585-23.636-13.18-31.617
						c-1.809-3.987-3.356-7.172-4.549-9.284c-0.6-1.05-1.109-1.842-1.516-2.29C58.278,54.593,58.01,54.664,57.956,54.606z"/>
				</g>
			</g>
		</g>
		<g>
			<path style="fill:#F9555E;" d="M234.21,343.063c-0.303,0.148-0.671,0.287-1.103,0.417c0.244,0.092,0.607,0.237,1.092,0.438
				c0.458,0.193,0.776,0.395,0.957,0.605c0.183,0.219,0.241,0.466,0.173,0.739c-0.068,0.275-0.238,0.462-0.512,0.56
				c-0.316,0.112-0.798,0.022-1.445-0.272c-0.619-0.283-1.312-0.59-2.079-0.924c-0.09,0.656-0.214,1.271-0.374,1.847
				c-0.256,0.917-0.531,1.392-0.828,1.425c-0.365,0.043-0.642,0.007-0.826-0.104c-0.225-0.105-0.346-0.24-0.363-0.402
				c-0.006-0.087,0.016-0.276,0.064-0.569c0.028-0.17,0.232-0.791,0.611-1.862c-0.064,0.023-0.384,0.149-0.958,0.378
				c-0.77,0.315-1.259,0.185-1.464-0.39c-0.109-0.309-0.08-0.578,0.088-0.81c0.15-0.215,0.391-0.359,0.719-0.438
				c0.254-0.058,0.773-0.203,1.559-0.434c-0.293-0.14-0.581-0.268-0.865-0.385c-0.324-0.135-0.688-0.346-1.089-0.631
				c-0.479-0.342-0.761-0.633-0.848-0.877c-0.069-0.194-0.056-0.418,0.04-0.671c0.069-0.17,0.168-0.278,0.298-0.325
				c0.137-0.048,0.316-0.035,0.536,0.04c0.749,0.259,1.701,0.762,2.858,1.507c0.192-1.049,0.44-1.967,0.742-2.755
				c0.119-0.302,0.287-0.491,0.502-0.567c0.087-0.031,0.171-0.045,0.253-0.042c0.359,0.01,0.614,0.223,0.763,0.64
				c0.139,0.388,0.109,0.831-0.085,1.33c-0.112,0.274-0.336,0.885-0.67,1.831c0.744-0.363,1.171-0.564,1.278-0.603
				c0.425-0.151,0.725-0.206,0.901-0.164c0.24,0.061,0.418,0.285,0.532,0.673C234.762,342.598,234.608,342.862,234.21,343.063z"/>
		</g>
	</g>
	<g>
		<g>
			<g>
				<path style="fill:#F7B5A3;" d="M341.902,308.704c0.014,0.146-0.191,0.321-0.509,0.48c-0.158,0.085-0.352,0.145-0.558,0.232
					c-0.202,0.105-0.426,0.205-0.667,0.293c-0.251,0.072-0.447,0.205-0.656,0.284c-0.201,0.088-0.415,0.139-0.546,0.22
					c-0.295,0.135-0.563,0.189-0.677,0.099c-0.114-0.091-0.045-0.335,0.205-0.685c0.119-0.193,0.309-0.321,0.521-0.479
					c0.217-0.146,0.453-0.333,0.739-0.419c0.281-0.105,0.554-0.191,0.804-0.253c0.255-0.047,0.497-0.038,0.694-0.031
					C341.65,308.468,341.889,308.558,341.902,308.704z"/>
			</g>
		</g>
	</g>
	
	<g>
		<g>
			<path style="fill:#ffffff;" d="M234.54,169.447l-5.667-5.247c0,0,23.91-36.767,67.066-21.434l-2.12,6.424
				C293.819,149.19,257.753,138.388,234.54,169.447z"/>
			<path style="fill:#ffffff;" d="M243.044,179.102l-5.115-4.428c0,0,21.071-31.767,55.529-18.572l-2.42,6.506
				C291.038,162.608,265.261,153.83,243.044,179.102z"/>
			<path style="fill:#ffffff;" d="M287.299,166.924c-15.6-3.471-31.779,5.414-37.178,14.078c1.749,1.524,2.014,2.033,3.534,3.782
				c8.061-7.558,22.434-12.895,33.616-12.17C287.422,170.205,287.54,169.305,287.299,166.924z"/>
		</g>
		<g>
			<g>
				<g>
					<g>
						<g>
							<path style="fill:#656E72;" d="M303.357,182.07l-55.258,20.472c-14.062,5.208-12.985,16.309-10.728,22.378l41.602,111.928
								c2.256,6.071,9.192,9.11,15.472,6.782l65.989-24.447c6.28-2.327,9.55-9.147,7.293-15.219l-41.601-111.929
								C323.868,185.968,317.433,176.857,303.357,182.07z"/>
							<path style="fill:#CFECFF;" d="M319.239,201.887c2.318,1.449,3.261,5.003,3.261,5.003l30.391,83.225
								c0,0,1.166,3.202,0.442,5.149c-0.847,2.289-2.954,3.745-4.383,4.48c-14.6,7.482-43.404,16.704-56.298,20.402
								c-1.884,0.54-5.35,1.864-7.77,1.078c-3.182-1.028-4.195-4.706-4.195-4.706l-31.051-83.196c0,0-1.62-2.918-0.639-5.688
								c0.942-2.655,2.695-3.818,3.958-4.44c15.211-7.478,43.596-18.179,60.407-21.911
								C314.888,200.947,316.896,200.423,319.239,201.887z"/>
							<path style="fill:#4F5354;" d="M290.1,201.274c0.268,0.713-0.118,1.516-0.858,1.79l-16.962,6.283
								c-0.742,0.277-1.556-0.082-1.822-0.796l0,0c-0.266-0.712,0.117-1.515,0.858-1.79l16.964-6.284
								C289.021,200.2,289.836,200.557,290.1,201.274L290.1,201.274z"/>
						</g>
						<g>
							<g>
								<g>
									<path style="fill:#4F5354;" d="M345.397,324.714c0.026,0.068-0.867,0.488-2.593,1.226c-1.724,0.74-4.283,1.785-7.579,3.134
										c-3.299,1.343-7.335,2.984-12.021,4.892c-4.692,1.892-10.044,4.036-16.037,6.241c-1.488,0.575-3.058,1.061-4.639,1.612
										c-0.796,0.263-1.589,0.556-2.411,0.802c-0.828,0.234-1.665,0.471-2.511,0.71c-0.852,0.222-1.684,0.52-2.578,0.684
										c-0.893,0.167-1.796,0.335-2.706,0.505c-1.815,0.352-3.77,0.415-5.747,0.132c-1.973-0.275-3.992-1.13-5.579-2.516
										c-1.61-1.376-2.767-3.168-3.674-5.024c-0.464-0.936-0.843-1.893-1.195-2.83c-0.363-0.946-0.73-1.898-1.1-2.857
										c-0.737-1.918-1.485-3.861-2.242-5.829c-6.161-15.725-12.386-33.125-19.106-51.386
										c-6.772-18.232-12.781-35.695-18.111-51.769c-0.564-2.077-0.986-4.236-0.88-6.455c0.071-2.223,0.949-4.415,2.234-6.122
										c1.289-1.727,2.901-3.039,4.528-4.176c1.633-1.144,3.321-2.102,5.004-2.974c6.755-3.442,13.324-5.853,19.294-8.096
										c11.98-4.376,21.763-7.625,28.523-9.885c3.382-1.121,6.014-1.975,7.807-2.531c1.793-0.556,2.746-0.815,2.771-0.746
										c0.025,0.069-0.882,0.463-2.629,1.149c-1.747,0.686-4.335,1.666-7.675,2.906c-6.672,2.499-16.385,5.966-28.267,10.51
										c-5.91,2.32-12.44,4.818-19.001,8.248c-1.631,0.866-3.253,1.81-4.779,2.901c-1.526,1.083-2.986,2.312-4.073,3.801
										c-1.081,1.485-1.771,3.22-1.824,5.113c-0.078,1.888,0.303,3.864,0.854,5.834c5.374,15.845,11.462,33.372,18.217,51.553
										c6.711,18.231,12.907,35.729,18.939,51.411c0.741,1.968,1.474,3.91,2.195,5.827c0.361,0.959,0.72,1.911,1.076,2.858
										c0.351,0.959,0.707,1.874,1.123,2.729c0.824,1.724,1.846,3.305,3.182,4.464c1.322,1.168,2.949,1.888,4.673,2.151
										c1.723,0.262,3.503,0.24,5.233-0.08c0.867-0.151,1.727-0.302,2.577-0.45c0.853-0.143,1.685-0.432,2.517-0.636
										c0.83-0.224,1.651-0.444,2.465-0.663c0.811-0.23,1.604-0.512,2.393-0.761c1.574-0.526,3.129-0.98,4.62-1.531
										c5.993-2.104,11.377-4.147,16.109-5.934c4.737-1.775,8.817-3.305,12.152-4.555c3.344-1.231,5.952-2.153,7.727-2.764
										C344.427,324.932,345.371,324.645,345.397,324.714z"/>
								</g>
							</g>
						</g>
						<g>
							<g>
								<g>
									<path style="fill:#4F5354;" d="M312.883,336.873c-0.024-0.069,0.859-0.465,2.565-1.156c1.705-0.69,4.231-1.676,7.492-2.925
										c3.259-1.254,7.245-2.788,11.874-4.57c2.308-0.903,4.796-1.823,7.401-2.876c2.607-1.047,5.362-2.153,8.256-3.314
										c1.446-0.581,2.882-1.255,4.375-1.898c1.47-0.675,3.047-1.27,4.501-2.07c1.462-0.789,2.91-1.674,4.183-2.768
										c1.271-1.09,2.338-2.414,2.93-3.963c0.622-1.539,0.665-3.302,0.405-5.067c-0.26-1.778-0.85-3.54-1.539-5.391
										c-1.319-3.674-2.678-7.456-4.071-11.334c-0.694-1.939-1.398-3.902-2.109-5.889c-0.762-1.973-1.531-3.968-2.309-5.984
										c-1.557-4.033-3.147-8.151-4.765-12.343c-3.281-8.367-6.454-17.118-9.771-26.057c-3.293-8.936-6.509-17.661-9.615-26.089
										c-1.548-4.216-3.068-8.357-4.558-12.414c-0.744-2.029-1.479-4.036-2.207-6.02c-0.728-1.969-1.508-3.841-2.515-5.537
										c-1.004-1.686-2.232-3.176-3.76-4.213c-1.527-1.035-3.307-1.627-5.137-1.902c-1.831-0.287-3.71-0.274-5.553-0.118
										c-1.846,0.126-3.663,0.436-5.444,0.751c-3.561,0.682-6.969,1.607-10.221,2.565c-3.255,0.955-6.355,1.97-9.305,2.973
										c-11.788,4.049-21.199,7.755-27.73,10.227c-3.269,1.234-5.807,2.192-7.527,2.842c-1.729,0.632-2.65,0.931-2.678,0.863
										c-0.028-0.068,0.839-0.499,2.516-1.259c1.676-0.763,4.163-1.848,7.381-3.213c6.443-2.71,15.77-6.63,27.545-10.879
										c2.947-1.053,6.052-2.119,9.326-3.124c3.272-1.009,6.708-1.987,10.353-2.724c1.829-0.343,3.696-0.682,5.637-0.833
										c1.931-0.18,3.935-0.218,5.975,0.081c2.029,0.287,4.117,0.948,5.937,2.166c1.822,1.217,3.252,2.947,4.362,4.789
										c1.115,1.848,1.954,3.848,2.702,5.836c0.738,1.98,1.484,3.984,2.238,6.008c1.505,4.05,3.042,8.185,4.606,12.395
										c3.119,8.422,6.349,17.142,9.655,26.072c3.315,8.938,6.475,17.692,9.73,26.072c1.602,4.2,3.176,8.325,4.717,12.365
										c0.768,2.02,1.526,4.02,2.277,5.998c0.703,1.999,1.398,3.976,2.084,5.928c1.37,3.905,2.706,7.713,4.004,11.413
										c0.659,1.816,1.293,3.735,1.565,5.722c0.273,1.97,0.216,4.077-0.561,5.958c-0.742,1.887-2.043,3.431-3.467,4.622
										c-1.432,1.2-2.984,2.116-4.528,2.925c-1.548,0.824-3.114,1.388-4.623,2.056c-1.518,0.63-2.989,1.293-4.449,1.854
										c-2.921,1.115-5.703,2.178-8.335,3.184c-2.631,1.007-5.138,1.875-7.47,2.728c-4.667,1.69-8.696,3.12-12.007,4.235
										c-3.307,1.129-5.879,1.989-7.631,2.551C313.84,336.681,312.907,336.942,312.883,336.873z"/>
								</g>
							</g>
						</g>
					</g>
					<path style="fill:#4F5354;" d="M327.5,328.646c-2.158,0.98-4.741,0.357-6.025-1.417c-1.557-2.155-0.863-5.257,1.495-6.578
						c1.885-1.052,3.669-1.162,5.413-0.005c1.246,0.836,1.88,2.463,1.913,3.625C330.365,326.472,329.281,327.841,327.5,328.646z"/>
				</g>
				<g>
					<path style="fill:#C2E0A0;" d="M336.314,272.762c-2.823,3.575-9.024,5.705-13.12,7.291
						c-10.964,4.245-22.673,9.486-34.126,12.288c-2.11,0.517-5.5,1.086-7.009-1.06c-3.111-4.427-4.182-7.088-7.367-13.734
						c-2.914-6.773-5.735-13.44-8.446-20.362c-2.38-5.791-4.879-11.696-1.256-14.808c4.576-3.938,17.043-9.01,25.487-12.328
						c5.215-2.309,10.877-3.868,16.431-5.111c5.852-1.311,10.817-2.199,14.894,3.154c4.789,6.278,7.553,13.424,10.255,20.748
						c2.199,5.202,4.64,12.762,5.608,18.359C338.061,269.501,337.588,271.145,336.314,272.762z"/>
					<path style="fill:#9EBA7F;" d="M301.142,239.853c-16.678,0.772-29.299,15.474-16.026,31.598
						c9.966,12.111,28.58,5.548,33.802-5.98C324.156,253.903,313.069,239.303,301.142,239.853z"/>
					<path style="fill:#FFEB8B;" d="M291.983,255.88c-0.499-1.112,1.731-3.911,2.945-3.86c0.843,0.033,4.617,4.612,5.033,4.853
						c1.099,0.631,3.381-18.109,4.277-22.294c0.18-0.839,3.087-1.117,3.424-0.327c1.34,3.172-2.842,28.861-5.465,29.568
						C299.648,264.508,293.306,258.839,291.983,255.88z"/>
				</g>
			</g>
			<g>
				<path style="fill:#656E72;" d="M458.625,442.095c-7.306,1.076-15.08,1.089-22.116,1.039c-9.614,0.191-19.875-2.509-29.309-0.479
					c-5.759,1.669-15.397,11.416-19.079,5.555c-0.697-1.122-1.949-3.377-3.38-6.082c-0.001-0.013-0.013-0.021-0.014-0.031
					c-1.904-4.059-4.047-8.249-6.226-12.493c-0.001-0.011-0.003-0.022-0.013-0.02c-4.188-8.113-8.561-16.42-11.947-24.266
					c-2.87-6.664-11.408-23.054-10.132-27.064c0.816-2.568,2.639-5.189,5.166-7.757c9.862-10.081,30.371-19.54,42.818-22.906
					c3.811-1.027,6.855-1.489,8.623-1.228c6.991,1.041,16.195,16.632,20.018,23.048c10.994,18.46,29.844,52.02,36.03,62.048
					c0.013,0.01,0.013,0.01,0.013,0.01C470.626,437.673,465.646,441.411,458.625,442.095z"/>
				<path style="fill:#FFD1BD;" d="M397.996,317.005c-2.034-11.192-6.344-23.405-11.69-33.039
					c-3.72-6.701-11.948-14.948-23.754-21.355c-8.182-4.44-9.891-4.938-10.558-3.605c0,0,10.088,28.869,10.5,40
					c0.5,13.5-7.109,11.944-7.333,11.833c-2.5-1.25-13.095-29.626-21.833-29.167c-16.164,0.85-12.395,19.168-5.063,29.043
					c7.146,9.624,7.765,20,13.646,27.874c2.843,3.807,6.857,7.761,10.417,10.917c0.962,0.854,9.842,5.337,11.129,4.314
					c8.493-6.744,24-15.391,32.759-17.715C398.304,329.533,399.329,324.339,397.996,317.005z"/>
				<g>
					<g style="opacity:0.3;">
						<path style="fill:#97B1D1;" d="M367.947,378.225c-0.449,0.131-0.905,0.32-1.364,0.579c-4.832,2.67-3.175,9.017,2.323,9.43
							C376.874,388.832,375.567,376.004,367.947,378.225z"/>
					</g>
					<path style="opacity:0.3;fill:#97B1D1;" d="M368.332,383.484c0.01,0.065,0.018,0.142,0.015,0.224
						c-0.057,2.241-2.444,1.705-2.662,0.157C365.436,382.154,368.112,382.063,368.332,383.484z"/>
					<path style="opacity:0.3;fill:#97B1D1;" d="M372.554,381.4c0.009,0.068,0.014,0.147,0.015,0.228
						c-0.059,2.245-2.445,1.708-2.665,0.163C369.657,380.073,372.335,379.98,372.554,381.4z"/>
				</g>
				<g>
					<g style="opacity:0.3;">
						<path style="fill:#97B1D1;" d="M374.835,393.064c-0.448,0.133-0.903,0.322-1.364,0.582c-4.829,2.668-3.174,9.017,2.324,9.428
							C383.762,403.674,382.455,390.845,374.835,393.064z"/>
					</g>
					<path style="opacity:0.3;fill:#97B1D1;" d="M375.221,398.324c0.009,0.067,0.016,0.144,0.016,0.225
						c-0.059,2.242-2.445,1.706-2.664,0.157C372.325,396.996,375,396.901,375.221,398.324z"/>
					<path style="opacity:0.3;fill:#97B1D1;" d="M379.442,396.243c0.01,0.066,0.014,0.146,0.016,0.225
						c-0.06,2.245-2.444,1.711-2.668,0.165C376.546,394.914,379.223,394.821,379.442,396.243z"/>
				</g>
				<g>
					<g style="opacity:0.3;">
						<path style="fill:#97B1D1;" d="M383.84,408.107c-0.451,0.13-0.906,0.321-1.365,0.58c-4.832,2.668-3.177,9.016,2.324,9.429
							C392.764,418.716,391.458,405.887,383.84,408.107z"/>
					</g>
					<path style="opacity:0.3;fill:#97B1D1;" d="M384.223,413.367c0.011,0.066,0.018,0.144,0.017,0.223
						c-0.058,2.242-2.446,1.706-2.664,0.158C381.328,412.036,384.004,411.943,384.223,413.367z"/>
					<path style="opacity:0.3;fill:#97B1D1;" d="M388.443,411.284c0.01,0.068,0.016,0.147,0.018,0.227
						c-0.058,2.244-2.446,1.709-2.667,0.163C385.549,409.957,388.227,409.864,388.443,411.284z"/>
				</g>
				<path style="fill:#FCE9C5;" d="M409.059,345.023c-14.08,3.808-37.279,14.508-48.435,25.91c-2.216-3.793-3.583-8.16-3.085-10.532
					c0.337-1.579,2.583-3.933,5.919-6.582c8.493-6.744,24-15.391,32.759-17.715c2.131-0.571,3.859-0.775,4.991-0.485
					C403.566,336.221,407.57,341.211,409.059,345.023z"/>
				<g>
					<g>
						<g>
							<path style="fill:#F7B5A3;" d="M358.662,315.338c-0.023,0.048-0.501-0.15-1.19-0.802c-0.685-0.647-1.551-1.724-2.548-3.174
								c-2.007-2.896-4.514-7.308-7.78-12.61c-1.645-2.643-3.486-5.513-5.701-8.381c-1.115-1.423-2.331-2.843-3.712-4.129
								c-1.377-1.265-2.969-2.426-4.719-2.893c-1.765-0.324-3.908-0.338-5.592,0.477c-1.715,0.789-3.014,2.379-3.669,4.342
								c-0.662,1.963-0.827,4.174-0.675,6.389c0.162,2.216,0.613,4.479,1.389,6.634c0.419,1.06,0.794,2.128,1.372,3.117
								c0.493,1.021,1.113,1.984,1.719,2.946c1.233,1.922,2.603,3.736,3.841,5.684c0.651,0.936,1.168,2.001,1.718,3.011
								c0.417,1.105,0.86,2.235,1.115,3.229c0.593,2.049,1.274,4.026,2.03,5.918c2.997,7.588,7.078,13.835,11.205,18.405
								c4.118,4.597,8.325,7.469,11.497,8.744c3.197,1.316,5.186,0.924,5.191,1.104c0.005,0.034-0.11,0.079-0.345,0.136
								c-0.234,0.065-0.589,0.125-1.061,0.14c-0.939,0.044-2.35-0.096-4.052-0.656c-3.404-1.107-7.89-3.911-12.258-8.515
								c-4.378-4.577-8.696-10.916-11.871-18.677c-0.801-1.935-1.522-3.959-2.15-6.06c-0.296-1.101-0.686-1.995-1.04-2.957
								c-0.518-0.92-0.973-1.867-1.613-2.776c-1.184-1.841-2.581-3.679-3.862-5.66c-0.635-1.002-1.282-2.004-1.819-3.104
								c-0.612-1.051-1.034-2.219-1.488-3.377c-0.834-2.333-1.313-4.74-1.483-7.154c-0.154-2.409,0.018-4.854,0.81-7.162
								c0.764-2.295,2.457-4.423,4.709-5.419c1.105-0.517,2.294-0.741,3.439-0.805c0.58-0.09,1.134,0.017,1.695,0.032
								c0.281,0.022,0.556,0.028,0.839,0.064l0.866,0.183c2.257,0.644,3.982,2.012,5.454,3.391c1.465,1.408,2.701,2.911,3.824,4.401
								c2.224,2.998,4.016,5.946,5.597,8.656c3.137,5.435,5.445,9.932,7.229,12.916c0.885,1.495,1.63,2.614,2.193,3.321
								C358.331,314.973,358.706,315.267,358.662,315.338z"/>
						</g>
					</g>
				</g>
				<g>
					<g>
						<g>
							<path style="fill:#4F5354;" d="M469.503,432.145c-0.055,0.034-0.536-0.665-1.402-2.029c-0.867-1.364-2.119-3.394-3.715-6.018
								c-3.188-5.25-7.77-12.877-13.361-22.332c-5.56-9.467-12.182-20.74-19.535-33.26c-1.866-3.104-3.828-6.244-5.988-9.334
								c-2.172-3.067-4.509-6.156-7.315-8.762c-1.397-1.274-2.961-2.47-4.636-2.976c-1.603-0.443-3.646-0.093-5.574,0.268
								c-3.912,0.798-7.834,2.094-11.724,3.548c-7.772,2.935-15.119,6.506-21.813,10.562c-3.333,2.048-6.495,4.239-9.354,6.645
								c-1.405,1.225-2.777,2.466-3.961,3.829c-1.204,1.341-2.287,2.767-3.058,4.297l-0.302,0.567l-0.23,0.589
								c-0.147,0.383-0.347,0.818-0.37,1.072c-0.076,0.687,0.045,1.542,0.219,2.355c0.359,1.65,0.92,3.287,1.506,4.879
								c1.186,3.188,2.537,6.232,3.857,9.168c2.67,5.876,5.157,11.349,7.429,16.347c4.645,9.918,8.786,17.802,11.428,23.352
								c1.297,2.791,2.289,4.963,2.942,6.443c0.653,1.481,0.968,2.271,0.909,2.299c-0.059,0.027-0.488-0.71-1.251-2.137
								c-0.764-1.428-1.86-3.545-3.254-6.277c-2.839-5.444-7.15-13.215-11.975-23.113c-2.337-4.973-4.896-10.418-7.644-16.265
								c-1.358-2.938-2.747-5.987-3.988-9.236c-0.613-1.629-1.206-3.297-1.614-5.102c-0.189-0.909-0.369-1.836-0.261-2.939
								c0.093-0.642,0.303-1.02,0.467-1.481l0.262-0.674l0.33-0.636c0.855-1.719,2.013-3.251,3.277-4.678
								c1.249-1.452,2.666-2.747,4.117-4.023c2.945-2.502,6.169-4.752,9.557-6.849c6.802-4.15,14.223-7.771,22.114-10.752
								c3.957-1.477,7.929-2.793,12.021-3.622c1.023-0.205,2.063-0.363,3.122-0.459c1.056-0.054,2.202-0.115,3.335,0.241
								c2.193,0.688,3.853,2.039,5.359,3.403c2.983,2.792,5.34,5.954,7.542,9.091c2.182,3.152,4.147,6.34,6.003,9.471
								c7.279,12.576,13.757,23.942,19.2,33.484c5.442,9.537,9.84,17.249,12.834,22.613c1.499,2.681,2.649,4.771,3.412,6.199
								C469.184,431.343,469.558,432.11,469.503,432.145z"/>
						</g>
					</g>
				</g>
				<g>
					<g>
						<g>
							<path style="fill:#F7B5A3;" d="M395.975,336.088c-0.144-0.087,0.589-1.272,1.13-3.686c0.57-2.388,1.003-5.983,0.63-10.376
								c-0.192-2.19-0.588-4.576-1.328-7.03c-0.786-2.513-1.627-5.198-2.513-8.023c-1.796-5.638-3.81-11.823-6.408-18.095
								c-0.694-1.542-1.343-3.087-2.059-4.565c-0.373-0.731-0.742-1.457-1.109-2.178l-0.547-1.076l-0.596-0.981
								c-1.682-2.568-3.871-4.736-6.064-6.646c-4.417-3.821-8.904-6.709-12.652-9.134c-3.714-2.378-7.099-3.662-9.448-4.453
								c-1.18-0.395-2.111-0.661-2.743-0.86c-0.158-0.053-0.297-0.099-0.418-0.139c-0.06-0.024-0.117-0.046-0.168-0.066l-0.084-0.04
								l-0.034-0.021c-0.045-0.036-0.083-0.111-0.006-0.188c0.055-0.032,0.065-0.022,0.081-0.025
								c0.195,0.012,0.267,0.053,0.273,0.084c0.006,0.036-0.097,0.066-0.237,0.115c-0.014,0.008,0.011,0.019-0.035-0.074
								c-0.02-0.018,0.003-0.003,0.01-0.034c0.015-0.018,0.029-0.039,0.04-0.061c0.002-0.004,0-0.003,0-0.004l0.059,0.005
								c0.051,0.005,0.107,0.01,0.168,0.015c0.125,0.013,0.27,0.027,0.435,0.044c0.66,0.073,1.634,0.222,2.869,0.508
								c2.459,0.576,6.018,1.688,9.97,4.001c3.867,2.29,8.483,5.077,13.108,8.942c2.298,1.939,4.622,4.156,6.506,6.977l0.672,1.091
								l0.57,1.103c0.382,0.739,0.766,1.484,1.153,2.234c0.74,1.515,1.405,3.086,2.113,4.662c2.645,6.382,4.618,12.633,6.325,18.322
								c0.845,2.852,1.632,5.549,2.346,8.101c0.713,2.618,1.04,5.119,1.148,7.4c0.204,4.57-0.462,8.262-1.286,10.679
								C397.047,335.06,396.054,336.157,395.975,336.088z"/>
						</g>
					</g>
				</g>
				<g>
					<path style="fill:#FFE7DC;" d="M340.299,296.877c0.159-1.538-1.479-4.048-2.505-5.402c-1.927-2.541-4.232-5.574-8.362-3.958
						c-2.967,1.158-3.352,4.291-2.741,6.925c0.524,2.261,2.099,6.577,3.71,7.232c2.439,0.992,6.806-0.971,8.642-2.738
						C339.771,298.233,340.221,297.632,340.299,296.877z"/>
					<path style="opacity:0.6;fill:#FFE7DC;" d="M335.015,296.832c-1.99,0.722-5.245,2.544-4.552,4.856
						c2.45,0.939,6.759-1,8.579-2.754c0.729-0.701,1.179-1.303,1.257-2.058c0.018-0.175,0.007-0.364-0.016-0.559
						C338.57,295.98,336.625,296.251,335.015,296.832z"/>
					<g>
						<g>
							<g>
								<path style="fill:#F7B5A3;" d="M341.133,295.904c0.105,0.006,0.108,0.909-0.616,2.094c-0.697,1.189-2.134,2.496-3.982,3.42
									c-0.925,0.459-1.865,0.764-2.735,0.969c-0.882,0.165-1.69,0.255-2.372,0.194c-1.373-0.082-2.131-0.539-2.083-0.637
									c0.051-0.149,0.831,0.049,2.08-0.048c0.624-0.026,1.361-0.18,2.163-0.376c0.796-0.237,1.658-0.543,2.518-0.969
									c1.716-0.861,3.087-1.969,3.85-2.947C340.746,296.642,340.977,295.868,341.133,295.904z"/>
							</g>
						</g>
					</g>
				</g>
				<g>
					<g>
						<g>
							<path style="fill:#F7B5A3;" d="M345.197,310.271c0.107,0.235-1.342,1.319-3.382,2.348c-1.022,0.501-2.01,0.863-2.782,0.991
								c-0.387,0.065-0.723,0.06-0.949,0.015c-0.241-0.071-0.345-0.15-0.331-0.222c0.045-0.149,0.423-0.199,1.068-0.515
								c0.643-0.289,1.529-0.735,2.524-1.224C343.322,310.668,345.058,309.973,345.197,310.271z"/>
						</g>
					</g>
				</g>
				<g>
					<g>
						<g>
							<path style="fill:#F7B5A3;" d="M376.662,278.005c0.038,0.318-1.508,0.597-3.221,1.053c-0.84,0.262-1.539,0.569-1.992,0.897
								c-0.441,0.323-0.732,0.593-0.877,0.516c-0.116-0.051-0.055-0.489,0.353-1.055c0.416-0.568,1.255-1.085,2.216-1.378
								C375.088,277.526,376.637,277.745,376.662,278.005z"/>
						</g>
					</g>
				</g>
				<g>
					<g>
						<g>
							<path style="fill:#F7B5A3;" d="M346.996,312.607c0.12,0.056-0.061,0.69-0.611,1.62c-0.604,0.884-1.711,1.978-3.249,2.643
								c-1.547,0.62-3.06,0.713-4.114,0.622c-1.057-0.13-1.673-0.359-1.65-0.491c0.023-0.157,0.667-0.196,1.653-0.261
								c0.989-0.103,2.329-0.305,3.697-0.85c1.355-0.591,2.376-1.444,3.076-2.133C346.436,313.029,346.853,312.535,346.996,312.607z
								"/>
						</g>
					</g>
				</g>
				<g>
					<g>
						<g>
							<path style="fill:#F7B5A3;" d="M351.662,258.838c0.23-0.056,1.418,2.953,3.291,7.891c1.828,4.946,4.267,11.843,6.155,19.732
								c0.932,3.939,1.612,7.763,1.862,11.307c0.246,3.53,0.07,6.832-0.927,9.473c-0.496,1.311-1.231,2.43-2.109,3.178
								c-0.865,0.763-1.806,1.146-2.568,1.306c-1.543,0.305-2.376,0.048-2.371-0.052c-0.009-0.168,0.839-0.195,2.147-0.686
								c1.308-0.462,2.904-1.796,3.579-4.206c0.722-2.369,0.77-5.47,0.431-8.859c-0.337-3.4-1.053-7.127-1.971-11.004
								c-1.858-7.766-4.069-14.691-5.556-19.743C352.096,262.135,351.361,258.915,351.662,258.838z"/>
						</g>
					</g>
				</g>
			</g>
		</g>
	</g>
</g>
</svg>
