<svg width="236" height="207" viewBox="0 0 236 207" fill="none" xmlns="http://www.w3.org/2000/svg">
<g filter="url(#filter0_d_238_59)">
<path d="M121.536 178.672C121.03 176.972 120.257 175.407 119.272 174.02C116.506 170.125 112.075 167.647 107.183 167.648C106.706 167.648 106.223 167.672 105.737 167.72C104.489 167.844 103.3 168.14 102.169 168.554C100.552 169.145 99.0676 170.003 97.7673 171.088C96.6748 171.999 95.7154 173.064 94.9065 174.247C92.8813 177.21 91.8205 180.907 92.1778 184.811C92.9202 192.923 99.4762 199 107.147 199C107.624 199 108.108 198.976 108.593 198.928C116.507 198.144 122.387 191.111 122.201 182.964C122.192 182.59 122.187 182.216 122.152 181.838C122.052 180.741 121.837 179.685 121.536 178.672Z" fill="#192330"/>
</g>
<g filter="url(#filter1_d_238_59)">
<path d="M201.497 162.777C200.386 161.833 199.15 161.052 197.817 160.468C196.166 159.744 194.376 159.324 192.509 159.259C192.34 159.253 192.174 159.234 192.004 159.234C191.527 159.234 191.044 159.258 190.558 159.306C185.518 159.806 181.307 162.846 178.954 167.088C178.046 168.723 177.424 170.536 177.132 172.454C176.938 173.732 176.876 175.049 176.999 176.397C177.014 176.566 177.047 176.728 177.068 176.897C178.03 184.756 184.457 190.587 191.968 190.587C192.446 190.587 192.929 190.563 193.414 190.515C201.691 189.695 207.762 182.043 206.974 173.425C206.577 169.08 204.505 165.333 201.497 162.777Z" fill="#192330"/>
</g>
<path d="M66.1183 82.4722L63.4991 53.8499C62.2295 39.972 50.9738 29.5439 37.8454 29.5439C37.0314 29.5439 36.2072 29.5845 35.3798 29.6665L10.7572 32.1089C4.2237 32.757 -0.568127 38.7973 0.0544016 45.5997C0.640071 52.0035 5.81484 56.7996 11.8702 56.7996C12.247 56.7996 12.6289 56.7804 13.0118 56.7431L37.6345 54.3008C37.699 54.2944 37.7635 54.2912 37.828 54.2912C38.857 54.2912 39.7396 55.1099 39.8389 56.1973L42.4581 84.8197C42.9434 90.1232 43.8229 95.2893 45.0526 100.297C46.484 98.7689 48.282 97.5952 50.341 96.9332L67.4575 91.4313C66.8483 88.5082 66.3968 85.5201 66.1183 82.4722Z" fill="#192330"/>
<g filter="url(#filter2_d_238_59)">
<path d="M87.2382 28.1453C86.397 20.1416 92.2034 12.9713 100.207 12.13C108.211 11.2888 115.381 17.0952 116.223 25.099L126.786 125.602C127.627 133.605 121.821 140.776 113.817 141.617C105.813 142.458 98.6427 136.652 97.8015 128.648L87.2382 28.1453Z" fill="#744CCD"/>
<path d="M148.865 8.56907C153.145 3.28416 160.899 2.46922 166.184 6.74885C171.469 11.0285 172.283 18.7821 168.004 24.067L130.161 70.799C125.881 76.0839 118.128 76.8989 112.843 72.6192C107.558 68.3396 106.743 60.586 111.023 55.3011L148.865 8.56907Z" fill="#744CCD"/>
<path d="M116.575 84.4108C111.366 80.0396 110.686 72.2729 115.058 67.0635C119.429 61.8541 127.195 61.1746 132.405 65.5458L178.469 104.198C183.679 108.57 184.358 116.336 179.987 121.546C175.616 126.755 167.849 127.435 162.64 123.063L116.575 84.4108Z" fill="#744CCD"/>
<path d="M128.775 125.393L125.532 94.537L161.354 124.596C167.41 129.677 176.438 128.887 181.519 122.831C186.6 116.776 185.81 107.748 179.755 102.666L136.393 66.2813L169.558 25.3256C174.533 19.1823 173.586 10.1693 167.442 5.19456C161.299 0.219794 152.286 1.16711 147.311 7.31043L119.919 41.1368L118.212 24.8899C117.255 15.7876 109.1 9.18429 99.9981 10.141C90.8958 11.0977 84.2925 19.2521 85.2492 28.3544L95.8124 128.857C96.7691 137.959 104.924 144.563 114.026 143.606C123.128 142.649 129.732 134.495 128.775 125.393Z" stroke="white" stroke-width="4"/>
</g>
<path d="M235.367 65.6821L234.009 50.8523C233.424 44.4485 228.249 39.6523 222.194 39.6523C221.816 39.6523 221.436 39.6715 221.052 39.7089C214.518 40.357 209.727 46.3972 210.349 53.1997L211.706 68.0295C211.9 70.152 211.986 72.2585 212.011 74.3533C212.324 100.543 199.676 124.31 179.852 138.312C170.035 145.247 158.466 149.789 145.846 151.042C143.496 151.275 141.169 151.388 138.855 151.388C129.642 151.388 120.756 149.572 112.542 146.248C104.718 143.083 97.5148 138.535 91.2158 132.886L89.2049 138.902C87.4233 144.23 82.7697 147.673 77.3492 147.673C72.1375 147.673 67.5484 144.404 65.6573 139.345L61.3938 127.938L54.1641 124.128C63.2819 141.194 76.9775 155.1 93.3568 164.223C96.71 161.586 100.693 159.935 104.982 159.509C105.71 159.437 106.449 159.401 107.18 159.401H107.181C117.242 159.401 125.798 166.067 128.891 175.584C132.169 175.938 135.484 176.134 138.836 176.134C141.899 176.134 144.99 175.983 148.099 175.675C155.478 174.943 162.573 173.335 169.331 171.008C169.98 166.881 171.643 162.984 174.269 159.673C178.177 154.746 183.695 151.699 189.805 151.094C190.533 151.021 191.272 150.985 192.003 150.985C195.122 150.985 198.092 151.639 200.808 152.805C224.577 132.18 238.517 100.101 235.367 65.6821Z" fill="#192330"/>
<g filter="url(#filter3_d_238_59)">
<path d="M87.3976 90.7292L87.397 90.7294L51.8432 102.159L51.8431 102.159C45.4941 104.2 44.8292 113.103 50.6801 116.186C50.6801 116.186 50.6802 116.186 50.6802 116.186L64.3113 123.371L64.3115 123.371C65.048 123.759 65.6411 124.428 65.9556 125.269L65.9557 125.269L70.4669 137.339C71.6685 140.554 74.5073 142.21 77.3524 142.21C80.2874 142.21 83.2117 140.446 84.3359 137.082L96.5776 100.464L96.5777 100.464C98.257 95.4373 94.5623 90.3755 89.6258 90.3755C88.8897 90.3755 88.1408 90.4906 87.3976 90.7292Z" fill="#744CCD" stroke="white" stroke-width="4"/>
</g>
<defs>
<filter id="filter0_d_238_59" x="88.1094" y="167.648" width="38.0957" height="39.3516" filterUnits="userSpaceOnUse" color-interpolation-filters="sRGB">
<feFlood flood-opacity="0" result="BackgroundImageFix"/>
<feColorMatrix in="SourceAlpha" type="matrix" values="0 0 0 0 0 0 0 0 0 0 0 0 0 0 0 0 0 0 127 0" result="hardAlpha"/>
<feOffset dy="4"/>
<feGaussianBlur stdDeviation="2"/>
<feComposite in2="hardAlpha" operator="out"/>
<feColorMatrix type="matrix" values="0 0 0 0 0 0 0 0 0 0 0 0 0 0 0 0 0 0 0.25 0"/>
<feBlend mode="normal" in2="BackgroundImageFix" result="effect1_dropShadow_238_59"/>
<feBlend mode="normal" in="SourceGraphic" in2="effect1_dropShadow_238_59" result="shape"/>
</filter>
<filter id="filter1_d_238_59" x="172.936" y="159.234" width="38.1074" height="39.3525" filterUnits="userSpaceOnUse" color-interpolation-filters="sRGB">
<feFlood flood-opacity="0" result="BackgroundImageFix"/>
<feColorMatrix in="SourceAlpha" type="matrix" values="0 0 0 0 0 0 0 0 0 0 0 0 0 0 0 0 0 0 127 0" result="hardAlpha"/>
<feOffset dy="4"/>
<feGaussianBlur stdDeviation="2"/>
<feComposite in2="hardAlpha" operator="out"/>
<feColorMatrix type="matrix" values="0 0 0 0 0 0 0 0 0 0 0 0 0 0 0 0 0 0 0.25 0"/>
<feBlend mode="normal" in2="BackgroundImageFix" result="effect1_dropShadow_238_59"/>
<feBlend mode="normal" in="SourceGraphic" in2="effect1_dropShadow_238_59" result="shape"/>
</filter>
<filter id="filter2_d_238_59" x="79.1572" y="0.00439453" width="111.711" height="153.694" filterUnits="userSpaceOnUse" color-interpolation-filters="sRGB">
<feFlood flood-opacity="0" result="BackgroundImageFix"/>
<feColorMatrix in="SourceAlpha" type="matrix" values="0 0 0 0 0 0 0 0 0 0 0 0 0 0 0 0 0 0 127 0" result="hardAlpha"/>
<feOffset dy="4"/>
<feGaussianBlur stdDeviation="2"/>
<feComposite in2="hardAlpha" operator="out"/>
<feColorMatrix type="matrix" values="0 0 0 0 0 0 0 0 0 0 0 0 0 0 0 0 0 0 0.25 0"/>
<feBlend mode="normal" in2="BackgroundImageFix" result="effect1_dropShadow_238_59"/>
<feBlend mode="normal" in="SourceGraphic" in2="effect1_dropShadow_238_59" result="shape"/>
</filter>
<filter id="filter3_d_238_59" x="40.6621" y="88.3755" width="62.3262" height="63.8345" filterUnits="userSpaceOnUse" color-interpolation-filters="sRGB">
<feFlood flood-opacity="0" result="BackgroundImageFix"/>
<feColorMatrix in="SourceAlpha" type="matrix" values="0 0 0 0 0 0 0 0 0 0 0 0 0 0 0 0 0 0 127 0" result="hardAlpha"/>
<feOffset dy="4"/>
<feGaussianBlur stdDeviation="2"/>
<feComposite in2="hardAlpha" operator="out"/>
<feColorMatrix type="matrix" values="0 0 0 0 0 0 0 0 0 0 0 0 0 0 0 0 0 0 0.25 0"/>
<feBlend mode="normal" in2="BackgroundImageFix" result="effect1_dropShadow_238_59"/>
<feBlend mode="normal" in="SourceGraphic" in2="effect1_dropShadow_238_59" result="shape"/>
</filter>
</defs>
</svg>
