<svg width="400" height="400" viewBox="0 0 400 400" fill="none" xmlns="http://www.w3.org/2000/svg">
<path d="M362.711 311.537C281.84 416.704 92.4496 418.392 40.0204 359.976C19.0953 336.664 13.5706 296.627 5.44913 237.816C1.53961 209.506 0.979754 186.686 0.647788 171.029C-0.496792 117.77 -1.06665 91.1377 7.36659 73.0197C31.5223 21.1575 115.436 0.972401 169.674 0.0360506C173.459 -0.0304886 177.279 -0.00491843 181.129 0.112761C244.638 2.0366 316.303 28.9142 360.501 86.3484C365.07 92.2735 369.336 98.526 373.276 105.111C413.619 172.559 406.831 254.169 362.711 311.537Z" fill="#F4F7FA"/>
<g opacity="0.3">
<path d="M83.6954 33.6703L85.6473 43.4541C81.4631 45.1756 77.4727 47.2324 73.7249 49.621L67.2424 42.1646C65.4737 40.1301 62.4132 39.9613 60.4054 41.7869L47.8353 53.2168C45.8231 55.0467 45.6226 58.1851 47.3888 60.2273L53.928 67.7878C51.1651 71.3713 48.7013 75.191 46.5729 79.2084L37.1585 76.0319C34.6199 75.1753 31.8608 76.6012 30.9952 79.2174L25.5712 95.6089C24.7022 98.2349 26.0587 101.064 28.6027 101.926L38.0495 105.13C37.3821 109.608 37.1035 114.186 37.2041 118.818L27.3601 120.936C24.7173 121.504 22.9958 124.17 23.5154 126.892L26.7708 143.948C27.2926 146.681 29.8644 148.436 32.5148 147.866L42.3879 145.742C44.0169 150.078 45.9798 154.214 48.269 158.103L40.7153 165.03C38.6782 166.898 38.4733 170.11 40.2583 172.206L51.4426 185.332C53.2344 187.435 56.3418 187.62 58.3811 185.744L65.9339 178.797C69.4389 181.684 73.1854 184.248 77.1258 186.467L73.9254 196.376C73.0589 199.06 74.4477 201.955 77.0285 202.843L93.1864 208.402C95.773 209.292 98.5688 207.832 99.4299 205.143L102.579 195.31C107.004 195.992 111.529 196.257 116.105 196.122L118.128 206.262C118.682 209.037 121.298 210.823 123.972 210.248L140.691 206.651C143.364 206.076 145.076 203.36 144.514 200.586L142.479 190.534C146.758 188.788 150.831 186.686 154.654 184.245L161.231 191.85C163.058 193.961 166.184 194.147 168.213 192.264L180.89 180.503C182.915 178.624 183.073 175.396 181.244 173.293L174.688 165.752C177.499 162.062 179.984 158.122 182.124 153.985L191.403 157.132C193.996 158.011 196.775 156.56 197.607 153.893L202.807 137.242C203.636 134.584 202.21 131.723 199.623 130.85L190.432 127.749C191.056 123.165 191.268 118.484 191.088 113.758L200.529 111.727C203.18 111.157 204.863 108.487 204.288 105.765L200.701 88.7798C200.129 86.0695 197.522 84.3345 194.879 84.903L185.466 86.9279C183.744 82.5654 181.688 78.4137 179.301 74.5255L186.415 67.9816C188.415 66.1417 188.57 62.9878 186.761 60.9378L175.47 48.1416C173.668 46.0993 170.588 45.9293 168.59 47.7616L161.431 54.3272C157.88 51.4969 154.098 48.9862 150.125 46.833L153.118 37.4858C153.951 34.8847 152.558 32.089 150.007 31.2406L134.074 25.9414C131.529 25.0951 128.788 26.5119 127.949 29.1071L124.923 38.4765C120.544 37.8511 116.072 37.6272 111.551 37.8015L109.587 28.1015C109.047 25.4325 106.484 23.7266 103.864 24.2903L87.4767 27.8151C84.8551 28.3785 83.1626 30.9995 83.6954 33.6703ZM55.7891 128.762C49.336 95.7512 70.0627 63.5589 102.049 56.6787C134.034 49.7988 165.449 70.7754 172.253 103.71C179.097 136.845 158.462 169.492 126.125 176.447C93.7878 183.403 62.2813 161.972 55.7891 128.762Z" fill="url(#paint0_linear_106_288)"/>
</g>
<path d="M255.023 95.966L224.539 351.055C224.081 354.892 226.601 358.279 230.146 358.583L349.512 370.124C356.622 370.449 360.531 366.483 360.991 362.526L391.632 99.4415C392.087 95.5303 388.664 91.8272 381.594 91.5295L262.296 89.2244C258.747 89.1395 255.476 92.1732 255.023 95.966Z" fill="url(#paint1_linear_106_288)"/>
<path d="M386.986 98.7602L356.13 363.536C355.728 366.981 353.072 369.698 349.924 370.197C349.919 370.197 349.919 370.197 349.919 370.197C349.427 370.197 348.92 370.255 348.413 370.214L330.731 368.683L224.472 359.57C220.907 359.263 218.372 355.85 218.834 351.991L249.539 95.3102C249.996 91.4922 253.284 88.439 256.859 88.5257L298.007 89.5053L380.941 91.441C381.162 91.4461 381.373 91.4423 381.583 91.4423C381.589 91.4423 381.594 91.4423 381.594 91.4423C385.033 91.9418 387.422 95.0545 386.986 98.7602Z" fill="url(#paint2_linear_106_288)"/>
<path d="M251.874 109.572L223.447 347.382C223.016 350.985 225.386 354.163 228.718 354.445L345.265 364.287C348.781 364.584 352.016 361.792 352.449 358.082L381.01 113.271C381.438 109.602 378.904 106.522 375.385 106.426L258.711 103.256C255.375 103.165 252.3 106.007 251.874 109.572Z" fill="#D8DEE8"/>
<path d="M314.814 97.7466C314.655 99.0894 315.558 100.205 316.831 100.238C318.105 100.272 319.266 99.2088 319.425 97.8647C319.584 96.5207 318.679 95.4052 317.406 95.3733C316.133 95.3415 314.973 96.404 314.814 97.7466Z" fill="url(#paint3_linear_106_288)"/>
<path opacity="0.5" d="M330.179 368.255C330.364 368.392 330.545 368.535 330.731 368.668L224.472 359.562C220.907 359.256 218.372 355.846 218.834 351.988L249.539 95.3082C249.996 91.4902 253.284 88.438 256.859 88.5248L298.007 89.5048C298.067 89.6425 298.128 89.7804 298.188 89.9183C299.945 93.9455 301.175 98.7383 301.717 104.424C302.581 113.494 301.677 124.846 298.298 139.016C277.212 227.466 368.329 236.158 325.409 303.396C306.793 332.556 312.115 350.497 323.622 362.462C325.65 364.569 327.864 366.489 330.179 368.255Z" fill="white"/>
<path d="M177.741 351.886C177.771 355.372 175.366 358.302 172.078 358.582L159.291 359.818L52.7103 370.152C52.5746 370.157 52.4392 370.197 52.3035 370.197C52.3035 370.197 52.3035 370.197 52.2984 370.197C45.4506 370.197 41.6801 366.437 41.2332 362.557L10.5931 99.413C10.1362 95.5032 13.5604 91.9418 20.6289 91.4423C20.6289 91.4423 20.6341 91.4423 20.6392 91.4423L47.7247 90.9611L139.926 89.202C143.476 89.1153 146.744 92.1633 147.201 95.9558L148.321 105.333L177.686 351.051C177.716 351.332 177.736 351.61 177.741 351.886Z" fill="url(#paint4_linear_106_288)"/>
<path d="M177.751 359.562L160.741 361.022L53.8095 370.214C53.3024 370.254 52.7954 370.197 52.3034 370.197C52.3034 370.197 52.3034 370.197 52.2983 370.197C49.1504 369.698 46.4948 367.003 46.093 363.558L15.237 98.7747C14.8002 95.069 17.1901 91.9415 20.629 91.4419C20.629 91.4419 20.6341 91.4419 20.6392 91.4419C20.85 91.4419 21.0608 91.4456 21.2818 91.4405L47.4637 90.8401L145.364 88.5135C148.938 88.4268 152.227 91.4846 152.684 95.3026L183.389 351.985C183.851 355.844 181.315 359.256 177.751 359.562Z" fill="url(#paint5_linear_106_288)"/>
<path d="M150.348 109.572L178.775 347.382C179.205 350.985 176.836 354.163 173.504 354.445L56.9573 364.287C53.441 364.584 50.2058 361.792 49.773 358.082L21.2122 113.271C20.7841 109.602 23.3177 106.522 26.8373 106.426L143.511 103.256C146.847 103.165 149.922 106.007 150.348 109.572Z" fill="#D8DEE8"/>
<path d="M87.4086 97.7466C87.5673 99.0894 86.6647 100.205 85.3915 100.238C84.1177 100.272 82.9561 99.2088 82.7974 97.8647C82.6386 96.5207 83.5432 95.4052 84.8168 95.3733C86.0899 95.3415 87.2499 96.404 87.4086 97.7466Z" fill="url(#paint6_linear_106_288)"/>
<path opacity="0.5" d="M160.741 361.022L53.8097 370.214C53.3025 370.254 52.7956 370.197 52.3035 370.197C52.3035 370.197 52.3035 370.197 52.2984 370.197C45.4506 370.197 41.6801 366.436 41.2332 362.557L10.5931 99.4129C10.1362 95.503 13.5604 91.9417 20.6289 91.4422C20.6289 91.4422 20.6341 91.4422 20.6392 91.4422C20.85 91.4422 21.0608 91.4458 21.2818 91.4407L47.4637 90.8403C47.549 90.8862 47.6395 90.9433 47.7248 90.9943C54.0756 94.5467 60.4921 99.2483 65.628 105.368C74.4691 115.888 79.5146 130.626 73.8917 151.013C58.0772 208.322 67.114 217.511 117.57 243.543C168.021 269.574 162.85 286.087 148.446 324.695C143.652 337.547 147.713 347.899 155.274 355.984C156.524 357.321 157.87 358.603 159.291 359.817C159.767 360.226 160.249 360.624 160.741 361.022Z" fill="white"/>
<mask id="mask0_106_288" style="mask-type:luminance" maskUnits="userSpaceOnUse" x="199" y="103" width="183" height="262">
<path d="M375.827 106.426L259.153 103.256C255.817 103.165 252.743 105.919 252.317 109.484L245.386 167.376H199.515V216.333H239.529L223.89 347.271C223.459 350.875 225.829 354.108 229.161 354.39L345.707 364.26C349.224 364.557 352.459 361.778 352.892 358.068L381.452 113.265C381.88 109.595 379.347 106.522 375.827 106.426Z" fill="white"/>
</mask>
<g mask="url(#mask0_106_288)">
<path d="M287.292 241.183C285.472 246.047 283.651 250.911 281.831 255.775C282.098 282.627 283.42 311.738 286.321 342.743C288.479 365.811 291.293 387.598 294.513 407.999C297.449 407.605 300.384 407.21 303.32 406.816C306.903 397.473 310.906 383.438 310.102 366.604C309.263 349.043 304.086 347.143 303.138 330.341C301.909 308.565 310.055 302.033 312.655 275.493C313.649 265.342 313.841 252.179 311.246 236.45C303.261 238.027 295.277 239.606 287.292 241.183Z" fill="url(#paint7_linear_106_288)"/>
<path opacity="0.3" d="M311.246 236.45C306.934 237.302 302.622 238.154 298.309 239.006C291.573 254.14 290.523 269.385 292.4 275.929C295.054 285.188 300.423 287.769 300.854 297.255C301.281 306.641 296.271 309.51 293.809 320.825C292.104 328.66 293.236 335.633 295.57 349.26C300.271 376.709 307.201 384.635 302.616 394.156C301.313 396.861 298.846 400.161 293.737 402.955C293.994 404.641 294.25 406.332 294.513 407.999C297.449 407.606 300.385 407.21 303.32 406.816C306.903 397.472 310.906 383.439 310.102 366.603C309.263 349.043 304.087 347.142 303.138 330.341C301.909 308.564 310.055 302.034 312.655 275.493C313.65 265.343 313.841 252.18 311.246 236.45Z" fill="url(#paint8_linear_106_288)"/>
<path d="M299.619 248.611C305.481 271.889 310.992 296.868 315.827 323.444C321.664 355.533 325.779 385.903 328.629 414.182C331.87 414.005 335.112 413.826 338.353 413.648C349.077 385.789 348.486 367.569 345.756 355.906C344.705 351.412 342.108 342.646 340.662 329.337C339.654 320.059 339.679 312.931 339.735 304.361C339.857 285.569 341.407 281.337 340.597 267.04C339.837 253.623 339.377 246.84 335.478 243.19C325.206 233.574 301.422 247.529 299.619 248.611Z" fill="url(#paint9_linear_106_288)"/>
<path d="M205.511 194.532C205.511 194.532 198.39 193.884 197.36 192.658C196.33 191.432 194.765 189.468 194.61 188.344C194.456 187.22 193.08 188.899 194.327 191.337C195.575 193.775 192.036 193.258 191.484 193.199C190.214 193.064 185.37 192.913 185.51 193.232C185.65 193.55 184.935 194.958 188.375 196.613C191.386 198.062 194.971 197.119 196.928 197.219C198.886 197.318 198.886 197.318 198.886 197.318L204.078 197.739L205.511 194.532Z" fill="url(#paint10_linear_106_288)"/>
<path d="M201.336 190.999C201.023 193.52 200.709 196.041 200.396 198.562C205.112 202.741 215.539 210.75 230.047 211.951C255.622 214.07 280.984 193.967 285.706 171.357C288.045 160.159 286.135 144.448 279.582 141.922C277.763 141.22 275.031 141.32 269.397 145.339C254.364 156.065 253.085 170.151 244.78 179.68C238.802 186.537 227.05 193.484 201.336 190.999Z" fill="url(#paint11_linear_106_288)"/>
<path d="M269.521 207.084C271.794 214.733 273.711 219.565 275.185 223.382V223.39C278.134 227.214 278.427 230.011 279.04 233.582C279.346 235.32 279.664 237.24 279.642 239.558C279.6 243.708 279.106 247.091 278.643 249.996C277.945 254.378 277.559 257.653 279.676 260.775C282.297 264.657 286.971 265.548 297.68 266.251C324.983 268.047 338.644 268.946 342.513 261.39C344.116 258.254 343.124 255.798 341.215 246.056C339.22 235.907 336.151 220.261 336.429 209.895C336.636 202.159 338.732 196.588 341.332 191.96C346.484 182.767 353.631 177.277 351.935 165.933C349.427 149.171 330.732 140.348 329.834 139.936C323.699 137.147 315.769 137.378 299.917 137.842C287.092 138.226 280.586 138.48 276.062 141.826C267.292 148.309 265.414 160.341 264.402 167.425C262.293 182.224 265.745 194.401 269.521 207.084Z" fill="url(#paint12_linear_106_288)"/>
<path d="M283.78 141.574C283.769 140.549 287.303 140.108 290.086 138.746C293.604 137.025 295.132 129.317 294.234 125.954C293.337 122.591 299.466 120.862 299.466 120.861C299.965 120.725 302.029 125.151 302.278 125.626C303.323 127.624 304.334 129.656 305.643 131.494C306.788 133.103 308.141 134.502 309.734 135.654C310.862 136.47 312.083 137.154 313.331 137.762C313.904 138.041 314.482 138.369 315.066 138.622C315.368 138.753 315.473 139.4 315.441 139.4C315.453 139.4 315.462 139.4 315.462 139.4C315.462 139.4 315.453 139.208 315.439 139.23C315.385 139.508 315.139 139.737 314.74 140.096C312.888 142.467 307.255 148.488 295.507 152.683C288.465 147.974 283.638 144.334 283.776 141.615C283.777 141.61 283.779 141.579 283.78 141.574Z" fill="url(#paint13_linear_106_288)"/>
<path opacity="0.5" d="M305.424 254.147C296.169 256.189 285.503 252.024 278.727 249.996C278.029 254.378 277.601 257.653 279.718 260.774C282.339 264.657 286.992 265.548 297.701 266.251C325.004 268.047 338.655 268.945 342.524 261.39C344.127 258.254 343.13 255.798 341.22 246.055C339.225 235.907 336.154 220.26 336.432 209.895C336.639 202.159 338.733 196.588 341.334 191.96C335.214 183.702 326.493 179.652 315.179 192.865C315.179 192.865 298.542 211.655 286.33 212.329C279.404 212.706 275.186 217.276 275.186 223.383V223.39C276.66 226.505 276.697 230.018 279.041 233.582C280.202 235.342 281.83 237.117 283.604 238.855C296.016 251.025 319.753 250.981 305.424 254.147Z" fill="url(#paint14_linear_106_288)"/>
<path d="M301.048 150.34C301.048 150.34 298.98 157.163 297.245 157.281C295.511 157.399 294.239 157.634 294.239 157.634L291.624 149.989C292.321 150.207 293.76 150.684 294.59 150.842C296.693 151.242 299.531 150.459 301.048 150.34Z" fill="url(#paint15_linear_106_288)"/>
<path d="M298.069 156.778C298.069 156.778 301.93 200.845 315.461 207.9C315.114 209.311 315.461 220.776 315.461 220.776C315.461 220.776 302.847 216.914 302.128 217.17C301.409 217.425 286.851 192.892 294.239 157.633L298.069 156.778Z" fill="url(#paint16_linear_106_288)"/>
<path d="M287.563 123.341C285.26 122.349 283.432 119.326 283.828 116.502C284.168 114.072 286.065 112.638 287.2 111.78C290.49 109.291 295.79 108.171 299.215 110.559C301.244 111.975 301.573 117.204 301.678 118.116C301.797 119.149 301.32 119.807 301.086 120.779C300.761 122.126 300.265 124.255 299.487 127.786C298.938 127.203 298.212 126.507 297.301 125.826C296.951 125.564 295.564 124.55 294.001 123.953C290.866 122.756 289.747 124.282 287.563 123.341Z" fill="url(#paint17_linear_106_288)"/>
<path d="M301.364 124.097C301.364 124.097 301.247 129.326 296.459 131.736C292.172 133.893 286.205 124.83 287.706 121.278C288.207 120.093 289.813 118.779 291.479 118.344C292.463 118.087 292.953 118.276 294.553 117.825C296.029 117.408 296.309 117.05 296.885 117.154C297.606 117.283 298.539 118.091 299.297 121.32C299.624 120.045 300.392 119.177 301.246 119.105C301.382 119.093 301.778 119.123 302.106 119.326C303.296 120.062 303.112 122.005 301.364 124.097Z" fill="url(#paint18_linear_106_288)"/>
<path d="M296.751 116.48C296.638 116.749 297.677 117.146 298.332 118.189C299.602 120.214 298.953 123.922 296.965 125.374C295.789 126.233 295.011 125.67 292.824 126.661C291.47 127.275 290.502 128.065 289.918 128.606C290.566 131.264 292.468 133.177 294.565 133.349C296.823 133.535 298.49 131.636 299.187 130.842C299.653 130.31 301.149 128.612 301.135 126.324C301.119 123.94 299.518 123.44 299.981 121.549C300.214 120.595 300.827 119.881 300.897 118.259C300.915 117.819 300.888 117.455 300.862 117.215C299.142 116.694 296.915 116.092 296.751 116.48Z" fill="url(#paint19_linear_106_288)"/>
<path d="M291.898 128.568C291.898 128.568 293.06 128.517 294.552 127.522C294.625 127.474 294.72 127.447 294.752 127.481C294.872 127.609 294.262 128.858 293.203 129.133C292.45 129.329 291.592 129.002 291.589 128.793C291.588 128.704 291.739 128.627 291.898 128.568Z" fill="url(#paint20_linear_106_288)"/>
</g>
<path d="M272.104 224.753C272.104 224.753 271.419 225.69 270.398 222.647C269.377 219.604 265.754 220.653 265.754 220.653L266.648 222.859C266.648 222.859 256.259 220.322 256.399 222.156C256.539 223.99 259.405 228.278 262.697 229.215C265.989 230.152 272.349 229.298 272.349 229.298L272.104 224.753Z" fill="url(#paint21_linear_106_288)"/>
<path d="M333.341 139.633C333.341 139.633 318.678 136.644 318.857 165.226C319.036 193.808 322.335 213.323 308.505 216.311C294.675 219.3 271.719 222.31 271.719 222.31L272.185 232.26C272.185 232.26 340.491 249 345.285 224.498C350.079 199.995 368.498 146.139 333.341 139.633Z" fill="url(#paint22_linear_106_288)"/>
<mask id="mask1_106_288" style="mask-type:luminance" maskUnits="userSpaceOnUse" x="20" y="102" width="238" height="262">
<path d="M257.005 103.432H146.361C145.383 102.932 144.286 102.467 143.156 102.498L26.4818 105.62C22.9623 105.716 20.4287 108.772 20.8567 112.442L49.4175 357.24C49.8502 360.95 53.0855 363.737 56.6016 363.44L173.148 353.594C176.48 353.313 178.85 350.174 178.419 346.571L166.788 249.304H257.005V103.432Z" fill="white"/>
</mask>
<g mask="url(#mask1_106_288)">
<path d="M104.563 252.501C106.404 257.421 108.245 262.341 110.086 267.26C109.816 294.419 108.479 323.862 105.545 355.221C103.362 378.553 100.516 400.588 97.2593 421.223C94.2902 420.824 91.3211 420.425 88.3518 420.026C84.7278 410.576 80.6792 396.382 81.4926 379.355C82.3411 361.594 87.5768 359.671 88.5362 342.678C89.7794 320.653 81.5399 314.047 78.9101 287.203C77.9044 276.937 77.7102 263.624 80.3353 247.715C88.4114 249.31 96.4872 250.906 104.563 252.501Z" fill="url(#paint23_linear_106_288)"/>
<path opacity="0.3" d="M80.3353 247.715C84.6968 248.576 89.0584 249.438 93.42 250.3C100.233 265.607 101.295 281.026 99.397 287.644C96.7123 297.009 91.2824 299.62 90.846 309.214C90.4144 318.707 95.482 321.609 97.9721 333.054C99.6957 340.977 98.551 348.03 96.1903 361.812C91.4359 389.575 84.4268 397.592 89.0645 407.222C90.3825 409.958 92.8769 413.295 98.0445 416.121C97.7841 417.826 97.5255 419.537 97.2593 421.223C94.2902 420.825 91.3211 420.424 88.3518 420.026C84.7278 410.575 80.6792 396.381 81.4926 379.354C82.3411 361.593 87.5768 359.67 88.5362 342.677C89.7794 320.652 81.5399 314.047 78.9101 287.203C77.9044 276.937 77.7102 263.624 80.3353 247.715Z" fill="url(#paint24_linear_106_288)"/>
<path d="M92.0959 260.015C86.1671 283.558 80.5932 308.822 75.7034 335.702C69.7994 368.157 65.6377 398.873 62.7548 427.476C59.4764 427.297 56.198 427.116 52.9198 426.936C42.0738 398.758 42.6716 380.331 45.432 368.535C46.4955 363.989 49.1221 355.123 50.5846 341.662C51.6038 332.278 51.5791 325.069 51.5225 316.4C51.3989 297.394 49.831 293.114 50.6505 278.654C51.419 265.083 51.884 258.223 55.8275 254.531C66.2174 244.805 90.2726 258.92 92.0959 260.015Z" fill="url(#paint25_linear_106_288)"/>
<path d="M187.278 205.319C187.278 205.319 194.481 204.663 195.523 203.423C196.565 202.183 198.147 200.196 198.304 199.06C198.46 197.922 199.851 199.621 198.59 202.087C197.328 204.552 200.907 204.03 201.466 203.97C202.75 203.833 207.649 203.681 207.508 204.003C207.367 204.325 208.09 205.749 204.611 207.423C201.565 208.889 197.939 207.935 195.959 208.036C193.979 208.136 193.979 208.136 193.979 208.136L188.728 208.562L187.278 205.319Z" fill="url(#paint26_linear_106_288)"/>
<path d="M191.501 201.745C191.818 204.294 192.135 206.844 192.452 209.394C187.682 213.62 177.135 221.721 162.462 222.936C136.595 225.079 110.943 204.747 106.167 181.878C103.802 170.552 105.734 154.662 112.362 152.107C114.201 151.397 116.965 151.498 122.662 155.563C137.868 166.411 139.161 180.658 147.561 190.296C153.607 197.231 165.494 204.258 191.501 201.745Z" fill="url(#paint27_linear_106_288)"/>
<path d="M122.369 218.013C120.07 225.75 117.947 230.637 116.473 234.498V234.505C114.016 238.373 113.361 241.202 112.741 244.813C112.432 246.572 112.194 248.513 112.216 250.858C112.259 255.056 112.8 258.477 113.268 261.415C113.975 265.847 114.386 269.159 112.245 272.317C109.593 276.243 104.877 277.144 94.0459 277.855C66.4312 279.672 52.6189 280.581 48.7057 272.939C47.0844 269.767 48.0904 267.283 50.0218 257.429C52.0394 247.165 55.144 231.34 54.8629 220.856C54.6539 213.031 52.5349 207.398 49.9044 202.716C44.6942 193.419 37.4661 187.865 39.1811 176.392C41.7178 159.439 60.6266 150.515 61.5348 150.098C67.7394 147.277 75.7597 147.511 91.7937 147.98C104.765 148.368 111.345 148.625 115.921 152.01C124.791 158.567 126.607 170.736 127.63 177.901C129.763 192.869 126.188 205.185 122.369 218.013Z" fill="url(#paint28_linear_106_288)"/>
<path d="M74.4565 218.773C72.9615 223.188 68.5552 226.205 64.8367 236.937C64.034 239.254 58.3161 255.754 63.7678 260.399C66.9169 263.081 70.2491 258.79 78.3758 258.884C92.4581 259.047 98.1864 272.116 107.592 269.481C109.224 269.023 111.415 267.939 113.726 265.215C113.945 267.865 113.702 270.13 112.224 272.319C109.575 276.241 104.868 277.143 94.0354 277.856C66.4206 279.673 52.6132 280.583 48.7024 272.937C47.0798 269.766 48.0864 267.286 50.0208 257.43C52.0354 247.165 55.1421 231.339 54.8603 220.854C54.2326 197.496 36.6038 193.647 39.1834 176.391C39.8729 171.778 41.7926 167.782 44.2139 164.367C66.0679 175.997 79.1553 204.9 74.4565 218.773Z" fill="url(#paint29_linear_106_288)"/>
<path d="M108.116 151.755C108.127 150.718 104.552 150.272 101.738 148.895C98.1796 147.154 96.6343 139.358 97.5421 135.957C98.4499 132.555 92.2506 130.806 92.2506 130.806C92.2506 130.806 91.505 137.104 89.3002 141.681C87.3078 145.817 78.3239 148.134 76.472 148.937C76.1666 149.07 76.0603 149.891 76.0927 149.891C76.0807 149.891 76.0723 149.891 76.0723 149.891C76.0723 149.891 76.081 149.53 76.0952 149.552C76.1498 149.833 76.3981 149.981 76.8025 150.344C78.6755 152.743 84.3725 158.79 96.2545 163.032C103.377 158.27 108.259 154.568 108.12 151.818C108.119 151.812 108.116 151.76 108.116 151.755Z" fill="url(#paint30_linear_106_288)"/>
<path d="M100.548 129.206C103.423 126.651 103.819 126.358 104.182 125.422C105.638 121.662 103.219 116.139 99.6216 114.523C99.4344 114.439 97.0195 113.386 95.9872 114.447C95.1105 115.349 96.1916 116.789 95.4885 118.61C94.8301 120.315 93.3918 120.325 90.5715 122.394C88.2482 124.098 86.8043 125.158 86.367 126.784C85.4653 130.136 88.9762 135.405 92.4243 135.563C93.6642 135.62 94.051 134.978 100.548 129.206Z" fill="url(#paint31_linear_106_288)"/>
<path d="M92.7208 136.118C92.7208 136.118 95.2969 139.766 99.6975 139.007C103.638 138.327 103.362 128.824 100.648 127.079C99.7426 126.497 98.0253 126.393 96.6864 126.943C95.8953 127.268 95.6533 127.654 94.3513 128.159C93.1505 128.624 92.7891 128.515 92.4478 128.885C92.0204 129.348 91.7722 130.402 92.799 133.083C91.9687 132.347 91.0323 132.128 90.4184 132.516C90.3204 132.578 90.0659 132.803 89.9398 133.116C89.4835 134.252 90.5358 135.535 92.7208 136.118Z" fill="url(#paint32_linear_106_288)"/>
<path opacity="0.4" d="M86.224 265.613C95.5848 267.679 106.373 263.466 113.226 261.415C113.932 265.847 114.364 269.159 112.224 272.317C109.572 276.243 104.866 277.145 94.0356 277.855C66.4208 279.672 52.6139 280.581 48.7008 272.939C47.0793 269.767 48.0881 267.283 50.0196 257.429C52.0372 247.165 55.1432 231.34 54.8621 220.856C54.6531 213.031 52.5348 207.398 49.9043 202.716C56.0943 194.364 64.915 190.268 76.3586 203.632C76.3586 203.632 93.0181 222.636 105.37 223.318C112.374 223.699 116.474 228.322 116.474 234.498V234.505C115.491 237.655 115.113 241.209 112.742 244.813C111.567 246.594 110.004 248.388 108.21 250.147C95.6562 262.455 71.7319 262.411 86.224 265.613Z" fill="url(#paint33_linear_106_288)"/>
<path d="M90.6504 160.621C90.6504 160.621 92.742 167.522 94.4966 167.641C96.2513 167.76 97.5378 167.998 97.5378 167.998L100.182 160.266C99.4776 160.486 98.0219 160.969 97.1826 161.129C95.0553 161.534 92.1853 160.742 90.6504 160.621Z" fill="url(#paint34_linear_106_288)"/>
<path d="M93.6634 167.133C93.6634 167.133 89.7585 211.703 76.0723 218.839C76.4233 220.266 76.0723 231.861 76.0723 231.861C76.0723 231.861 88.8304 227.956 89.5577 228.214C90.285 228.472 105.009 203.659 97.5375 167.998L93.6634 167.133Z" fill="url(#paint35_linear_106_288)"/>
<path d="M228.549 198.036C228.549 227.295 206.045 250.312 177.282 249.415C147.349 248.48 122.174 222.197 122.174 190.745C122.174 159.293 147.349 136.461 177.282 139.63C206.045 142.674 228.549 168.776 228.549 198.036Z" fill="url(#paint36_linear_106_288)"/>
<path d="M236.322 195.513C236.322 224.773 213.818 247.79 185.055 246.891C155.121 245.957 129.946 219.674 129.946 188.222C129.946 156.77 155.122 133.938 185.055 137.107C213.818 140.152 236.322 166.253 236.322 195.513Z" fill="url(#paint37_linear_106_288)"/>
<path d="M234.064 195.358C234.064 223.329 212.532 245.295 185.055 244.391C156.511 243.451 132.546 218.368 132.546 188.4C132.546 158.432 156.511 136.634 185.055 139.607C212.532 142.469 234.064 167.387 234.064 195.358Z" fill="url(#paint38_linear_106_288)"/>
<path d="M232.447 195.247C232.447 222.296 211.612 243.511 185.054 242.605C157.502 241.664 134.397 217.438 134.397 188.527C134.397 159.615 157.502 138.557 185.054 141.393C211.612 144.127 232.447 168.199 232.447 195.247Z" fill="url(#paint39_linear_106_288)"/>
<path d="M184.783 150.595C186.196 150.732 187.34 152.025 187.34 153.484V158.464C190.166 158.785 192.996 159.285 195.829 159.962C197.919 160.461 199.994 161.055 202.056 161.744C203.291 162.157 204.133 163.425 204.007 164.733L203.405 170.978C203.246 172.634 201.635 173.607 200.118 172.92C198.76 172.304 197.368 171.777 195.941 171.338C193.451 170.572 190.825 170.073 188.062 169.841L187.34 169.78V184.043C194.712 186.139 200.126 188.96 203.625 192.509C207.107 196.04 208.842 200.441 208.842 205.724C208.842 211.438 206.924 216.013 203.073 219.463C199.201 222.932 193.772 224.883 186.752 225.306V230.802C186.752 232.262 185.608 233.399 184.193 233.342L184.148 233.34C182.731 233.282 181.58 232.049 181.58 230.584V225.161L180.44 225.109C177.15 224.958 173.997 224.617 170.986 224.084C168.755 223.69 166.577 223.181 164.452 222.557C163.167 222.179 162.284 220.934 162.402 219.597L163.11 211.57C163.263 209.834 164.978 208.824 166.601 209.475C168.493 210.234 170.408 210.873 172.347 211.393C175.369 212.203 178.431 212.723 181.534 212.954L181.58 197.089C174.503 195.309 169.205 192.672 165.725 189.179C162.227 185.67 160.473 181.18 160.473 175.719C160.473 170.069 162.375 165.707 166.166 162.646C169.938 159.601 175.3 158.085 182.217 158.089V152.998C182.217 151.534 183.367 150.458 184.783 150.595ZM182.217 169.633C180.03 169.795 178.324 170.405 177.104 171.466C175.881 172.528 175.269 173.955 175.269 175.747C175.269 177.444 175.835 178.863 176.966 180.002C178.096 181.139 179.847 182.046 182.217 182.725V169.633ZM186.752 198.361V212.909C189.13 212.914 190.953 212.337 192.225 211.179C193.496 210.024 194.13 208.392 194.13 206.282C194.13 204.358 193.541 202.763 192.36 201.494C191.178 200.223 189.31 199.179 186.752 198.361Z" fill="url(#paint40_linear_106_288)"/>
<path opacity="0.3" d="M176.478 201.871C178.08 185.793 192.614 178.986 190.717 164.197C189.548 155.081 182.752 147.399 175.172 141.401C152.178 143.853 134.397 163.21 134.397 188.527C134.397 217.438 157.502 241.664 185.054 242.605C187.729 242.696 190.342 242.555 192.883 242.216C181.941 231.147 175.103 215.684 176.478 201.871Z" fill="url(#paint41_linear_106_288)"/>
<path d="M129.779 228.937C129.779 228.937 130.611 229.761 131.151 226.556C131.692 223.351 135.475 223.808 135.475 223.808L134.929 226.157C134.929 226.157 144.905 221.932 145.054 223.786C145.204 225.64 143.016 230.389 139.876 231.861C136.736 233.333 130.251 233.516 130.251 233.516L129.779 228.937Z" fill="url(#paint42_linear_106_288)"/>
<path d="M55.2152 153.903C55.2152 153.903 69.3876 148.53 73.7113 177.103C78.0351 205.676 77.8155 225.701 92.0977 226.434C106.38 227.167 129.779 226.434 129.779 226.434L130.881 236.447C130.881 236.447 65.3041 264.287 56.6565 240.598C48.0089 216.91 21.13 166.125 55.2152 153.903Z" fill="url(#paint43_linear_106_288)"/>
</g>
<path d="M140.061 376.366V387.526C140.061 391.132 162.218 394.056 189.551 394.056C216.884 394.056 239.042 391.132 239.042 387.526V376.366H140.061Z" fill="url(#paint44_linear_106_288)"/>
<path d="M239.041 376.366C239.041 379.972 216.883 382.895 189.55 382.895C162.217 382.895 140.06 379.972 140.06 376.366C140.06 372.759 162.217 369.836 189.55 369.836C216.883 369.836 239.041 372.759 239.041 376.366Z" fill="url(#paint45_linear_106_288)"/>
<path d="M189.55 383.345C165.344 383.345 140.031 380.995 140.031 376.461C140.031 376.212 140.119 375.774 140.363 375.774C140.608 375.774 140.503 376.117 140.503 376.366C140.503 379.241 160.646 382.445 189.55 382.445C218.455 382.445 238.598 379.241 238.598 376.366C238.598 376.117 238.639 375.883 238.884 375.883C239.129 375.883 239.07 376.216 239.07 376.465C239.07 380.998 213.757 383.345 189.55 383.345Z" fill="url(#paint46_linear_106_288)"/>
<path d="M184.874 376.73C185.359 376.388 185.876 376.051 186.429 375.718C186.977 375.386 187.691 375.086 188.555 374.817C189.425 374.549 190.512 374.331 191.818 374.161C193.123 373.992 194.755 373.903 196.704 373.893C198.617 373.883 200.411 373.945 202.091 374.079C203.766 374.211 205.244 374.41 206.52 374.675C207.792 374.939 208.83 375.267 209.63 375.656C210.425 376.046 210.899 376.492 211.052 376.995L216.624 377.052C217.029 377.055 217.386 377.088 217.693 377.153C218.004 377.217 218.155 377.299 218.155 377.398L218.157 377.864L210.993 377.794C210.742 378.366 210.102 378.888 209.072 379.362C208.048 379.836 206.739 380.247 205.144 380.594L202.535 380.225C202.301 380.189 202.11 380.143 201.959 380.087C201.808 380.031 201.735 379.97 201.735 379.904C201.735 379.815 201.936 379.712 202.34 379.598C202.744 379.482 203.199 379.34 203.706 379.17C204.214 379 204.71 378.8 205.201 378.569C205.688 378.338 206.013 378.062 206.182 377.741L189.273 377.57C188.829 377.903 188.328 378.229 187.78 378.55C187.227 378.871 186.497 379.16 185.586 379.416C184.675 379.672 183.541 379.881 182.184 380.041C180.821 380.201 179.116 380.286 177.053 380.296C175.503 380.304 173.995 380.244 172.517 380.117C171.039 379.99 169.726 379.8 168.58 379.547C167.433 379.293 166.493 378.98 165.755 378.607C165.023 378.233 164.611 377.804 164.526 377.319L159.938 377.271C159.534 377.269 159.176 377.237 158.854 377.174C158.538 377.112 158.377 377.029 158.376 376.926L158.374 376.46L164.646 376.52C164.924 376.029 165.492 375.6 166.361 375.236C167.23 374.871 168.291 374.546 169.544 374.262L171.645 374.556C172.283 374.647 172.599 374.753 172.6 374.876C172.6 374.942 172.471 375.024 172.207 375.122C171.938 375.22 171.628 375.337 171.266 375.473C170.909 375.609 170.557 375.768 170.221 375.952C169.88 376.135 169.627 376.342 169.457 376.574L184.874 376.73ZM169.399 377.365C169.525 377.671 169.806 377.934 170.232 378.156C170.658 378.378 171.188 378.56 171.826 378.703C172.464 378.846 173.18 378.951 173.973 379.018C174.772 379.084 175.607 379.116 176.477 379.112C177.493 379.106 178.38 379.062 179.136 378.978C179.887 378.894 180.55 378.78 181.125 378.636C181.694 378.491 182.196 378.324 182.62 378.133C183.045 377.943 183.422 377.736 183.763 377.513L169.399 377.365ZM206.21 376.948C206.084 376.638 205.777 376.367 205.299 376.133C204.821 375.9 204.208 375.704 203.466 375.545C202.724 375.386 201.858 375.268 200.868 375.191C199.883 375.113 198.794 375.077 197.602 375.083C196.544 375.088 195.627 375.137 194.865 375.227C194.104 375.318 193.441 375.44 192.877 375.594C192.317 375.748 191.836 375.927 191.449 376.131C191.056 376.336 190.689 376.554 190.353 376.787L206.21 376.948Z" fill="#FCB048"/>
<path d="M189.558 370.542C167.491 370.542 144.514 372.517 140.839 376.338C140.983 376.473 141.116 376.617 141.241 376.768C144.338 374.115 163.311 371.443 189.558 371.443C216.479 371.443 235.755 374.254 238.09 376.973C238.205 376.824 238.327 376.681 238.46 376.547C235.425 372.59 212.017 370.542 189.558 370.542Z" fill="url(#paint47_linear_106_288)"/>
<path d="M126.302 364.643V375.803C126.302 379.409 148.459 382.332 175.792 382.332C203.125 382.332 225.283 379.409 225.283 375.803V364.643H126.302Z" fill="url(#paint48_linear_106_288)"/>
<path d="M225.283 364.643C225.283 368.249 203.125 371.172 175.792 371.172C148.459 371.172 126.302 368.249 126.302 364.643C126.302 361.037 148.459 358.113 175.792 358.113C203.125 358.113 225.283 361.037 225.283 364.643Z" fill="url(#paint49_linear_106_288)"/>
<path d="M175.793 371.622C151.586 371.622 126.273 369.272 126.273 364.738C126.273 364.489 126.361 364.051 126.606 364.051C126.851 364.051 126.745 364.393 126.745 364.643C126.745 367.518 146.889 370.721 175.793 370.721C204.697 370.721 224.84 367.518 224.84 364.643C224.84 364.394 224.882 364.16 225.127 364.16C225.372 364.16 225.312 364.492 225.312 364.742C225.312 369.275 199.999 371.622 175.793 371.622Z" fill="url(#paint50_linear_106_288)"/>
<path d="M171.116 365.007C171.601 364.665 172.118 364.328 172.671 363.995C173.219 363.663 173.933 363.362 174.797 363.094C175.667 362.826 176.754 362.607 178.06 362.438C179.365 362.269 180.998 362.18 182.947 362.17C184.859 362.16 186.653 362.222 188.333 362.355C190.008 362.488 191.486 362.687 192.763 362.952C194.034 363.216 195.072 363.544 195.872 363.932C196.667 364.322 197.141 364.769 197.294 365.272L202.866 365.329C203.271 365.332 203.628 365.365 203.935 365.43C204.246 365.494 204.397 365.576 204.397 365.675L204.399 366.141L197.235 366.071C196.984 366.643 196.344 367.165 195.315 367.639C194.29 368.114 192.981 368.524 191.386 368.871L188.777 368.502C188.544 368.466 188.352 368.42 188.201 368.364C188.05 368.308 187.978 368.247 187.977 368.181C187.977 368.092 188.178 367.989 188.582 367.875C188.986 367.759 189.441 367.617 189.949 367.447C190.456 367.278 190.952 367.077 191.444 366.846C191.93 366.615 192.255 366.339 192.425 366.018L175.515 365.847C175.071 366.18 174.57 366.506 174.022 366.827C173.469 367.148 172.739 367.437 171.828 367.693C170.917 367.95 169.783 368.158 168.426 368.318C167.063 368.478 165.358 368.563 163.295 368.573C161.745 368.581 160.237 368.521 158.759 368.395C157.281 368.267 155.968 368.077 154.822 367.824C153.675 367.57 152.735 367.257 151.997 366.884C151.265 366.51 150.853 366.081 150.768 365.596L146.18 365.548C145.776 365.546 145.418 365.514 145.097 365.451C144.78 365.389 144.619 365.306 144.618 365.203L144.616 364.736L150.889 364.797C151.166 364.306 151.734 363.877 152.603 363.513C153.472 363.148 154.533 362.823 155.786 362.539L157.887 362.832C158.525 362.923 158.842 363.03 158.843 363.153C158.843 363.219 158.714 363.301 158.45 363.398C158.181 363.496 157.87 363.614 157.508 363.749C157.151 363.886 156.799 364.045 156.463 364.229C156.122 364.411 155.869 364.619 155.699 364.851L171.116 365.007ZM155.641 365.642C155.767 365.948 156.048 366.211 156.474 366.433C156.9 366.655 157.43 366.837 158.068 366.98C158.706 367.123 159.422 367.228 160.216 367.295C161.014 367.361 161.849 367.393 162.72 367.388C163.736 367.383 164.622 367.339 165.378 367.255C166.129 367.171 166.792 367.057 167.367 366.913C167.936 366.768 168.438 366.601 168.862 366.41C169.287 366.22 169.664 366.013 170.005 365.79L155.641 365.642ZM192.452 365.225C192.326 364.915 192.019 364.643 191.541 364.41C191.063 364.177 190.451 363.981 189.709 363.822C188.966 363.663 188.1 363.545 187.11 363.468C186.125 363.39 185.036 363.354 183.844 363.36C182.786 363.366 181.869 363.414 181.107 363.505C180.346 363.596 179.683 363.717 179.119 363.872C178.56 364.025 178.078 364.204 177.691 364.409C177.298 364.613 176.931 364.832 176.595 365.065L192.452 365.225Z" fill="#FCB048"/>
<path d="M175.8 358.82C153.733 358.82 130.756 360.794 127.081 364.616C127.225 364.751 127.359 364.894 127.483 365.046C130.581 362.392 149.553 359.721 175.8 359.721C202.721 359.721 221.997 362.532 224.332 365.25C224.447 365.101 224.569 364.959 224.702 364.824C221.667 360.867 198.259 358.82 175.8 358.82Z" fill="url(#paint51_linear_106_288)"/>
<path d="M138.174 352.955V364.115C138.174 367.721 160.331 370.644 187.664 370.644C214.997 370.644 237.155 367.721 237.155 364.115V352.955H138.174Z" fill="url(#paint52_linear_106_288)"/>
<path d="M237.154 352.955C237.154 356.561 214.996 359.484 187.663 359.484C160.331 359.484 138.173 356.561 138.173 352.955C138.173 349.348 160.331 346.425 187.663 346.425C214.996 346.425 237.154 349.348 237.154 352.955Z" fill="url(#paint53_linear_106_288)"/>
<path d="M187.664 359.934C163.457 359.934 138.145 357.584 138.145 353.05C138.145 352.801 138.232 352.363 138.477 352.363C138.722 352.363 138.616 352.706 138.616 352.955C138.616 355.83 158.759 359.033 187.664 359.033C216.568 359.033 236.711 355.83 236.711 352.955C236.711 352.706 236.753 352.472 236.998 352.472C237.242 352.472 237.183 352.804 237.183 353.054C237.184 357.587 211.87 359.934 187.664 359.934Z" fill="url(#paint54_linear_106_288)"/>
<path d="M182.988 353.319C183.473 352.977 183.99 352.64 184.543 352.307C185.091 351.975 185.805 351.674 186.669 351.406C187.539 351.138 188.626 350.919 189.932 350.75C191.237 350.581 192.869 350.492 194.818 350.482C196.731 350.472 198.525 350.534 200.205 350.667C201.88 350.8 203.358 350.999 204.635 351.264C205.906 351.528 206.944 351.856 207.744 352.244C208.539 352.634 209.013 353.081 209.166 353.584L214.738 353.641C215.143 353.644 215.501 353.677 215.807 353.742C216.118 353.807 216.269 353.888 216.269 353.987L216.271 354.453L209.107 354.383C208.856 354.954 208.216 355.477 207.187 355.951C206.163 356.426 204.853 356.836 203.258 357.183L200.649 356.814C200.416 356.778 200.224 356.732 200.073 356.676C199.923 356.62 199.85 356.559 199.849 356.493C199.849 356.403 200.051 356.301 200.455 356.187C200.858 356.071 201.314 355.929 201.821 355.759C202.328 355.589 202.825 355.389 203.316 355.157C203.802 354.927 204.127 354.651 204.297 354.329L187.387 354.159C186.943 354.491 186.442 354.818 185.894 355.139C185.341 355.459 184.611 355.748 183.7 356.005C182.789 356.261 181.655 356.469 180.298 356.63C178.935 356.789 177.23 356.875 175.167 356.885C173.618 356.892 172.109 356.833 170.631 356.706C169.153 356.579 167.841 356.389 166.694 356.135C165.547 355.882 164.607 355.568 163.869 355.195C163.137 354.822 162.725 354.393 162.64 353.908L158.052 353.86C157.648 353.857 157.29 353.825 156.969 353.763C156.652 353.701 156.491 353.618 156.491 353.514L156.488 353.048L162.76 353.109C163.038 352.617 163.606 352.189 164.475 351.824C165.344 351.459 166.405 351.135 167.658 350.851L169.759 351.144C170.397 351.235 170.714 351.342 170.714 351.464C170.715 351.53 170.586 351.612 170.322 351.71C170.053 351.808 169.742 351.925 169.38 352.061C169.023 352.197 168.671 352.357 168.335 352.54C167.994 352.723 167.741 352.93 167.571 353.162L182.988 353.319ZM167.513 353.954C167.639 354.26 167.92 354.524 168.346 354.745C168.772 354.967 169.302 355.149 169.94 355.292C170.578 355.435 171.294 355.54 172.087 355.606C172.886 355.673 173.721 355.705 174.592 355.7C175.608 355.695 176.494 355.651 177.25 355.567C178.001 355.483 178.664 355.369 179.239 355.224C179.808 355.08 180.31 354.913 180.734 354.722C181.159 354.532 181.536 354.325 181.877 354.102L167.513 353.954ZM204.324 353.537C204.198 353.227 203.891 352.955 203.413 352.722C202.935 352.489 202.322 352.293 201.58 352.134C200.838 351.975 199.972 351.857 198.982 351.78C197.996 351.702 196.908 351.666 195.715 351.672C194.658 351.678 193.741 351.726 192.979 351.817C192.218 351.908 191.555 352.029 190.991 352.184C190.431 352.337 189.95 352.516 189.563 352.721C189.17 352.925 188.803 353.144 188.467 353.377L204.324 353.537Z" fill="#FCB048"/>
<path d="M187.67 347.132C165.603 347.132 142.626 349.106 138.951 352.928C139.095 353.062 139.229 353.206 139.353 353.358C142.451 350.704 161.423 348.033 187.67 348.033C214.591 348.033 233.867 350.843 236.202 353.562C236.317 353.413 236.44 353.27 236.572 353.136C233.537 349.179 210.129 347.132 187.67 347.132Z" fill="url(#paint55_linear_106_288)"/>
<path d="M145.378 341.232V352.392C145.378 355.999 167.536 358.922 194.868 358.922C222.201 358.922 244.359 355.999 244.359 352.392V341.232H145.378Z" fill="url(#paint56_linear_106_288)"/>
<path d="M244.359 341.233C244.359 344.839 222.201 347.762 194.868 347.762C167.536 347.762 145.378 344.839 145.378 341.233C145.378 337.626 167.536 334.703 194.868 334.703C222.201 334.703 244.359 337.626 244.359 341.233Z" fill="url(#paint57_linear_106_288)"/>
<path d="M194.868 348.212C170.661 348.212 145.349 345.862 145.349 341.328C145.349 341.079 145.436 340.641 145.681 340.641C145.926 340.641 145.821 340.983 145.821 341.232C145.821 344.108 165.964 347.311 194.868 347.311C223.772 347.311 243.915 344.108 243.915 341.232C243.915 340.983 243.957 340.75 244.202 340.75C244.447 340.75 244.388 341.082 244.388 341.331C244.388 345.865 219.075 348.212 194.868 348.212Z" fill="url(#paint58_linear_106_288)"/>
<path d="M190.192 341.596C190.677 341.255 191.194 340.918 191.747 340.585C192.295 340.253 193.009 339.952 193.873 339.684C194.743 339.416 195.83 339.197 197.136 339.028C198.441 338.859 200.073 338.77 202.022 338.76C203.935 338.75 205.729 338.812 207.409 338.945C209.084 339.078 210.562 339.277 211.839 339.542C213.11 339.806 214.148 340.133 214.948 340.522C215.743 340.912 216.217 341.359 216.37 341.862L221.942 341.919C222.347 341.922 222.704 341.955 223.011 342.019C223.322 342.084 223.473 342.166 223.473 342.265L223.475 342.731L216.311 342.661C216.06 343.232 215.42 343.755 214.39 344.229C213.367 344.703 212.057 345.113 210.462 345.461L207.853 345.092C207.62 345.056 207.428 345.009 207.277 344.953C207.126 344.898 207.054 344.837 207.053 344.771C207.053 344.681 207.254 344.579 207.658 344.464C208.062 344.349 208.517 344.206 209.025 344.036C209.532 343.867 210.029 343.666 210.52 343.435C211.006 343.204 211.331 342.928 211.501 342.607L194.591 342.437C194.147 342.769 193.646 343.095 193.098 343.416C192.545 343.737 191.816 344.026 190.904 344.282C189.993 344.539 188.859 344.747 187.502 344.907C186.139 345.067 184.434 345.152 182.372 345.163C180.822 345.17 179.313 345.111 177.835 344.984C176.357 344.857 175.045 344.666 173.898 344.413C172.751 344.16 171.812 343.846 171.074 343.473C170.341 343.099 169.929 342.671 169.844 342.185L165.256 342.138C164.852 342.135 164.494 342.103 164.173 342.041C163.856 341.978 163.695 341.896 163.695 341.792L163.692 341.326L169.965 341.386C170.242 340.895 170.81 340.466 171.679 340.102C172.548 339.737 173.61 339.412 174.862 339.128L176.963 339.422C177.601 339.513 177.918 339.619 177.919 339.742C177.919 339.808 177.79 339.89 177.526 339.988C177.257 340.086 176.946 340.203 176.584 340.339C176.227 340.475 175.875 340.634 175.539 340.818C175.198 341.001 174.945 341.208 174.775 341.44L190.192 341.596ZM174.717 342.232C174.843 342.538 175.124 342.801 175.55 343.023C175.976 343.245 176.506 343.427 177.144 343.57C177.782 343.713 178.498 343.818 179.291 343.884C180.09 343.951 180.925 343.983 181.796 343.978C182.812 343.973 183.698 343.928 184.454 343.845C185.205 343.76 185.868 343.647 186.443 343.502C187.012 343.358 187.514 343.191 187.939 343C188.363 342.809 188.74 342.603 189.081 342.38L174.717 342.232ZM211.528 341.815C211.402 341.505 211.095 341.233 210.617 341C210.139 340.767 209.526 340.571 208.784 340.412C208.042 340.253 207.176 340.135 206.186 340.057C205.2 339.98 204.112 339.944 202.92 339.95C201.862 339.955 200.945 340.004 200.183 340.094C199.422 340.186 198.759 340.307 198.195 340.462C197.636 340.615 197.154 340.794 196.767 340.998C196.374 341.203 196.007 341.422 195.671 341.654L211.528 341.815Z" fill="#FCB048"/>
<path d="M194.875 335.41C172.808 335.41 149.832 337.384 146.156 341.206C146.3 341.341 146.434 341.485 146.558 341.636C149.656 338.983 168.628 336.311 194.875 336.311C221.796 336.311 241.072 339.122 243.407 341.84C243.522 341.691 243.645 341.549 243.777 341.414C240.742 337.457 217.334 335.41 194.875 335.41Z" fill="url(#paint59_linear_106_288)"/>
<path d="M140.061 328.585V339.745C140.061 343.351 162.218 346.275 189.551 346.275C216.884 346.275 239.042 343.351 239.042 339.745V328.585H140.061Z" fill="url(#paint60_linear_106_288)"/>
<path d="M189.551 335.114C216.884 335.114 239.041 332.191 239.041 328.585C239.041 324.979 216.884 322.055 189.551 322.055C162.218 322.055 140.061 324.979 140.061 328.585C140.061 332.191 162.218 335.114 189.551 335.114Z" fill="url(#paint61_linear_106_288)"/>
<path d="M189.55 335.565C165.344 335.565 140.031 333.214 140.031 328.68C140.031 328.431 140.119 327.994 140.363 327.994C140.608 327.994 140.503 328.336 140.503 328.585C140.503 331.46 160.646 334.664 189.55 334.664C218.455 334.664 238.598 331.46 238.598 328.585C238.598 328.336 238.639 328.103 238.884 328.103C239.129 328.103 239.07 328.435 239.07 328.684C239.07 333.218 213.757 335.565 189.55 335.565Z" fill="url(#paint62_linear_106_288)"/>
<path d="M184.874 328.949C185.359 328.607 185.876 328.271 186.429 327.938C186.977 327.605 187.691 327.305 188.555 327.036C189.425 326.768 190.512 326.55 191.818 326.381C193.123 326.211 194.755 326.122 196.704 326.112C198.617 326.103 200.411 326.165 202.091 326.298C203.766 326.43 205.244 326.63 206.52 326.894C207.792 327.159 208.83 327.486 209.63 327.875C210.425 328.265 210.899 328.711 211.052 329.214L216.624 329.272C217.029 329.274 217.386 329.308 217.693 329.372C218.004 329.437 218.155 329.518 218.155 329.617L218.157 330.084L210.993 330.014C210.742 330.585 210.102 331.107 209.072 331.581C208.048 332.056 206.739 332.466 205.144 332.813L202.535 332.445C202.301 332.408 202.11 332.362 201.959 332.306C201.808 332.25 201.735 332.19 201.735 332.123C201.735 332.034 201.936 331.931 202.34 331.817C202.744 331.701 203.199 331.559 203.706 331.389C204.214 331.219 204.71 331.019 205.201 330.788C205.688 330.557 206.013 330.281 206.182 329.96L189.273 329.789C188.829 330.122 188.328 330.448 187.78 330.769C187.227 331.09 186.497 331.378 185.586 331.635C184.675 331.892 183.541 332.1 182.184 332.26C180.821 332.42 179.116 332.505 177.053 332.515C175.503 332.523 173.995 332.463 172.517 332.336C171.039 332.209 169.726 332.019 168.58 331.766C167.433 331.512 166.493 331.199 165.755 330.826C165.023 330.452 164.611 330.023 164.526 329.538L159.938 329.49C159.534 329.488 159.176 329.455 158.854 329.393C158.538 329.331 158.377 329.248 158.376 329.145L158.374 328.678L164.646 328.739C164.924 328.248 165.492 327.819 166.361 327.455C167.23 327.09 168.291 326.765 169.544 326.481L171.645 326.774C172.283 326.865 172.599 326.972 172.6 327.095C172.6 327.161 172.471 327.242 172.207 327.34C171.938 327.438 171.628 327.556 171.266 327.691C170.909 327.828 170.557 327.987 170.221 328.171C169.88 328.353 169.627 328.561 169.457 328.793L184.874 328.949ZM169.399 329.585C169.525 329.891 169.806 330.154 170.232 330.376C170.658 330.598 171.188 330.78 171.826 330.923C172.464 331.066 173.18 331.17 173.973 331.237C174.772 331.304 175.607 331.335 176.477 331.331C177.493 331.326 178.38 331.281 179.136 331.197C179.887 331.113 180.55 330.999 181.125 330.855C181.694 330.711 182.196 330.544 182.62 330.353C183.045 330.162 183.422 329.955 183.763 329.732L169.399 329.585ZM206.21 329.168C206.084 328.857 205.777 328.586 205.299 328.352C204.821 328.12 204.208 327.923 203.466 327.764C202.724 327.605 201.858 327.487 200.868 327.41C199.883 327.333 198.794 327.297 197.602 327.303C196.544 327.308 195.627 327.356 194.865 327.447C194.104 327.538 193.441 327.66 192.877 327.814C192.317 327.967 191.836 328.146 191.449 328.351C191.056 328.555 190.689 328.774 190.353 329.007L206.21 329.168Z" fill="#FCB048"/>
<path d="M189.558 322.762C167.491 322.762 144.514 324.736 140.839 328.558C140.983 328.693 141.116 328.837 141.241 328.988C144.338 326.335 163.311 323.663 189.558 323.663C216.479 323.663 235.755 326.474 238.09 329.192C238.205 329.043 238.327 328.901 238.46 328.766C235.425 324.809 212.017 322.762 189.558 322.762Z" fill="url(#paint63_linear_106_288)"/>
<path d="M126.302 316.863V328.023C126.302 331.629 148.459 334.552 175.792 334.552C203.125 334.552 225.283 331.629 225.283 328.023V316.863H126.302Z" fill="url(#paint64_linear_106_288)"/>
<path d="M225.283 316.863C225.283 320.469 203.125 323.393 175.792 323.393C148.459 323.393 126.302 320.469 126.302 316.863C126.302 313.257 148.459 310.333 175.792 310.333C203.125 310.333 225.283 313.257 225.283 316.863Z" fill="url(#paint65_linear_106_288)"/>
<path d="M175.793 323.843C151.586 323.843 126.273 321.492 126.273 316.959C126.273 316.71 126.361 316.272 126.606 316.272C126.851 316.272 126.745 316.614 126.745 316.863C126.745 319.739 146.889 322.942 175.793 322.942C204.697 322.942 224.84 319.739 224.84 316.863C224.84 316.614 224.882 316.381 225.127 316.381C225.372 316.381 225.312 316.713 225.312 316.962C225.312 321.496 199.999 323.843 175.793 323.843Z" fill="url(#paint66_linear_106_288)"/>
<path d="M171.116 317.227C171.601 316.885 172.118 316.548 172.671 316.215C173.219 315.883 173.933 315.582 174.797 315.314C175.667 315.046 176.754 314.827 178.06 314.658C179.365 314.489 180.998 314.399 182.947 314.39C184.859 314.38 186.653 314.442 188.333 314.575C190.008 314.708 191.486 314.907 192.763 315.171C194.034 315.436 195.072 315.763 195.872 316.152C196.667 316.542 197.141 316.988 197.294 317.492L202.866 317.549C203.271 317.552 203.628 317.585 203.935 317.649C204.246 317.714 204.397 317.796 204.397 317.895L204.399 318.361L197.235 318.291C196.984 318.862 196.344 319.385 195.315 319.859C194.29 320.333 192.981 320.744 191.386 321.091L188.777 320.722C188.544 320.686 188.352 320.64 188.201 320.583C188.05 320.528 187.978 320.467 187.977 320.401C187.977 320.311 188.178 320.209 188.582 320.094C188.986 319.979 189.441 319.836 189.949 319.666C190.456 319.497 190.952 319.297 191.444 319.065C191.93 318.834 192.255 318.558 192.425 318.237L175.515 318.067C175.071 318.399 174.57 318.725 174.022 319.046C173.469 319.367 172.739 319.656 171.828 319.913C170.917 320.169 169.783 320.377 168.426 320.538C167.063 320.698 165.358 320.782 163.295 320.793C161.745 320.8 160.237 320.741 158.759 320.614C157.281 320.487 155.968 320.296 154.822 320.043C153.675 319.79 152.735 319.476 151.997 319.103C151.265 318.729 150.853 318.301 150.768 317.816L146.18 317.768C145.776 317.765 145.418 317.733 145.097 317.671C144.78 317.609 144.619 317.526 144.618 317.422L144.616 316.956L150.889 317.017C151.166 316.525 151.734 316.097 152.603 315.732C153.472 315.367 154.533 315.043 155.786 314.759L157.887 315.052C158.525 315.143 158.842 315.25 158.843 315.372C158.843 315.438 158.714 315.52 158.45 315.618C158.181 315.716 157.87 315.833 157.508 315.969C157.151 316.105 156.799 316.265 156.463 316.448C156.122 316.631 155.869 316.838 155.699 317.07L171.116 317.227ZM155.641 317.862C155.767 318.168 156.048 318.431 156.474 318.653C156.9 318.875 157.43 319.057 158.068 319.2C158.706 319.343 159.422 319.448 160.216 319.515C161.014 319.581 161.849 319.613 162.72 319.609C163.736 319.603 164.622 319.559 165.378 319.475C166.129 319.391 166.792 319.277 167.367 319.133C167.936 318.988 168.438 318.821 168.862 318.63C169.287 318.44 169.664 318.233 170.005 318.01L155.641 317.862ZM192.452 317.445C192.326 317.135 192.019 316.863 191.541 316.63C191.063 316.397 190.451 316.2 189.709 316.042C188.966 315.883 188.1 315.765 187.11 315.687C186.125 315.61 185.036 315.574 183.844 315.58C182.786 315.585 181.869 315.634 181.107 315.724C180.346 315.815 179.683 315.937 179.119 316.091C178.56 316.245 178.078 316.424 177.691 316.628C177.298 316.833 176.931 317.051 176.595 317.284L192.452 317.445Z" fill="#FCB048"/>
<path d="M175.8 311.04C153.733 311.04 130.756 313.014 127.081 316.836C127.225 316.971 127.359 317.114 127.483 317.266C130.581 314.612 149.553 311.941 175.8 311.941C202.721 311.941 221.997 314.752 224.332 317.47C224.447 317.321 224.569 317.178 224.702 317.044C221.667 313.087 198.259 311.04 175.8 311.04Z" fill="url(#paint67_linear_106_288)"/>
<path d="M138.174 305.175V316.335C138.174 319.941 160.331 322.865 187.664 322.865C214.997 322.865 237.155 319.941 237.155 316.335V305.175H138.174Z" fill="url(#paint68_linear_106_288)"/>
<path d="M187.663 311.704C214.996 311.704 237.154 308.781 237.154 305.175C237.154 301.568 214.996 298.645 187.663 298.645C160.331 298.645 138.173 301.568 138.173 305.175C138.173 308.781 160.331 311.704 187.663 311.704Z" fill="url(#paint69_linear_106_288)"/>
<path d="M187.664 312.155C163.457 312.155 138.145 309.804 138.145 305.27C138.145 305.021 138.232 304.583 138.477 304.583C138.722 304.583 138.616 304.926 138.616 305.175C138.616 308.05 158.759 311.254 187.664 311.254C216.568 311.254 236.711 308.05 236.711 305.175C236.711 304.926 236.753 304.692 236.998 304.692C237.242 304.692 237.183 305.025 237.183 305.274C237.184 309.808 211.87 312.155 187.664 312.155Z" fill="url(#paint70_linear_106_288)"/>
<path d="M182.988 305.539C183.473 305.197 183.99 304.86 184.543 304.527C185.091 304.195 185.805 303.895 186.669 303.626C187.539 303.358 188.626 303.14 189.932 302.97C191.237 302.801 192.869 302.712 194.818 302.702C196.731 302.693 198.525 302.754 200.205 302.887C201.88 303.02 203.358 303.219 204.635 303.484C205.906 303.748 206.944 304.076 207.744 304.465C208.539 304.855 209.013 305.301 209.166 305.804L214.738 305.861C215.143 305.864 215.501 305.897 215.807 305.962C216.118 306.027 216.269 306.108 216.269 306.207L216.271 306.674L209.107 306.604C208.856 307.175 208.216 307.697 207.187 308.171C206.163 308.646 204.853 309.056 203.258 309.403L200.649 309.035C200.416 308.998 200.224 308.952 200.073 308.896C199.923 308.84 199.85 308.78 199.849 308.714C199.849 308.624 200.051 308.522 200.455 308.407C200.858 308.292 201.314 308.149 201.821 307.979C202.328 307.81 202.825 307.609 203.316 307.378C203.802 307.147 204.127 306.871 204.297 306.55L187.387 306.379C186.943 306.712 186.442 307.038 185.894 307.359C185.341 307.68 184.611 307.969 183.7 308.225C182.789 308.482 181.655 308.69 180.298 308.85C178.935 309.01 177.23 309.095 175.167 309.105C173.618 309.113 172.109 309.053 170.631 308.927C169.153 308.8 167.841 308.609 166.694 308.356C165.547 308.103 164.607 307.789 163.869 307.416C163.137 307.042 162.725 306.613 162.64 306.129L158.052 306.081C157.648 306.078 157.29 306.046 156.969 305.984C156.652 305.921 156.491 305.839 156.491 305.735L156.488 305.269L162.76 305.33C163.038 304.838 163.606 304.41 164.475 304.045C165.344 303.68 166.405 303.356 167.658 303.072L169.759 303.365C170.397 303.456 170.714 303.563 170.714 303.685C170.715 303.751 170.586 303.833 170.322 303.931C170.053 304.029 169.742 304.146 169.38 304.282C169.023 304.418 168.671 304.578 168.335 304.761C167.994 304.944 167.741 305.151 167.571 305.383L182.988 305.539ZM167.513 306.174C167.639 306.481 167.92 306.744 168.346 306.965C168.772 307.188 169.302 307.369 169.94 307.512C170.578 307.655 171.294 307.76 172.087 307.827C172.886 307.894 173.721 307.925 174.592 307.921C175.608 307.916 176.494 307.871 177.25 307.787C178.001 307.703 178.664 307.589 179.239 307.445C179.808 307.3 180.31 307.133 180.734 306.943C181.159 306.752 181.536 306.545 181.877 306.322L167.513 306.174ZM204.324 305.757C204.198 305.447 203.891 305.176 203.413 304.942C202.935 304.709 202.322 304.513 201.58 304.354C200.838 304.195 199.972 304.077 198.982 304C197.996 303.922 196.908 303.886 195.715 303.892C194.658 303.898 193.741 303.946 192.979 304.037C192.218 304.128 191.555 304.25 190.991 304.404C190.431 304.557 189.95 304.736 189.563 304.941C189.17 305.145 188.803 305.364 188.467 305.597L204.324 305.757Z" fill="#FCB048"/>
<path d="M187.67 299.352C165.603 299.352 142.626 301.326 138.951 305.148C139.095 305.283 139.229 305.426 139.353 305.578C142.451 302.924 161.423 300.253 187.67 300.253C214.591 300.253 233.867 303.064 236.202 305.782C236.317 305.633 236.44 305.49 236.572 305.356C233.537 301.399 210.129 299.352 187.67 299.352Z" fill="url(#paint71_linear_106_288)"/>
<path d="M131.998 293.453V304.613C131.998 308.219 154.156 311.142 181.488 311.142C208.821 311.142 230.979 308.219 230.979 304.613V293.453H131.998Z" fill="url(#paint72_linear_106_288)"/>
<path d="M181.488 299.982C208.821 299.982 230.979 297.059 230.979 293.452C230.979 289.846 208.821 286.923 181.488 286.923C154.156 286.923 131.998 289.846 131.998 293.452C131.998 297.059 154.156 299.982 181.488 299.982Z" fill="url(#paint73_linear_106_288)"/>
<path d="M181.489 300.433C157.282 300.433 131.97 298.082 131.97 293.548C131.97 293.299 132.057 292.861 132.302 292.861C132.547 292.861 132.442 293.204 132.442 293.453C132.442 296.328 152.585 299.532 181.489 299.532C210.393 299.532 230.536 296.328 230.536 293.453C230.536 293.204 230.578 292.97 230.823 292.97C231.068 292.97 231.009 293.303 231.009 293.552C231.009 298.086 205.695 300.433 181.489 300.433Z" fill="url(#paint74_linear_106_288)"/>
<path d="M176.813 293.817C177.298 293.475 177.815 293.138 178.368 292.805C178.916 292.473 179.63 292.172 180.494 291.904C181.364 291.636 182.451 291.417 183.757 291.248C185.062 291.079 186.694 290.99 188.643 290.98C190.556 290.97 192.35 291.032 194.03 291.165C195.705 291.298 197.183 291.497 198.459 291.761C199.731 292.026 200.769 292.353 201.569 292.742C202.364 293.132 202.838 293.579 202.991 294.082L208.563 294.139C208.968 294.142 209.326 294.175 209.632 294.24C209.943 294.304 210.094 294.386 210.094 294.485L210.096 294.951L202.932 294.881C202.681 295.452 202.041 295.975 201.012 296.449C199.988 296.923 198.678 297.334 197.083 297.681L194.474 297.312C194.241 297.276 194.049 297.23 193.898 297.173C193.747 297.118 193.675 297.057 193.674 296.991C193.674 296.901 193.876 296.799 194.279 296.684C194.683 296.569 195.139 296.426 195.646 296.256C196.153 296.087 196.65 295.887 197.141 295.655C197.627 295.425 197.952 295.149 198.122 294.827L181.212 294.657C180.768 294.989 180.267 295.316 179.719 295.637C179.166 295.957 178.436 296.246 177.525 296.503C176.614 296.759 175.48 296.968 174.123 297.128C172.76 297.288 171.055 297.373 168.992 297.383C167.443 297.391 165.934 297.331 164.456 297.204C162.978 297.077 161.666 296.887 160.519 296.634C159.372 296.38 158.433 296.067 157.695 295.694C156.962 295.32 156.55 294.891 156.465 294.406L151.877 294.358C151.473 294.356 151.115 294.324 150.794 294.261C150.477 294.199 150.316 294.116 150.316 294.013L150.313 293.546L156.586 293.607C156.863 293.116 157.431 292.687 158.301 292.323C159.17 291.958 160.231 291.633 161.484 291.349L163.584 291.643C164.222 291.734 164.539 291.84 164.54 291.963C164.54 292.029 164.411 292.111 164.147 292.209C163.878 292.307 163.568 292.424 163.205 292.56C162.848 292.696 162.497 292.855 162.16 293.039C161.819 293.222 161.566 293.429 161.396 293.661L176.813 293.817ZM161.338 294.452C161.464 294.758 161.745 295.021 162.171 295.243C162.597 295.465 163.127 295.647 163.765 295.79C164.403 295.933 165.119 296.038 165.912 296.104C166.711 296.171 167.546 296.203 168.416 296.198C169.432 296.193 170.319 296.149 171.075 296.065C171.826 295.981 172.489 295.867 173.064 295.722C173.633 295.578 174.135 295.411 174.559 295.22C174.983 295.03 175.361 294.823 175.702 294.6L161.338 294.452ZM198.149 294.035C198.023 293.725 197.716 293.453 197.238 293.22C196.76 292.987 196.147 292.791 195.405 292.632C194.663 292.473 193.797 292.355 192.807 292.277C191.821 292.2 190.733 292.164 189.54 292.17C188.483 292.175 187.566 292.224 186.804 292.314C186.043 292.406 185.38 292.527 184.816 292.681C184.256 292.835 183.775 293.014 183.387 293.218C182.995 293.423 182.628 293.641 182.292 293.874L198.149 294.035Z" fill="#FCB048"/>
<path d="M181.495 287.63C159.428 287.63 136.452 289.604 132.776 293.426C132.92 293.56 133.054 293.704 133.178 293.856C136.276 291.202 155.248 288.531 181.495 288.531C208.416 288.531 227.692 291.341 230.027 294.06C230.142 293.911 230.265 293.768 230.397 293.634C227.362 289.677 203.954 287.63 181.495 287.63Z" fill="url(#paint75_linear_106_288)"/>
<path d="M245.058 301.32L236.112 307.789C233.222 309.879 243.722 329.93 259.565 352.575C275.408 375.219 290.594 391.882 293.485 389.791L302.43 383.323L245.058 301.32Z" fill="url(#paint76_linear_106_288)"/>
<path d="M302.43 383.322C299.539 385.413 284.353 368.75 268.51 346.106C252.667 323.462 242.167 303.41 245.058 301.32C247.948 299.23 263.135 315.892 278.977 338.536C294.82 361.181 305.32 381.232 302.43 383.322Z" fill="url(#paint77_linear_106_288)"/>
<path d="M268.149 346.367C254.118 326.312 241.33 303.979 244.964 301.351C245.164 301.207 245.565 301.026 245.707 301.229C245.849 301.432 245.514 301.543 245.314 301.687C243.009 303.354 252.117 321.898 268.871 345.844C285.625 369.791 299.868 384.622 302.173 382.955C302.372 382.811 302.583 382.71 302.725 382.913C302.867 383.116 302.567 383.26 302.367 383.404C298.733 386.032 282.18 366.421 268.149 346.367Z" fill="url(#paint78_linear_106_288)"/>
<path d="M270.741 338.658C271.296 338.862 271.866 339.095 272.453 339.36C273.037 339.621 273.692 340.038 274.408 340.599C275.127 341.164 275.932 341.938 276.824 342.922C277.717 343.905 278.735 345.206 279.872 346.815C280.988 348.394 281.978 349.916 282.846 351.385C283.71 352.849 284.407 354.189 284.935 355.4C285.46 356.607 285.799 357.656 285.951 358.545C286.1 359.429 286.017 360.081 285.702 360.499L288.886 365.149C289.118 365.485 289.299 365.801 289.425 366.092C289.553 366.388 289.575 366.559 289.496 366.617L289.124 366.889L285.027 360.914C284.424 361.037 283.634 360.809 282.657 360.231C281.684 359.658 280.596 358.811 279.393 357.691L278.176 355.316C278.07 355.101 277.996 354.915 277.954 354.758C277.911 354.601 277.917 354.506 277.97 354.467C278.042 354.415 278.241 354.522 278.567 354.79C278.893 355.058 279.271 355.353 279.702 355.674C280.131 355.996 280.58 356.292 281.05 356.565C281.517 356.834 281.926 356.943 282.282 356.897L272.618 342.79C272.094 342.614 271.542 342.388 270.967 342.12C270.389 341.848 269.735 341.411 269.001 340.805C268.268 340.199 267.443 339.38 266.528 338.348C265.61 337.312 264.554 335.949 263.35 334.246C262.445 332.966 261.619 331.682 260.864 330.384C260.109 329.086 259.501 327.888 259.039 326.792C258.578 325.694 258.284 324.734 258.155 323.907C258.03 323.083 258.135 322.494 258.475 322.142L255.854 318.313C255.622 317.977 255.44 317.662 255.304 317.359C255.17 317.061 255.143 316.88 255.226 316.819L255.598 316.547L259.185 321.778C259.74 321.724 260.412 321.946 261.208 322.455C262.005 322.963 262.88 323.654 263.834 324.527L264.816 326.438C265.113 327.019 265.211 327.343 265.114 327.415C265.061 327.454 264.92 327.394 264.689 327.232C264.454 327.066 264.18 326.877 263.862 326.655C263.545 326.438 263.214 326.24 262.872 326.067C262.528 325.891 262.215 325.801 261.93 325.795L270.741 338.658ZM261.262 326.206C261.089 326.487 261.041 326.873 261.111 327.354C261.18 327.836 261.341 328.38 261.596 328.992C261.851 329.604 262.183 330.257 262.589 330.953C262.998 331.653 263.457 332.363 263.965 333.082C264.558 333.921 265.108 334.629 265.613 335.207C266.116 335.781 266.591 336.264 267.04 336.657C267.486 337.045 267.911 337.364 268.31 337.605C268.708 337.845 269.093 338.038 269.469 338.191L261.262 326.206ZM282.933 356.461C283.108 356.177 283.148 355.765 283.058 355.233C282.968 354.702 282.77 354.081 282.467 353.374C282.164 352.667 281.757 351.881 281.245 351.016C280.736 350.155 280.134 349.232 279.438 348.248C278.821 347.375 278.25 346.643 277.736 346.064C277.222 345.486 276.74 345.008 276.289 344.63C275.842 344.255 275.42 343.96 275.031 343.758C274.64 343.551 274.252 343.373 273.871 343.23L282.933 356.461Z" fill="#FCB048"/>
<path d="M278.415 338.951C265.624 320.67 250.724 302.779 245.531 301.949C245.506 302.146 245.468 302.34 245.419 302.531C249.341 303.559 262.479 317.729 277.693 339.473C293.297 361.776 302.217 379.375 301.392 382.886C301.578 382.894 301.763 382.913 301.948 382.945C303.36 378.137 291.433 357.558 278.415 338.951Z" fill="url(#paint79_linear_106_288)"/>
<path d="M248.592 56.6422L267.704 69.6593L280.705 51.3237L283.299 64.6269L270.296 82.9531L251.185 69.9452L248.592 56.6422Z" fill="url(#paint80_linear_106_288)"/>
<path d="M235.171 22.8593C197.077 1.25936 148.622 13.4783 127.155 50.0944C124.491 54.6333 122.355 59.3626 120.73 64.2124C118.242 71.6616 116.971 79.3894 116.903 87.1273L128.155 73.5549C129.613 67.0927 132.076 60.7903 135.556 54.8553C154.41 22.6905 196.974 11.9626 230.435 30.9379C244.331 38.8137 254.856 50.6827 260.736 64.914C261.887 67.68 262.855 70.537 263.64 73.4739C264.311 75.991 266.944 77.5386 269.523 76.9337C272.098 76.331 273.641 73.8017 272.971 71.2847C272.397 69.1513 271.743 67.0581 271.007 65.0002C264.638 47.2683 252.101 32.4632 235.171 22.8593Z" fill="url(#paint81_linear_106_288)"/>
<path d="M345.452 398.304C362.507 396.077 384.131 390.223 392.816 373.718C394.882 369.792 396.955 362.164 391.74 359.292C386.973 356.666 380.809 359.439 377.266 362.856C374.661 365.368 372.629 370.975 369.702 372.748C365.418 375.343 363.112 368.262 363.202 365.34C363.403 358.807 371.309 356.132 376.562 354.713C385.283 352.358 395.436 350.34 394.89 340.348C394.343 330.357 384.762 324.364 377.39 328.735C371.317 332.337 372.172 340.024 368.022 344.636C364.336 348.734 363.053 342.083 363.299 338.823C363.834 331.74 369.959 326.617 374.466 321.871C379.562 316.505 385.191 305.709 379.76 298.614C376.634 294.531 368.694 293.575 364.001 294.264C341.03 297.636 356.262 327.859 352.085 331.231C347.909 334.603 343.957 328.701 343.967 319.725C343.978 310.749 342.626 304.13 333.413 307.003C324.2 309.875 322.446 333.319 332.966 342.329C343.486 351.339 332.306 361.169 329.482 354.712C327.443 350.05 325.65 337.84 319.758 336.501C309.939 334.274 310.085 354.657 312.91 359.401C316.872 366.051 325.828 367.496 330.831 373.233C332.284 374.9 335.564 379.028 334.29 381.464C332.513 384.862 327.554 381.227 325.732 379.653C321.636 376.112 315.966 364.081 310.196 372.071C303.071 381.937 314.987 396.563 345.452 398.304Z" fill="url(#paint82_linear_106_288)"/>
<g opacity="0.8">
<path d="M347.908 396.674C347.508 396.674 347.179 396.289 347.172 395.88C347.165 395.526 346.69 359.953 361.958 317.681C362.098 317.292 362.522 317.079 362.904 317.221C363.286 317.364 363.482 317.787 363.342 318.175C348.168 360.187 348.639 395.504 348.645 395.855C348.653 396.269 348.329 396.674 347.923 396.674C347.918 396.674 347.913 396.674 347.908 396.674Z" fill="white"/>
</g>
<path d="M354.182 383.098C351.417 380.707 345.543 384.447 343.105 385.87C341.691 386.695 339.756 387.961 338.055 387.226C336.268 386.455 336.394 384.548 337.474 383.196C339.409 380.777 343.121 380.112 345.819 378.933C348.717 377.666 351.378 375.942 352.807 372.968C353.946 370.597 354.206 367.093 352.924 364.758C349.374 358.296 344.206 363.338 341.317 367.193C339.915 369.063 336.775 372.285 334.394 370.08C331.862 367.734 334.035 363.55 336 361.706C338.567 359.295 341.675 357.62 344.471 355.524C346.992 353.635 349.581 350.928 347.903 347.578C346.606 344.991 343.343 343.559 340.556 343.778C334.114 344.285 333.11 353.848 328.867 357.52C327.367 358.818 323.957 359.851 322.167 358.577C320.346 357.277 321.53 354.306 322.185 352.685C324.127 347.879 338.065 331.767 326.514 329.744C323.607 329.235 319.6 330.166 317.316 332.045C313.006 335.59 310.719 342.611 309.584 347.939C307.799 356.321 307.9 365.63 309.893 373.965C314.298 392.387 324.651 398.304 324.651 398.304C329.129 399.803 334.728 400.542 339.37 399.543C344.827 398.368 351.353 394.262 354.051 389.138C354.924 387.481 355.894 384.58 354.182 383.098Z" fill="url(#paint83_linear_106_288)"/>
<defs>
<linearGradient id="paint0_linear_106_288" x1="23.4227" y1="117.269" x2="204.4" y2="117.269" gradientUnits="userSpaceOnUse">
<stop offset="0.0036" stop-color="#E38DDD"/>
<stop offset="1" stop-color="#9571F6"/>
</linearGradient>
<linearGradient id="paint1_linear_106_288" x1="247.994" y1="195.841" x2="343.042" y2="241.366" gradientUnits="userSpaceOnUse">
<stop stop-color="#444B8C"/>
<stop offset="0.9964" stop-color="#26264F"/>
</linearGradient>
<linearGradient id="paint2_linear_106_288" x1="277.238" y1="226.367" x2="362.136" y2="230.543" gradientUnits="userSpaceOnUse">
<stop stop-color="#444B8C"/>
<stop offset="0.9964" stop-color="#26264F"/>
</linearGradient>
<linearGradient id="paint3_linear_106_288" x1="313.571" y1="88.0357" x2="460.479" y2="479.389" gradientUnits="userSpaceOnUse">
<stop stop-color="#FFC444"/>
<stop offset="0.9964" stop-color="#F36F56"/>
</linearGradient>
<linearGradient id="paint4_linear_106_288" x1="154.235" y1="195.847" x2="59.1805" y2="241.376" gradientUnits="userSpaceOnUse">
<stop stop-color="#444B8C"/>
<stop offset="0.9964" stop-color="#26264F"/>
</linearGradient>
<linearGradient id="paint5_linear_106_288" x1="69.4454" y1="227.853" x2="168.016" y2="232.701" gradientUnits="userSpaceOnUse">
<stop stop-color="#444B8C"/>
<stop offset="0.9964" stop-color="#26264F"/>
</linearGradient>
<linearGradient id="paint6_linear_106_288" x1="88.6513" y1="88.0357" x2="-58.2564" y2="479.388" gradientUnits="userSpaceOnUse">
<stop stop-color="#FFC444"/>
<stop offset="0.9964" stop-color="#F36F56"/>
</linearGradient>
<linearGradient id="paint7_linear_106_288" x1="281.831" y1="322.225" x2="313.337" y2="322.225" gradientUnits="userSpaceOnUse">
<stop stop-color="#311944"/>
<stop offset="1" stop-color="#893976"/>
</linearGradient>
<linearGradient id="paint8_linear_106_288" x1="281.831" y1="322.225" x2="313.337" y2="322.225" gradientUnits="userSpaceOnUse">
<stop stop-color="#311944"/>
<stop offset="1" stop-color="#893976"/>
</linearGradient>
<linearGradient id="paint9_linear_106_288" x1="307.984" y1="442.139" x2="321.572" y2="332.437" gradientUnits="userSpaceOnUse">
<stop stop-color="#311944"/>
<stop offset="1" stop-color="#893976"/>
</linearGradient>
<linearGradient id="paint10_linear_106_288" x1="187.954" y1="186.662" x2="218.299" y2="217.043" gradientUnits="userSpaceOnUse">
<stop stop-color="#FFC444"/>
<stop offset="0.9964" stop-color="#F36F56"/>
</linearGradient>
<linearGradient id="paint11_linear_106_288" x1="331.604" y1="94.5659" x2="185.058" y2="241.937" gradientUnits="userSpaceOnUse">
<stop stop-color="#AA80F9"/>
<stop offset="0.9964" stop-color="#6165D7"/>
</linearGradient>
<linearGradient id="paint12_linear_106_288" x1="224.397" y1="324.513" x2="330.362" y2="174.879" gradientUnits="userSpaceOnUse">
<stop stop-color="#AA80F9"/>
<stop offset="0.9964" stop-color="#6165D7"/>
</linearGradient>
<linearGradient id="paint13_linear_106_288" x1="294.053" y1="121.544" x2="307.476" y2="166.225" gradientUnits="userSpaceOnUse">
<stop stop-color="#FFC444"/>
<stop offset="0.9964" stop-color="#F36F56"/>
</linearGradient>
<linearGradient id="paint14_linear_106_288" x1="255.454" y1="318.585" x2="332.496" y2="209.794" gradientUnits="userSpaceOnUse">
<stop stop-color="#AA80F9"/>
<stop offset="0.9964" stop-color="#6165D7"/>
</linearGradient>
<linearGradient id="paint15_linear_106_288" x1="297.787" y1="128.556" x2="295.22" y2="165.545" gradientUnits="userSpaceOnUse">
<stop stop-color="#311944"/>
<stop offset="1" stop-color="#6B3976"/>
</linearGradient>
<linearGradient id="paint16_linear_106_288" x1="303.807" y1="199.192" x2="303.807" y2="121.805" gradientUnits="userSpaceOnUse">
<stop stop-color="#311944"/>
<stop offset="1" stop-color="#6B3976"/>
</linearGradient>
<linearGradient id="paint17_linear_106_288" x1="285.699" y1="107.479" x2="298.289" y2="123.21" gradientUnits="userSpaceOnUse">
<stop stop-color="#444B8C"/>
<stop offset="0.9964" stop-color="#26264F"/>
</linearGradient>
<linearGradient id="paint18_linear_106_288" x1="293.873" y1="119.735" x2="314.734" y2="159.925" gradientUnits="userSpaceOnUse">
<stop stop-color="#FFC444"/>
<stop offset="0.9964" stop-color="#F36F56"/>
</linearGradient>
<linearGradient id="paint19_linear_106_288" x1="284.049" y1="108.801" x2="296.638" y2="124.531" gradientUnits="userSpaceOnUse">
<stop stop-color="#444B8C"/>
<stop offset="0.9964" stop-color="#26264F"/>
</linearGradient>
<linearGradient id="paint20_linear_106_288" x1="292.135" y1="126.717" x2="295.537" y2="131.281" gradientUnits="userSpaceOnUse">
<stop stop-color="#FFC444"/>
<stop offset="1" stop-color="#F36F56"/>
</linearGradient>
<linearGradient id="paint21_linear_106_288" x1="268.396" y1="220.543" x2="256.989" y2="234.524" gradientUnits="userSpaceOnUse">
<stop stop-color="#FFC444"/>
<stop offset="0.9964" stop-color="#F36F56"/>
</linearGradient>
<linearGradient id="paint22_linear_106_288" x1="357.129" y1="156.721" x2="239.174" y2="301.289" gradientUnits="userSpaceOnUse">
<stop stop-color="#AA80F9"/>
<stop offset="0.9964" stop-color="#6165D7"/>
</linearGradient>
<linearGradient id="paint23_linear_106_288" x1="110.086" y1="334.469" x2="78.2207" y2="334.469" gradientUnits="userSpaceOnUse">
<stop stop-color="#444B8C"/>
<stop offset="0.9964" stop-color="#26264F"/>
</linearGradient>
<linearGradient id="paint24_linear_106_288" x1="110.086" y1="334.469" x2="78.2206" y2="334.469" gradientUnits="userSpaceOnUse">
<stop stop-color="#444B8C"/>
<stop offset="0.9964" stop-color="#26264F"/>
</linearGradient>
<linearGradient id="paint25_linear_106_288" x1="83.6353" y1="455.752" x2="69.8926" y2="344.797" gradientUnits="userSpaceOnUse">
<stop stop-color="#444B8C"/>
<stop offset="0.9964" stop-color="#26264F"/>
</linearGradient>
<linearGradient id="paint26_linear_106_288" x1="205.036" y1="197.359" x2="174.344" y2="228.086" gradientUnits="userSpaceOnUse">
<stop stop-color="#FFC444"/>
<stop offset="0.9964" stop-color="#F36F56"/>
</linearGradient>
<linearGradient id="paint27_linear_106_288" x1="59.7458" y1="104.21" x2="207.965" y2="253.264" gradientUnits="userSpaceOnUse">
<stop stop-color="#FF9085"/>
<stop offset="1" stop-color="#FB6FBB"/>
</linearGradient>
<linearGradient id="paint28_linear_106_288" x1="168.16" y1="336.772" x2="60.9942" y2="185.443" gradientUnits="userSpaceOnUse">
<stop stop-color="#FF9085"/>
<stop offset="1" stop-color="#FB6FBB"/>
</linearGradient>
<linearGradient id="paint29_linear_106_288" x1="-8.46299" y1="344.858" x2="106.881" y2="181.98" gradientUnits="userSpaceOnUse">
<stop stop-color="#FF9085"/>
<stop offset="1" stop-color="#FB6FBB"/>
</linearGradient>
<linearGradient id="paint30_linear_106_288" x1="107.802" y1="172.771" x2="84.2019" y2="139.445" gradientUnits="userSpaceOnUse">
<stop stop-color="#FFC444"/>
<stop offset="0.9964" stop-color="#F36F56"/>
</linearGradient>
<linearGradient id="paint31_linear_106_288" x1="85.4825" y1="151.358" x2="99.2729" y2="116.907" gradientUnits="userSpaceOnUse">
<stop stop-color="#444B8C"/>
<stop offset="0.9964" stop-color="#3E4177"/>
</linearGradient>
<linearGradient id="paint32_linear_106_288" x1="122.49" y1="186.188" x2="162.84" y2="266.579" gradientUnits="userSpaceOnUse">
<stop stop-color="#FFC444"/>
<stop offset="0.9964" stop-color="#F36F56"/>
</linearGradient>
<linearGradient id="paint33_linear_106_288" x1="136.672" y1="330.853" x2="58.7503" y2="220.82" gradientUnits="userSpaceOnUse">
<stop stop-color="#FF9085"/>
<stop offset="1" stop-color="#FB6FBB"/>
</linearGradient>
<linearGradient id="paint34_linear_106_288" x1="93.9489" y1="138.588" x2="96.5452" y2="176" gradientUnits="userSpaceOnUse">
<stop stop-color="#311944"/>
<stop offset="1" stop-color="#6B3976"/>
</linearGradient>
<linearGradient id="paint35_linear_106_288" x1="87.8594" y1="210.031" x2="87.8594" y2="131.76" gradientUnits="userSpaceOnUse">
<stop stop-color="#311944"/>
<stop offset="1" stop-color="#6B3976"/>
</linearGradient>
<linearGradient id="paint36_linear_106_288" x1="157.131" y1="200.324" x2="94.905" y2="219.967" gradientUnits="userSpaceOnUse">
<stop stop-color="#FCB148"/>
<stop offset="0.0521" stop-color="#FDBA46"/>
<stop offset="0.1424" stop-color="#FFC244"/>
<stop offset="0.3183" stop-color="#FFC444"/>
<stop offset="0.4849" stop-color="#FDB946"/>
<stop offset="0.7754" stop-color="#F99C4D"/>
<stop offset="0.8658" stop-color="#F8924F"/>
<stop offset="1" stop-color="#F8924F"/>
</linearGradient>
<linearGradient id="paint37_linear_106_288" x1="207.316" y1="137.543" x2="150.398" y2="261.058" gradientUnits="userSpaceOnUse">
<stop stop-color="#FFDB44"/>
<stop offset="1" stop-color="#FEEF06"/>
</linearGradient>
<linearGradient id="paint38_linear_106_288" x1="197.128" y1="268.708" x2="186.094" y2="209.421" gradientUnits="userSpaceOnUse">
<stop stop-color="#FCB148"/>
<stop offset="0.0521" stop-color="#FDBA46"/>
<stop offset="0.1424" stop-color="#FFC244"/>
<stop offset="0.3183" stop-color="#FFC444"/>
<stop offset="0.4849" stop-color="#FDB946"/>
<stop offset="0.7754" stop-color="#F99C4D"/>
<stop offset="0.8658" stop-color="#F8924F"/>
<stop offset="1" stop-color="#F8924F"/>
</linearGradient>
<linearGradient id="paint39_linear_106_288" x1="174.471" y1="172.641" x2="219.714" y2="267.11" gradientUnits="userSpaceOnUse">
<stop stop-color="#FCB148"/>
<stop offset="0.0521" stop-color="#FDBA46"/>
<stop offset="0.1424" stop-color="#FFC244"/>
<stop offset="0.3183" stop-color="#FFC444"/>
<stop offset="0.4849" stop-color="#FDB946"/>
<stop offset="0.7754" stop-color="#F99C4D"/>
<stop offset="0.8658" stop-color="#F8924F"/>
<stop offset="1" stop-color="#F8924F"/>
</linearGradient>
<linearGradient id="paint40_linear_106_288" x1="172.717" y1="152.188" x2="195.555" y2="236.377" gradientUnits="userSpaceOnUse">
<stop stop-color="#FFDB44"/>
<stop offset="1" stop-color="#FEEF06"/>
</linearGradient>
<linearGradient id="paint41_linear_106_288" x1="161.515" y1="178.791" x2="206.667" y2="273.07" gradientUnits="userSpaceOnUse">
<stop stop-color="#FCB148"/>
<stop offset="0.0521" stop-color="#FDBA46"/>
<stop offset="0.1424" stop-color="#FFC244"/>
<stop offset="0.3183" stop-color="#FFC444"/>
<stop offset="0.4849" stop-color="#FDB946"/>
<stop offset="0.7754" stop-color="#F99C4D"/>
<stop offset="0.8658" stop-color="#F8924F"/>
<stop offset="1" stop-color="#F8924F"/>
</linearGradient>
<linearGradient id="paint42_linear_106_288" x1="105.745" y1="199.225" x2="152.093" y2="240.471" gradientUnits="userSpaceOnUse">
<stop stop-color="#FFC444"/>
<stop offset="0.9964" stop-color="#F36F56"/>
</linearGradient>
<linearGradient id="paint43_linear_106_288" x1="34.1501" y1="174.843" x2="174.756" y2="299.972" gradientUnits="userSpaceOnUse">
<stop stop-color="#FF9085"/>
<stop offset="1" stop-color="#FB6FBB"/>
</linearGradient>
<linearGradient id="paint44_linear_106_288" x1="131.599" y1="385.211" x2="245.47" y2="385.211" gradientUnits="userSpaceOnUse">
<stop stop-color="#F57E53"/>
<stop offset="0.0045" stop-color="#F58152"/>
<stop offset="0.042" stop-color="#F99A4D"/>
<stop offset="0.084" stop-color="#FCAD49"/>
<stop offset="0.1333" stop-color="#FEBA46"/>
<stop offset="0.1962" stop-color="#FFC244"/>
<stop offset="0.3183" stop-color="#FFC444"/>
<stop offset="0.455" stop-color="#FDB946"/>
<stop offset="0.6941" stop-color="#F99C4C"/>
<stop offset="0.9964" stop-color="#F36F56"/>
</linearGradient>
<linearGradient id="paint45_linear_106_288" x1="189.057" y1="372.169" x2="195.259" y2="423.238" gradientUnits="userSpaceOnUse">
<stop stop-color="#FFDB44"/>
<stop offset="1" stop-color="#FEEF06"/>
</linearGradient>
<linearGradient id="paint46_linear_106_288" x1="188.797" y1="369.891" x2="190.701" y2="385.575" gradientUnits="userSpaceOnUse">
<stop stop-color="#FFDB44"/>
<stop offset="1" stop-color="#FEEF06"/>
</linearGradient>
<linearGradient id="paint47_linear_106_288" x1="190.53" y1="383.937" x2="188.632" y2="368.309" gradientUnits="userSpaceOnUse">
<stop offset="0.0036" stop-color="#F36F56"/>
<stop offset="0.3059" stop-color="#F99C4C"/>
<stop offset="0.545" stop-color="#FDB946"/>
<stop offset="0.6817" stop-color="#FFC444"/>
<stop offset="0.8038" stop-color="#FFC244"/>
<stop offset="0.8667" stop-color="#FEBA46"/>
<stop offset="0.916" stop-color="#FCAD49"/>
<stop offset="0.958" stop-color="#F99A4D"/>
<stop offset="0.9955" stop-color="#F58152"/>
<stop offset="1" stop-color="#F57E53"/>
</linearGradient>
<linearGradient id="paint48_linear_106_288" x1="117.84" y1="373.487" x2="231.712" y2="373.487" gradientUnits="userSpaceOnUse">
<stop stop-color="#F57E53"/>
<stop offset="0.0045" stop-color="#F58152"/>
<stop offset="0.042" stop-color="#F99A4D"/>
<stop offset="0.084" stop-color="#FCAD49"/>
<stop offset="0.1333" stop-color="#FEBA46"/>
<stop offset="0.1962" stop-color="#FFC244"/>
<stop offset="0.3183" stop-color="#FFC444"/>
<stop offset="0.455" stop-color="#FDB946"/>
<stop offset="0.6941" stop-color="#F99C4C"/>
<stop offset="0.9964" stop-color="#F36F56"/>
</linearGradient>
<linearGradient id="paint49_linear_106_288" x1="175.299" y1="360.447" x2="181.501" y2="411.516" gradientUnits="userSpaceOnUse">
<stop stop-color="#FFDB44"/>
<stop offset="1" stop-color="#FEEF06"/>
</linearGradient>
<linearGradient id="paint50_linear_106_288" x1="175.039" y1="358.168" x2="176.944" y2="373.852" gradientUnits="userSpaceOnUse">
<stop stop-color="#FFDB44"/>
<stop offset="1" stop-color="#FEEF06"/>
</linearGradient>
<linearGradient id="paint51_linear_106_288" x1="176.772" y1="372.215" x2="174.874" y2="356.586" gradientUnits="userSpaceOnUse">
<stop offset="0.0036" stop-color="#F36F56"/>
<stop offset="0.3059" stop-color="#F99C4C"/>
<stop offset="0.545" stop-color="#FDB946"/>
<stop offset="0.6817" stop-color="#FFC444"/>
<stop offset="0.8038" stop-color="#FFC244"/>
<stop offset="0.8667" stop-color="#FEBA46"/>
<stop offset="0.916" stop-color="#FCAD49"/>
<stop offset="0.958" stop-color="#F99A4D"/>
<stop offset="0.9955" stop-color="#F58152"/>
<stop offset="1" stop-color="#F57E53"/>
</linearGradient>
<linearGradient id="paint52_linear_106_288" x1="129.712" y1="361.799" x2="243.584" y2="361.799" gradientUnits="userSpaceOnUse">
<stop stop-color="#F57E53"/>
<stop offset="0.0045" stop-color="#F58152"/>
<stop offset="0.042" stop-color="#F99A4D"/>
<stop offset="0.084" stop-color="#FCAD49"/>
<stop offset="0.1333" stop-color="#FEBA46"/>
<stop offset="0.1962" stop-color="#FFC244"/>
<stop offset="0.3183" stop-color="#FFC444"/>
<stop offset="0.455" stop-color="#FDB946"/>
<stop offset="0.6941" stop-color="#F99C4C"/>
<stop offset="0.9964" stop-color="#F36F56"/>
</linearGradient>
<linearGradient id="paint53_linear_106_288" x1="187.17" y1="348.759" x2="193.372" y2="399.828" gradientUnits="userSpaceOnUse">
<stop stop-color="#FFDB44"/>
<stop offset="1" stop-color="#FEEF06"/>
</linearGradient>
<linearGradient id="paint54_linear_106_288" x1="186.91" y1="346.48" x2="188.815" y2="362.164" gradientUnits="userSpaceOnUse">
<stop stop-color="#FFDB44"/>
<stop offset="1" stop-color="#FEEF06"/>
</linearGradient>
<linearGradient id="paint55_linear_106_288" x1="188.642" y1="360.526" x2="186.744" y2="344.898" gradientUnits="userSpaceOnUse">
<stop offset="0.0036" stop-color="#F36F56"/>
<stop offset="0.3059" stop-color="#F99C4C"/>
<stop offset="0.545" stop-color="#FDB946"/>
<stop offset="0.6817" stop-color="#FFC444"/>
<stop offset="0.8038" stop-color="#FFC244"/>
<stop offset="0.8667" stop-color="#FEBA46"/>
<stop offset="0.916" stop-color="#FCAD49"/>
<stop offset="0.958" stop-color="#F99A4D"/>
<stop offset="0.9955" stop-color="#F58152"/>
<stop offset="1" stop-color="#F57E53"/>
</linearGradient>
<linearGradient id="paint56_linear_106_288" x1="136.916" y1="350.077" x2="250.788" y2="350.077" gradientUnits="userSpaceOnUse">
<stop stop-color="#F57E53"/>
<stop offset="0.0045" stop-color="#F58152"/>
<stop offset="0.042" stop-color="#F99A4D"/>
<stop offset="0.084" stop-color="#FCAD49"/>
<stop offset="0.1333" stop-color="#FEBA46"/>
<stop offset="0.1962" stop-color="#FFC244"/>
<stop offset="0.3183" stop-color="#FFC444"/>
<stop offset="0.455" stop-color="#FDB946"/>
<stop offset="0.6941" stop-color="#F99C4C"/>
<stop offset="0.9964" stop-color="#F36F56"/>
</linearGradient>
<linearGradient id="paint57_linear_106_288" x1="194.375" y1="337.037" x2="200.577" y2="388.106" gradientUnits="userSpaceOnUse">
<stop stop-color="#FFDB44"/>
<stop offset="1" stop-color="#FEEF06"/>
</linearGradient>
<linearGradient id="paint58_linear_106_288" x1="194.114" y1="334.758" x2="196.019" y2="350.442" gradientUnits="userSpaceOnUse">
<stop stop-color="#FFDB44"/>
<stop offset="1" stop-color="#FEEF06"/>
</linearGradient>
<linearGradient id="paint59_linear_106_288" x1="195.847" y1="348.805" x2="193.949" y2="333.176" gradientUnits="userSpaceOnUse">
<stop offset="0.0036" stop-color="#F36F56"/>
<stop offset="0.3059" stop-color="#F99C4C"/>
<stop offset="0.545" stop-color="#FDB946"/>
<stop offset="0.6817" stop-color="#FFC444"/>
<stop offset="0.8038" stop-color="#FFC244"/>
<stop offset="0.8667" stop-color="#FEBA46"/>
<stop offset="0.916" stop-color="#FCAD49"/>
<stop offset="0.958" stop-color="#F99A4D"/>
<stop offset="0.9955" stop-color="#F58152"/>
<stop offset="1" stop-color="#F57E53"/>
</linearGradient>
<linearGradient id="paint60_linear_106_288" x1="131.599" y1="337.43" x2="245.47" y2="337.43" gradientUnits="userSpaceOnUse">
<stop stop-color="#F57E53"/>
<stop offset="0.0045" stop-color="#F58152"/>
<stop offset="0.042" stop-color="#F99A4D"/>
<stop offset="0.084" stop-color="#FCAD49"/>
<stop offset="0.1333" stop-color="#FEBA46"/>
<stop offset="0.1962" stop-color="#FFC244"/>
<stop offset="0.3183" stop-color="#FFC444"/>
<stop offset="0.455" stop-color="#FDB946"/>
<stop offset="0.6941" stop-color="#F99C4C"/>
<stop offset="0.9964" stop-color="#F36F56"/>
</linearGradient>
<linearGradient id="paint61_linear_106_288" x1="189.058" y1="324.389" x2="195.26" y2="375.458" gradientUnits="userSpaceOnUse">
<stop stop-color="#FFDB44"/>
<stop offset="1" stop-color="#FEEF06"/>
</linearGradient>
<linearGradient id="paint62_linear_106_288" x1="188.797" y1="322.11" x2="190.701" y2="337.794" gradientUnits="userSpaceOnUse">
<stop stop-color="#FFDB44"/>
<stop offset="1" stop-color="#FEEF06"/>
</linearGradient>
<linearGradient id="paint63_linear_106_288" x1="190.53" y1="336.157" x2="188.632" y2="320.528" gradientUnits="userSpaceOnUse">
<stop offset="0.0036" stop-color="#F36F56"/>
<stop offset="0.3059" stop-color="#F99C4C"/>
<stop offset="0.545" stop-color="#FDB946"/>
<stop offset="0.6817" stop-color="#FFC444"/>
<stop offset="0.8038" stop-color="#FFC244"/>
<stop offset="0.8667" stop-color="#FEBA46"/>
<stop offset="0.916" stop-color="#FCAD49"/>
<stop offset="0.958" stop-color="#F99A4D"/>
<stop offset="0.9955" stop-color="#F58152"/>
<stop offset="1" stop-color="#F57E53"/>
</linearGradient>
<linearGradient id="paint64_linear_106_288" x1="117.84" y1="325.708" x2="231.712" y2="325.708" gradientUnits="userSpaceOnUse">
<stop stop-color="#F57E53"/>
<stop offset="0.0045" stop-color="#F58152"/>
<stop offset="0.042" stop-color="#F99A4D"/>
<stop offset="0.084" stop-color="#FCAD49"/>
<stop offset="0.1333" stop-color="#FEBA46"/>
<stop offset="0.1962" stop-color="#FFC244"/>
<stop offset="0.3183" stop-color="#FFC444"/>
<stop offset="0.455" stop-color="#FDB946"/>
<stop offset="0.6941" stop-color="#F99C4C"/>
<stop offset="0.9964" stop-color="#F36F56"/>
</linearGradient>
<linearGradient id="paint65_linear_106_288" x1="175.299" y1="312.667" x2="181.501" y2="363.736" gradientUnits="userSpaceOnUse">
<stop stop-color="#FFDB44"/>
<stop offset="1" stop-color="#FEEF06"/>
</linearGradient>
<linearGradient id="paint66_linear_106_288" x1="175.039" y1="310.389" x2="176.944" y2="326.073" gradientUnits="userSpaceOnUse">
<stop stop-color="#FFDB44"/>
<stop offset="1" stop-color="#FEEF06"/>
</linearGradient>
<linearGradient id="paint67_linear_106_288" x1="176.772" y1="324.435" x2="174.874" y2="308.806" gradientUnits="userSpaceOnUse">
<stop offset="0.0036" stop-color="#F36F56"/>
<stop offset="0.3059" stop-color="#F99C4C"/>
<stop offset="0.545" stop-color="#FDB946"/>
<stop offset="0.6817" stop-color="#FFC444"/>
<stop offset="0.8038" stop-color="#FFC244"/>
<stop offset="0.8667" stop-color="#FEBA46"/>
<stop offset="0.916" stop-color="#FCAD49"/>
<stop offset="0.958" stop-color="#F99A4D"/>
<stop offset="0.9955" stop-color="#F58152"/>
<stop offset="1" stop-color="#F57E53"/>
</linearGradient>
<linearGradient id="paint68_linear_106_288" x1="129.712" y1="314.02" x2="243.584" y2="314.02" gradientUnits="userSpaceOnUse">
<stop stop-color="#F57E53"/>
<stop offset="0.0045" stop-color="#F58152"/>
<stop offset="0.042" stop-color="#F99A4D"/>
<stop offset="0.084" stop-color="#FCAD49"/>
<stop offset="0.1333" stop-color="#FEBA46"/>
<stop offset="0.1962" stop-color="#FFC244"/>
<stop offset="0.3183" stop-color="#FFC444"/>
<stop offset="0.455" stop-color="#FDB946"/>
<stop offset="0.6941" stop-color="#F99C4C"/>
<stop offset="0.9964" stop-color="#F36F56"/>
</linearGradient>
<linearGradient id="paint69_linear_106_288" x1="187.17" y1="300.979" x2="193.372" y2="352.048" gradientUnits="userSpaceOnUse">
<stop stop-color="#FFDB44"/>
<stop offset="1" stop-color="#FEEF06"/>
</linearGradient>
<linearGradient id="paint70_linear_106_288" x1="186.91" y1="298.7" x2="188.815" y2="314.384" gradientUnits="userSpaceOnUse">
<stop stop-color="#FFDB44"/>
<stop offset="1" stop-color="#FEEF06"/>
</linearGradient>
<linearGradient id="paint71_linear_106_288" x1="188.642" y1="312.746" x2="186.744" y2="297.118" gradientUnits="userSpaceOnUse">
<stop offset="0.0036" stop-color="#F36F56"/>
<stop offset="0.3059" stop-color="#F99C4C"/>
<stop offset="0.545" stop-color="#FDB946"/>
<stop offset="0.6817" stop-color="#FFC444"/>
<stop offset="0.8038" stop-color="#FFC244"/>
<stop offset="0.8667" stop-color="#FEBA46"/>
<stop offset="0.916" stop-color="#FCAD49"/>
<stop offset="0.958" stop-color="#F99A4D"/>
<stop offset="0.9955" stop-color="#F58152"/>
<stop offset="1" stop-color="#F57E53"/>
</linearGradient>
<linearGradient id="paint72_linear_106_288" x1="123.536" y1="302.298" x2="237.408" y2="302.298" gradientUnits="userSpaceOnUse">
<stop stop-color="#F57E53"/>
<stop offset="0.0045" stop-color="#F58152"/>
<stop offset="0.042" stop-color="#F99A4D"/>
<stop offset="0.084" stop-color="#FCAD49"/>
<stop offset="0.1333" stop-color="#FEBA46"/>
<stop offset="0.1962" stop-color="#FFC244"/>
<stop offset="0.3183" stop-color="#FFC444"/>
<stop offset="0.455" stop-color="#FDB946"/>
<stop offset="0.6941" stop-color="#F99C4C"/>
<stop offset="0.9964" stop-color="#F36F56"/>
</linearGradient>
<linearGradient id="paint73_linear_106_288" x1="180.995" y1="289.256" x2="187.198" y2="340.326" gradientUnits="userSpaceOnUse">
<stop stop-color="#FFDB44"/>
<stop offset="1" stop-color="#FEEF06"/>
</linearGradient>
<linearGradient id="paint74_linear_106_288" x1="180.735" y1="286.978" x2="182.64" y2="302.662" gradientUnits="userSpaceOnUse">
<stop stop-color="#FFDB44"/>
<stop offset="1" stop-color="#FEEF06"/>
</linearGradient>
<linearGradient id="paint75_linear_106_288" x1="182.468" y1="301.024" x2="180.57" y2="285.396" gradientUnits="userSpaceOnUse">
<stop offset="0.0036" stop-color="#F36F56"/>
<stop offset="0.3059" stop-color="#F99C4C"/>
<stop offset="0.545" stop-color="#FDB946"/>
<stop offset="0.6817" stop-color="#FFC444"/>
<stop offset="0.8038" stop-color="#FFC244"/>
<stop offset="0.8667" stop-color="#FEBA46"/>
<stop offset="0.916" stop-color="#FCAD49"/>
<stop offset="0.958" stop-color="#F99A4D"/>
<stop offset="0.9955" stop-color="#F58152"/>
<stop offset="1" stop-color="#F57E53"/>
</linearGradient>
<linearGradient id="paint76_linear_106_288" x1="233.066" y1="299.435" x2="300.523" y2="392.723" gradientUnits="userSpaceOnUse">
<stop stop-color="#F57E53"/>
<stop offset="0.0045" stop-color="#F58152"/>
<stop offset="0.042" stop-color="#F99A4D"/>
<stop offset="0.084" stop-color="#FCAD49"/>
<stop offset="0.1333" stop-color="#FEBA46"/>
<stop offset="0.1962" stop-color="#FFC244"/>
<stop offset="0.3183" stop-color="#FFC444"/>
<stop offset="0.455" stop-color="#FDB946"/>
<stop offset="0.6941" stop-color="#F99C4C"/>
<stop offset="0.9964" stop-color="#F36F56"/>
</linearGradient>
<linearGradient id="paint77_linear_106_288" x1="276.821" y1="339.481" x2="238.793" y2="373.438" gradientUnits="userSpaceOnUse">
<stop stop-color="#FFDB44"/>
<stop offset="1" stop-color="#FEEF06"/>
</linearGradient>
<linearGradient id="paint78_linear_106_288" x1="278.495" y1="337.945" x2="266.816" y2="348.373" gradientUnits="userSpaceOnUse">
<stop stop-color="#FFDB44"/>
<stop offset="1" stop-color="#FEEF06"/>
</linearGradient>
<linearGradient id="paint79_linear_106_288" x1="268.244" y1="347.519" x2="279.88" y2="337.128" gradientUnits="userSpaceOnUse">
<stop offset="0.0036" stop-color="#F36F56"/>
<stop offset="0.3059" stop-color="#F99C4C"/>
<stop offset="0.545" stop-color="#FDB946"/>
<stop offset="0.6817" stop-color="#FFC444"/>
<stop offset="0.8038" stop-color="#FFC244"/>
<stop offset="0.8667" stop-color="#FEBA46"/>
<stop offset="0.916" stop-color="#FCAD49"/>
<stop offset="0.958" stop-color="#F99A4D"/>
<stop offset="0.9955" stop-color="#F58152"/>
<stop offset="1" stop-color="#F57E53"/>
</linearGradient>
<linearGradient id="paint80_linear_106_288" x1="252.737" y1="73.152" x2="283.958" y2="58.0454" gradientUnits="userSpaceOnUse">
<stop stop-color="#FF9085"/>
<stop offset="1" stop-color="#FB6FBB"/>
</linearGradient>
<linearGradient id="paint81_linear_106_288" x1="120.941" y1="95.4716" x2="254.879" y2="30.6648" gradientUnits="userSpaceOnUse">
<stop stop-color="#FF9085"/>
<stop offset="1" stop-color="#FB6FBB"/>
</linearGradient>
<linearGradient id="paint82_linear_106_288" x1="366.399" y1="252.758" x2="321.035" y2="598.204" gradientUnits="userSpaceOnUse">
<stop stop-color="#FF9085"/>
<stop offset="1" stop-color="#FB6FBB"/>
</linearGradient>
<linearGradient id="paint83_linear_106_288" x1="340.106" y1="305.055" x2="310.823" y2="528.045" gradientUnits="userSpaceOnUse">
<stop stop-color="#AA80F9"/>
<stop offset="0.9964" stop-color="#6165D7"/>
</linearGradient>
</defs>
</svg>
